<svg width="24" height="23" viewBox="0 0 24 23" fill="none" xmlns="http://www.w3.org/2000/svg">
<path d="M4.77164 22.6835H19.2165C21.7929 22.6835 23.1289 21.3476 23.1289 18.8069V4.29053C23.1289 1.73793 21.7929 0.413925 19.2165 0.413925H4.77164C2.19519 0.413925 0.859253 1.73793 0.859253 4.29053V18.8069C0.859253 21.3595 2.19519 22.6835 4.77164 22.6835ZM4.91478 20.3456C3.80547 20.3456 3.19714 19.7612 3.19714 18.6041V4.48138C3.19714 3.32436 3.80547 2.75182 4.91478 2.75182H19.0733C20.1707 2.75182 20.791 3.32436 20.791 4.48138V18.6041C20.791 19.7612 20.1707 20.3456 19.0733 20.3456H4.91478ZM7.1811 16.2424H13.2286C14.4453 16.2424 15.149 15.5506 15.149 14.3697V8.72775C15.149 7.52302 14.493 6.84312 13.2763 6.84312H7.1811C6.01215 6.84312 5.26069 7.52302 5.26069 8.72775V14.3936C5.26069 15.5864 5.97637 16.2424 7.1811 16.2424ZM15.817 13.2365L17.964 15.0615C18.2026 15.2524 18.4411 15.3955 18.6678 15.3955C19.133 15.3955 19.4431 15.0615 19.4431 14.5605V8.54883C19.4431 8.04785 19.133 7.7258 18.6678 7.7258C18.4411 7.7258 18.1907 7.85701 17.964 8.03593L15.817 9.86091V13.2365Z" fill="white"/>
</svg>
