<svg width="23" height="26" viewBox="0 0 23 26" fill="none" xmlns="http://www.w3.org/2000/svg">
<path d="M18.011 10.823H4.246V13.323H18.011V10.823ZM18.011 14.46H4.246V16.96H18.011V14.46ZM16.658 18.273H4.246V20.773H16.659L16.658 18.273ZM20.022 2.5H18.771V0H16.271V2.5H6.257V0H3.757V2.5H2.5C2.17246 2.50052 1.84823 2.56564 1.54588 2.69162C1.24353 2.81761 0.969 3.00198 0.737995 3.23419C0.50699 3.4664 0.32405 3.74189 0.199646 4.0449C0.0752416 4.3479 0.0118162 4.67246 0.013 5L0 22.515C0 23.178 0.263392 23.8139 0.732233 24.2828C1.20107 24.7516 1.83696 25.015 2.5 25.015H20.022C20.6842 25.0124 21.3186 24.7481 21.7869 24.2799C22.2551 23.8116 22.5194 23.1772 22.522 22.515V5C22.5194 4.33777 22.2551 3.70341 21.7869 3.23514C21.3186 2.76687 20.6842 2.50263 20.022 2.5ZM20.022 22.513H2.5V8.756H20.022V22.513Z" fill="white"/>
</svg>
