<svg width="15" height="21" viewBox="0 0 15 21" fill="none" xmlns="http://www.w3.org/2000/svg">
<path d="M7.31545 17.8468L1.77445 12.3018C1.57677 12.1108 1.31193 12.0052 1.03708 12.0078C0.762235 12.0104 0.499436 12.121 0.30541 12.3157C0.111385 12.5104 0.00169521 12.7736 1.94844e-05 13.0484C-0.00165624 13.3233 0.104816 13.5878 0.296453 13.7848L6.57445 20.0668C6.76488 20.2568 7.02126 20.3661 7.29024 20.3719C7.55921 20.3777 7.82005 20.2795 8.01845 20.0978L14.3405 13.7888C14.5371 13.5927 14.6478 13.3264 14.6482 13.0487C14.6486 12.771 14.5386 12.5044 14.3425 12.3078C14.1463 12.1111 13.8801 12.0004 13.6024 12.0001C13.3246 11.9997 13.0581 12.1097 12.8615 12.3058L7.31545 17.8468Z" fill="#5A5A5A"/>
<path d="M7.31527 2.52548L1.77427 8.07048C1.57659 8.26145 1.31174 8.36703 1.0369 8.36443C0.762052 8.36182 0.499253 8.25124 0.305227 8.05656C0.111202 7.86188 0.0015121 7.59871 -0.000163621 7.32386C-0.00183934 7.049 0.104633 6.78451 0.29627 6.58748L6.57427 0.305481C6.76469 0.115427 7.02108 0.00613746 7.29005 0.000363062C7.55903 -0.00541134 7.81987 0.092774 8.01827 0.274481L14.3403 6.58348C14.5369 6.77961 14.6476 7.04582 14.648 7.32357C14.6484 7.60131 14.5384 7.86782 14.3423 8.06448C14.1461 8.26114 13.8799 8.37183 13.6022 8.37221C13.3244 8.37258 13.0579 8.26261 12.8613 8.06648L7.31527 2.52548Z" fill="#5A5A5A"/>
</svg>
