<svg width="14" height="15" viewBox="0 0 14 15" fill="none" xmlns="http://www.w3.org/2000/svg">
<path d="M12.9263 6.20047L7.0603 0.342466C6.95407 0.234039 6.82727 0.1479 6.68732 0.0890951C6.54738 0.0302897 6.3971 0 6.2453 0C6.09351 0 5.94323 0.0302897 5.80329 0.0890951C5.66334 0.1479 5.53654 0.234039 5.43031 0.342466L4.7553 1.01747C4.64418 1.12055 4.55622 1.24607 4.49726 1.38572C4.4383 1.52536 4.40969 1.67593 4.41331 1.82747C4.40969 1.979 4.4383 2.12958 4.49726 2.26922C4.55622 2.40886 4.64418 2.53438 4.7553 2.63747L7.3933 5.28447H1.05431C0.910211 5.27998 0.766959 5.30804 0.635206 5.36656C0.503453 5.42508 0.386589 5.51255 0.293305 5.62247C0.0975918 5.84819 -0.00688535 6.1388 0.000305176 6.43747V7.59047C-0.00688535 7.88913 0.0975918 8.17974 0.293305 8.40547C0.386589 8.51538 0.503453 8.60285 0.635206 8.66137C0.766959 8.71989 0.910211 8.74795 1.05431 8.74347H7.3933L4.7553 11.3815C4.64685 11.4886 4.56075 11.6162 4.50198 11.7569C4.44321 11.8976 4.41295 12.0485 4.41295 12.201C4.41295 12.3534 4.44321 12.5044 4.50198 12.645C4.56075 12.7857 4.64685 12.9133 4.7553 13.0205L5.43031 13.6955C5.64778 13.9091 5.94045 14.0288 6.2453 14.0288C6.55016 14.0288 6.84283 13.9091 7.0603 13.6955L12.9263 7.83347C13.0348 7.7269 13.1203 7.59927 13.1775 7.45842C13.2348 7.31756 13.2626 7.16648 13.2593 7.01447C13.2649 6.86291 13.2381 6.7119 13.1807 6.57152C13.1232 6.43115 13.0365 6.30465 12.9263 6.20047Z" fill="white"/>
</svg>
