<svg width="27" height="27" viewBox="0 0 27 27" fill="none" xmlns="http://www.w3.org/2000/svg">
<path d="M3.8169 1.52817V2.05634H23.1831C23.6761 2.05634 24.0986 2.26761 24.4155 2.58451C24.7324 2.90141 24.9437 3.32394 24.9437 3.8169V23.1831C24.9437 23.6761 24.7324 24.0986 24.4155 24.4155C24.0986 24.7324 23.6761 24.9437 23.1831 24.9437H3.8169C3.32394 24.9437 2.90141 24.7324 2.58451 24.4155C2.26761 24.0986 2.05634 23.6761 2.05634 23.1831V3.8169C2.05634 3.32394 2.26761 2.90141 2.58451 2.58451C2.90141 2.26761 3.32394 2.05634 3.8169 2.05634V1.52817V1C2.26761 1 1 2.26761 1 3.8169V23.1831C1 24.7324 2.26761 26 3.8169 26H23.1831C24.7324 26 26 24.7324 26 23.1831V3.8169C26 2.26761 24.7324 1 23.1831 1H3.8169V1.52817Z" fill="#5A5A5A"/>
<path d="M3.8169 1.52817V2.05634H23.1831C23.6761 2.05634 24.0986 2.26761 24.4155 2.58451C24.7324 2.90141 24.9437 3.32394 24.9437 3.8169V23.1831C24.9437 23.6761 24.7324 24.0986 24.4155 24.4155C24.0986 24.7324 23.6761 24.9437 23.1831 24.9437H3.8169C3.32394 24.9437 2.90141 24.7324 2.58451 24.4155C2.26761 24.0986 2.05634 23.6761 2.05634 23.1831V3.8169C2.05634 3.32394 2.26761 2.90141 2.58451 2.58451C2.90141 2.26761 3.32394 2.05634 3.8169 2.05634V1.52817ZM3.8169 1.52817V1C2.26761 1 1 2.26761 1 3.8169V23.1831C1 24.7324 2.26761 26 3.8169 26H23.1831C24.7324 26 26 24.7324 26 23.1831V3.8169C26 2.26761 24.7324 1 23.1831 1H3.8169V1.52817Z" stroke="#5A5A5A"/>
<mask id="path-3-inside-1_1416_1580" fill="white">
<path d="M1.7041 6.81024H25.2957V5.75391H1.7041"/>
</mask>
<path d="M1.7041 6.81024H25.2957V5.75391H1.7041" fill="#5A5A5A"/>
<path d="M25.2957 6.81024V8.81024H27.2957V6.81024H25.2957ZM25.2957 5.75391H27.2957V3.75391H25.2957V5.75391ZM1.7041 8.81024H25.2957V4.81024H1.7041V8.81024ZM27.2957 6.81024V5.75391H23.2957V6.81024H27.2957ZM25.2957 3.75391H1.7041V7.75391H25.2957V3.75391Z" fill="#5A5A5A" mask="url(#path-3-inside-1_1416_1580)"/>
<mask id="path-5-inside-2_1416_1580" fill="white">
<path d="M22.4789 3.8161C22.4789 4.02737 22.338 4.16822 22.1268 4.16822V4.87244C22.7254 4.87244 23.1831 4.4147 23.1831 3.8161H22.4789ZM22.1268 4.16822C21.9155 4.16822 21.7747 4.02737 21.7747 3.8161H21.0704C21.0704 4.4147 21.5282 4.87244 22.1268 4.87244V4.16822ZM21.7747 3.8161C21.7747 3.60484 21.9155 3.46399 22.1268 3.46399V2.75977C21.5282 2.75977 21.0704 3.21751 21.0704 3.8161H21.7747ZM22.1268 3.46399C22.338 3.46399 22.4789 3.60484 22.4789 3.8161H23.1831C23.1831 3.21751 22.7254 2.75977 22.1268 2.75977V3.46399Z"/>
</mask>
<path d="M22.4789 3.8161C22.4789 4.02737 22.338 4.16822 22.1268 4.16822V4.87244C22.7254 4.87244 23.1831 4.4147 23.1831 3.8161H22.4789ZM22.1268 4.16822C21.9155 4.16822 21.7747 4.02737 21.7747 3.8161H21.0704C21.0704 4.4147 21.5282 4.87244 22.1268 4.87244V4.16822ZM21.7747 3.8161C21.7747 3.60484 21.9155 3.46399 22.1268 3.46399V2.75977C21.5282 2.75977 21.0704 3.21751 21.0704 3.8161H21.7747ZM22.1268 3.46399C22.338 3.46399 22.4789 3.60484 22.4789 3.8161H23.1831C23.1831 3.21751 22.7254 2.75977 22.1268 2.75977V3.46399Z" fill="#5A5A5A"/>
<path d="M22.4789 3.8161V1.8161H20.4789V3.8161H22.4789ZM22.1268 4.16822V2.16822H20.1268V4.16822H22.1268ZM22.1268 4.87244H20.1268V6.87244H22.1268V4.87244ZM23.1831 3.8161H25.1831V1.8161H23.1831V3.8161ZM22.1268 4.16822H24.1268V2.16822H22.1268V4.16822ZM21.7747 3.8161H23.7747V1.8161H21.7747V3.8161ZM21.0704 3.8161V1.8161H19.0704V3.8161H21.0704ZM22.1268 4.87244V6.87244H24.1268V4.87244H22.1268ZM21.7747 3.8161V5.8161H23.7747V3.8161H21.7747ZM22.1268 3.46399V5.46399H24.1268V3.46399H22.1268ZM22.1268 2.75977H24.1268V0.759766H22.1268V2.75977ZM21.0704 3.8161H19.0704V5.8161H21.0704V3.8161ZM22.1268 3.46399H20.1268V5.46399H22.1268V3.46399ZM22.4789 3.8161H20.4789V5.8161H22.4789V3.8161ZM23.1831 3.8161V5.8161H25.1831V3.8161H23.1831ZM22.1268 2.75977V0.759766H20.1268V2.75977H22.1268ZM20.4789 3.8161C20.4789 3.46724 20.6039 3.02111 20.9678 2.65717C21.3318 2.29323 21.7779 2.16822 22.1268 2.16822V6.16822C22.6869 6.16822 23.3091 5.97278 23.7963 5.4856C24.2834 4.99842 24.4789 4.37623 24.4789 3.8161H20.4789ZM20.1268 4.16822V4.87244H24.1268V4.16822H20.1268ZM22.1268 6.87244C23.8299 6.87244 25.1831 5.51926 25.1831 3.8161H21.1831C21.1831 3.59228 21.2742 3.34549 21.4652 3.15453C21.6562 2.96358 21.903 2.87244 22.1268 2.87244V6.87244ZM23.1831 1.8161H22.4789V5.8161H23.1831V1.8161ZM22.1268 2.16822C22.4756 2.16822 22.9218 2.29323 23.2857 2.65717C23.6496 3.02111 23.7747 3.46724 23.7747 3.8161H19.7747C19.7747 4.37623 19.9701 4.99842 20.4573 5.4856C20.9445 5.97278 21.5666 6.16822 22.1268 6.16822V2.16822ZM21.7747 1.8161H21.0704V5.8161H21.7747V1.8161ZM19.0704 3.8161C19.0704 5.51926 20.4236 6.87244 22.1268 6.87244V2.87244C22.3506 2.87244 22.5974 2.96358 22.7883 3.15453C22.9793 3.34549 23.0704 3.59228 23.0704 3.8161H19.0704ZM24.1268 4.87244V4.16822H20.1268V4.87244H24.1268ZM23.7747 3.8161C23.7747 4.16497 23.6496 4.6111 23.2857 4.97504C22.9218 5.33897 22.4756 5.46399 22.1268 5.46399V1.46399C21.5666 1.46399 20.9445 1.65943 20.4573 2.14661C19.9701 2.63379 19.7747 3.25597 19.7747 3.8161H23.7747ZM24.1268 3.46399V2.75977H20.1268V3.46399H24.1268ZM22.1268 0.759766C20.4236 0.759766 19.0704 2.11294 19.0704 3.8161H23.0704C23.0704 4.03992 22.9793 4.28672 22.7883 4.47768C22.5974 4.66863 22.3506 4.75977 22.1268 4.75977V0.759766ZM21.0704 5.8161H21.7747V1.8161H21.0704V5.8161ZM22.1268 5.46399C21.7779 5.46399 21.3318 5.33897 20.9678 4.97504C20.6039 4.6111 20.4789 4.16497 20.4789 3.8161H24.4789C24.4789 3.25597 24.2834 2.63379 23.7963 2.14661C23.3091 1.65943 22.6869 1.46399 22.1268 1.46399V5.46399ZM22.4789 5.8161H23.1831V1.8161H22.4789V5.8161ZM25.1831 3.8161C25.1831 2.11294 23.8299 0.759766 22.1268 0.759766V4.75977C21.903 4.75977 21.6562 4.66863 21.4652 4.47768C21.2742 4.28672 21.1831 4.03992 21.1831 3.8161H25.1831ZM20.1268 2.75977V3.46399H24.1268V2.75977H20.1268Z" fill="#5A5A5A" mask="url(#path-5-inside-2_1416_1580)"/>
<mask id="path-7-inside-3_1416_1580" fill="white">
<path d="M19.662 3.8161C19.662 4.02737 19.5211 4.16822 19.3099 4.16822V4.87244C19.9085 4.87244 20.3662 4.4147 20.3662 3.8161H19.662ZM19.3099 4.16822C19.0986 4.16822 18.9578 4.02737 18.9578 3.8161H18.2535C18.2535 4.4147 18.7113 4.87244 19.3099 4.87244V4.16822ZM18.9578 3.8161C18.9578 3.60484 19.0986 3.46399 19.3099 3.46399V2.75977C18.7113 2.75977 18.2535 3.21751 18.2535 3.8161H18.9578ZM19.3099 3.46399C19.5211 3.46399 19.662 3.60484 19.662 3.8161H20.3662C20.3662 3.21751 19.9085 2.75977 19.3099 2.75977V3.46399Z"/>
</mask>
<path d="M19.662 3.8161C19.662 4.02737 19.5211 4.16822 19.3099 4.16822V4.87244C19.9085 4.87244 20.3662 4.4147 20.3662 3.8161H19.662ZM19.3099 4.16822C19.0986 4.16822 18.9578 4.02737 18.9578 3.8161H18.2535C18.2535 4.4147 18.7113 4.87244 19.3099 4.87244V4.16822ZM18.9578 3.8161C18.9578 3.60484 19.0986 3.46399 19.3099 3.46399V2.75977C18.7113 2.75977 18.2535 3.21751 18.2535 3.8161H18.9578ZM19.3099 3.46399C19.5211 3.46399 19.662 3.60484 19.662 3.8161H20.3662C20.3662 3.21751 19.9085 2.75977 19.3099 2.75977V3.46399Z" fill="#5A5A5A"/>
<path d="M19.662 3.8161V1.8161H17.662V3.8161H19.662ZM19.3099 4.16822V2.16822H17.3099V4.16822H19.3099ZM19.3099 4.87244H17.3099V6.87244H19.3099V4.87244ZM20.3662 3.8161H22.3662V1.8161H20.3662V3.8161ZM19.3099 4.16822H21.3099V2.16822H19.3099V4.16822ZM18.9578 3.8161H20.9578V1.8161H18.9578V3.8161ZM18.2535 3.8161V1.8161H16.2535V3.8161H18.2535ZM19.3099 4.87244V6.87244H21.3099V4.87244H19.3099ZM18.9578 3.8161V5.8161H20.9578V3.8161H18.9578ZM19.3099 3.46399V5.46399H21.3099V3.46399H19.3099ZM19.3099 2.75977H21.3099V0.759766H19.3099V2.75977ZM18.2535 3.8161H16.2535V5.8161H18.2535V3.8161ZM19.3099 3.46399H17.3099V5.46399H19.3099V3.46399ZM19.662 3.8161H17.662V5.8161H19.662V3.8161ZM20.3662 3.8161V5.8161H22.3662V3.8161H20.3662ZM19.3099 2.75977V0.759766H17.3099V2.75977H19.3099ZM17.662 3.8161C17.662 3.46724 17.787 3.02111 18.1509 2.65717C18.5149 2.29323 18.961 2.16822 19.3099 2.16822V6.16822C19.87 6.16822 20.4922 5.97278 20.9794 5.4856C21.4666 4.99842 21.662 4.37623 21.662 3.8161H17.662ZM17.3099 4.16822V4.87244H21.3099V4.16822H17.3099ZM19.3099 6.87244C21.013 6.87244 22.3662 5.51926 22.3662 3.8161H18.3662C18.3662 3.59228 18.4574 3.34549 18.6483 3.15453C18.8393 2.96358 19.0861 2.87244 19.3099 2.87244V6.87244ZM20.3662 1.8161H19.662V5.8161H20.3662V1.8161ZM19.3099 2.16822C19.6587 2.16822 20.1049 2.29323 20.4688 2.65717C20.8327 3.02111 20.9578 3.46724 20.9578 3.8161H16.9578C16.9578 4.37623 17.1532 4.99842 17.6404 5.4856C18.1276 5.97278 18.7497 6.16822 19.3099 6.16822V2.16822ZM18.9578 1.8161H18.2535V5.8161H18.9578V1.8161ZM16.2535 3.8161C16.2535 5.51926 17.6067 6.87244 19.3099 6.87244V2.87244C19.5337 2.87244 19.7805 2.96358 19.9715 3.15453C20.1624 3.34549 20.2535 3.59228 20.2535 3.8161H16.2535ZM21.3099 4.87244V4.16822H17.3099V4.87244H21.3099ZM20.9578 3.8161C20.9578 4.16497 20.8327 4.6111 20.4688 4.97504C20.1049 5.33897 19.6587 5.46399 19.3099 5.46399V1.46399C18.7497 1.46399 18.1276 1.65943 17.6404 2.14661C17.1532 2.63379 16.9578 3.25597 16.9578 3.8161H20.9578ZM21.3099 3.46399V2.75977H17.3099V3.46399H21.3099ZM19.3099 0.759766C17.6067 0.759766 16.2535 2.11294 16.2535 3.8161H20.2535C20.2535 4.03992 20.1624 4.28672 19.9715 4.47768C19.7805 4.66863 19.5337 4.75977 19.3099 4.75977V0.759766ZM18.2535 5.8161H18.9578V1.8161H18.2535V5.8161ZM19.3099 5.46399C18.961 5.46399 18.5149 5.33897 18.1509 4.97504C17.787 4.6111 17.662 4.16497 17.662 3.8161H21.662C21.662 3.25597 21.4666 2.63379 20.9794 2.14661C20.4922 1.65943 19.87 1.46399 19.3099 1.46399V5.46399ZM19.662 5.8161H20.3662V1.8161H19.662V5.8161ZM22.3662 3.8161C22.3662 2.11294 21.013 0.759766 19.3099 0.759766V4.75977C19.0861 4.75977 18.8393 4.66863 18.6483 4.47768C18.4574 4.28672 18.3662 4.03992 18.3662 3.8161H22.3662ZM17.3099 2.75977V3.46399H21.3099V2.75977H17.3099Z" fill="#5A5A5A" mask="url(#path-7-inside-3_1416_1580)"/>
<mask id="path-9-inside-4_1416_1580" fill="white">
<path d="M16.4929 3.11188V3.46399C16.7041 3.46399 16.845 3.60484 16.845 3.8161C16.845 4.02737 16.7041 4.16822 16.4929 4.16822C16.2816 4.16822 16.1407 4.02737 16.1407 3.8161C16.1407 3.60484 16.2816 3.46399 16.4929 3.46399V3.11188V2.75977C15.8943 2.75977 15.4365 3.21751 15.4365 3.8161C15.4365 4.4147 15.8943 4.87244 16.4929 4.87244C17.0915 4.87244 17.5492 4.4147 17.5492 3.8161C17.5492 3.21751 17.0915 2.75977 16.4929 2.75977V3.11188Z"/>
</mask>
<path d="M16.4929 3.11188V3.46399C16.7041 3.46399 16.845 3.60484 16.845 3.8161C16.845 4.02737 16.7041 4.16822 16.4929 4.16822C16.2816 4.16822 16.1407 4.02737 16.1407 3.8161C16.1407 3.60484 16.2816 3.46399 16.4929 3.46399V3.11188V2.75977C15.8943 2.75977 15.4365 3.21751 15.4365 3.8161C15.4365 4.4147 15.8943 4.87244 16.4929 4.87244C17.0915 4.87244 17.5492 4.4147 17.5492 3.8161C17.5492 3.21751 17.0915 2.75977 16.4929 2.75977V3.11188Z" fill="#5A5A5A"/>
<path d="M16.4929 3.46399H14.4929V5.46399H16.4929V3.46399ZM16.4929 3.46399V5.46399H18.4929V3.46399H16.4929ZM16.4929 2.75977H18.4929V0.759766H16.4929V2.75977ZM16.4929 2.75977V0.759766H14.4929V2.75977H16.4929ZM14.4929 3.11188V3.46399H18.4929V3.11188H14.4929ZM16.4929 5.46399C16.144 5.46399 15.6979 5.33897 15.3339 4.97504C14.97 4.6111 14.845 4.16497 14.845 3.8161H18.845C18.845 3.25597 18.6495 2.63379 18.1624 2.14661C17.6752 1.65943 17.053 1.46399 16.4929 1.46399V5.46399ZM14.845 3.8161C14.845 3.46724 14.97 3.02111 15.3339 2.65717C15.6979 2.29323 16.144 2.16822 16.4929 2.16822V6.16822C17.053 6.16822 17.6752 5.97278 18.1624 5.4856C18.6495 4.99842 18.845 4.37623 18.845 3.8161H14.845ZM16.4929 2.16822C16.8417 2.16822 17.2879 2.29323 17.6518 2.65717C18.0157 3.02111 18.1407 3.46724 18.1407 3.8161H14.1407C14.1407 4.37623 14.3362 4.99842 14.8234 5.4856C15.3105 5.97278 15.9327 6.16822 16.4929 6.16822V2.16822ZM18.1407 3.8161C18.1407 4.16497 18.0157 4.6111 17.6518 4.97504C17.2879 5.33897 16.8417 5.46399 16.4929 5.46399V1.46399C15.9327 1.46399 15.3105 1.65943 14.8234 2.14661C14.3362 2.63379 14.1407 3.25597 14.1407 3.8161H18.1407ZM18.4929 3.46399V3.11188H14.4929V3.46399H18.4929ZM18.4929 3.11188V2.75977H14.4929V3.11188H18.4929ZM16.4929 0.759766C14.7897 0.759766 13.4365 2.11294 13.4365 3.8161H17.4365C17.4365 4.03992 17.3454 4.28672 17.1544 4.47768C16.9635 4.66863 16.7167 4.75977 16.4929 4.75977V0.759766ZM13.4365 3.8161C13.4365 5.51926 14.7897 6.87244 16.4929 6.87244V2.87244C16.7167 2.87244 16.9635 2.96358 17.1544 3.15453C17.3454 3.34549 17.4365 3.59228 17.4365 3.8161H13.4365ZM16.4929 6.87244C18.196 6.87244 19.5492 5.51926 19.5492 3.8161H15.5492C15.5492 3.59228 15.6403 3.34549 15.8313 3.15453C16.0222 2.96358 16.269 2.87244 16.4929 2.87244V6.87244ZM19.5492 3.8161C19.5492 2.11294 18.196 0.759766 16.4929 0.759766V4.75977C16.269 4.75977 16.0222 4.66863 15.8313 4.47768C15.6403 4.28672 15.5492 4.03992 15.5492 3.8161H19.5492ZM14.4929 2.75977V3.11188H18.4929V2.75977H14.4929Z" fill="#5A5A5A" mask="url(#path-9-inside-4_1416_1580)"/>
<mask id="path-11-inside-5_1416_1580" fill="white">
<path d="M18.4295 8.4655V8.88804C19.0986 8.88804 19.7324 9.16973 20.1549 9.62748C20.6126 10.0852 20.8591 10.6838 20.8943 11.3528C20.8943 12.0218 20.6126 12.6556 20.1549 13.0782C19.6971 13.5359 19.0986 13.7824 18.4295 13.8176C17.7605 13.8176 17.1267 13.5359 16.7042 13.0782C16.2464 12.6204 16 12.0218 15.9648 11.3528C15.9648 10.6838 16.2464 10.05 16.7042 9.62748C17.1619 9.16973 17.7605 8.92325 18.4295 8.88804V8.4655V8.04297C16.5986 8.04297 15.0845 9.55705 15.0845 11.388C15.0845 13.219 16.5986 14.7331 18.4295 14.7331C20.2605 14.7331 21.7746 13.219 21.7746 11.388C21.7746 9.55705 20.2605 8.04297 18.4295 8.04297V8.4655Z"/>
</mask>
<path d="M18.4295 8.4655V8.88804C19.0986 8.88804 19.7324 9.16973 20.1549 9.62748C20.6126 10.0852 20.8591 10.6838 20.8943 11.3528C20.8943 12.0218 20.6126 12.6556 20.1549 13.0782C19.6971 13.5359 19.0986 13.7824 18.4295 13.8176C17.7605 13.8176 17.1267 13.5359 16.7042 13.0782C16.2464 12.6204 16 12.0218 15.9648 11.3528C15.9648 10.6838 16.2464 10.05 16.7042 9.62748C17.1619 9.16973 17.7605 8.92325 18.4295 8.88804V8.4655V8.04297C16.5986 8.04297 15.0845 9.55705 15.0845 11.388C15.0845 13.219 16.5986 14.7331 18.4295 14.7331C20.2605 14.7331 21.7746 13.219 21.7746 11.388C21.7746 9.55705 20.2605 8.04297 18.4295 8.04297V8.4655Z" fill="#5A5A5A"/>
<path d="M18.4295 8.88804H16.4295V10.888H18.4295V8.88804ZM20.1549 9.62748L18.6853 10.984L18.7124 11.0134L18.7407 11.0417L20.1549 9.62748ZM20.8943 11.3528H22.8943V11.3002L22.8916 11.2477L20.8943 11.3528ZM20.1549 13.0782L18.7983 11.6086L18.769 11.6357L18.7407 11.664L20.1549 13.0782ZM18.4295 13.8176V15.8176H18.4821L18.5347 15.8149L18.4295 13.8176ZM16.7042 13.0782L18.1738 11.7216L18.1467 11.6922L18.1184 11.664L16.7042 13.0782ZM15.9648 11.3528H13.9648V11.4054L13.9675 11.4579L15.9648 11.3528ZM16.7042 9.62748L18.0608 11.0971L18.0901 11.07L18.1184 11.0417L16.7042 9.62748ZM18.4295 8.88804L18.5347 10.8853L20.4295 10.7855V8.88804H18.4295ZM18.4295 8.04297H20.4295V6.04297H18.4295V8.04297ZM18.4295 8.04297V6.04297H16.4295V8.04297H18.4295ZM16.4295 8.4655V8.88804H20.4295V8.4655H16.4295ZM18.4295 10.888C18.4843 10.888 18.5401 10.8999 18.5902 10.9215C18.6412 10.9436 18.672 10.9696 18.6853 10.984L21.6245 8.27092C20.8151 7.39406 19.6445 6.88804 18.4295 6.88804V10.888ZM18.7407 11.0417C18.814 11.115 18.8851 11.2305 18.8971 11.4579L22.8916 11.2477C22.8331 10.1371 22.4113 9.05542 21.5691 8.21326L18.7407 11.0417ZM18.8943 11.3528C18.8943 11.4076 18.8825 11.4634 18.8608 11.5135C18.8387 11.5645 18.8128 11.5952 18.7983 11.6086L21.5115 14.5478C22.3883 13.7384 22.8943 12.5678 22.8943 11.3528H18.8943ZM18.7407 11.664C18.6673 11.7373 18.5519 11.8084 18.3244 11.8204L18.5347 15.8149C19.6452 15.7564 20.727 15.3345 21.5691 14.4924L18.7407 11.664ZM18.4295 11.8176C18.3748 11.8176 18.319 11.8058 18.2689 11.7841C18.2179 11.762 18.1871 11.7361 18.1738 11.7216L15.2346 14.4347C16.044 15.3116 17.2146 15.8176 18.4295 15.8176V11.8176ZM18.1184 11.664C18.0451 11.5906 17.974 11.4752 17.962 11.2477L13.9675 11.4579C14.026 12.5685 14.4478 13.6502 15.29 14.4924L18.1184 11.664ZM17.9648 11.3528C17.9648 11.2981 17.9766 11.2423 17.9983 11.1922C18.0203 11.1412 18.0463 11.1104 18.0608 11.0971L15.3476 8.15787C14.4708 8.96727 13.9648 10.1379 13.9648 11.3528H17.9648ZM18.1184 11.0417C18.1917 10.9684 18.3072 10.8972 18.5347 10.8853L18.3244 6.8908C17.2138 6.94925 16.1321 7.3711 15.29 8.21326L18.1184 11.0417ZM20.4295 8.88804V8.4655H16.4295V8.88804H20.4295ZM20.4295 8.4655V8.04297H16.4295V8.4655H20.4295ZM18.4295 6.04297C15.494 6.04297 13.0845 8.45248 13.0845 11.388H17.0845C17.0845 10.6616 17.7031 10.043 18.4295 10.043V6.04297ZM13.0845 11.388C13.0845 14.3236 15.494 16.7331 18.4295 16.7331V12.7331C17.7031 12.7331 17.0845 12.1145 17.0845 11.388H13.0845ZM18.4295 16.7331C21.3651 16.7331 23.7746 14.3236 23.7746 11.388H19.7746C19.7746 12.1145 19.156 12.7331 18.4295 12.7331V16.7331ZM23.7746 11.388C23.7746 8.45248 21.3651 6.04297 18.4295 6.04297V10.043C19.156 10.043 19.7746 10.6616 19.7746 11.388H23.7746ZM16.4295 8.04297V8.4655H20.4295V8.04297H16.4295Z" fill="#5A5A5A" mask="url(#path-11-inside-5_1416_1580)"/>
<mask id="path-13-inside-6_1416_1580" fill="white">
<path d="M19.4507 18.3943L19.8732 18.2534L19.4507 16.9154C19.3803 16.6337 19.2042 16.4224 18.9929 16.2816C18.7817 16.1407 18.5352 16.0703 18.2887 16.0703C18.0422 16.0703 17.7958 16.1407 17.5845 16.2816C17.3732 16.4224 17.1972 16.6337 17.1267 16.9154L16.7746 17.9365H15.6831C15.331 17.9365 14.9789 18.0774 14.7676 18.3238C14.5563 18.5703 14.4507 18.852 14.4507 19.1689C14.4507 19.521 14.6267 19.9083 14.9436 20.1548L15.8239 20.7886L15.4718 21.8097C15.4366 21.9506 15.4014 22.0562 15.4014 22.1971C15.4014 22.5492 15.5422 22.8661 15.7887 23.0774C16 23.2886 16.3169 23.4295 16.6338 23.4295C16.8803 23.4295 17.1267 23.359 17.338 23.183L18.2183 22.5492L19.0986 23.183C19.3098 23.359 19.5915 23.4295 19.8028 23.4295C20.1197 23.4295 20.4366 23.2886 20.6479 23.0774C20.8591 22.8661 21.0352 22.5492 21.0352 22.1971C21.0352 22.0562 21 21.9506 20.9648 21.8097L20.6127 20.7886L21.4929 20.1548C21.8451 19.9083 22.0211 19.521 21.9859 19.1689C21.9859 18.852 21.8803 18.5703 21.669 18.3238C21.4577 18.0774 21.1408 17.9365 20.7535 17.9365H19.345V18.3943L19.7676 18.2534L19.4507 18.3943V18.8168H20.8591C20.9648 18.8168 21.0352 18.852 21.1056 18.9224C21.176 18.9928 21.2112 19.0985 21.2112 19.1689C21.2112 19.2745 21.176 19.345 21.0704 19.4506L19.9436 20.2957C19.8028 20.4013 19.7324 20.6126 19.7676 20.7886L20.1901 22.1267C20.1901 22.1619 20.2253 22.1971 20.2253 22.2323C20.2253 22.3379 20.1901 22.4083 20.1197 22.4788C20.0493 22.5492 19.9436 22.5844 19.8732 22.5844C19.8028 22.5844 19.7324 22.5844 19.662 22.514L18.5352 21.6689C18.3943 21.5633 18.1831 21.5633 18.007 21.6689L16.845 22.514C16.7746 22.5844 16.7042 22.5844 16.6338 22.5844C16.5634 22.5844 16.4577 22.5492 16.3873 22.4788C16.3169 22.4083 16.2817 22.3379 16.2817 22.2323C16.2817 22.1971 16.2817 22.1619 16.3169 22.1267L16.7394 20.7886C16.8098 20.6126 16.7394 20.4013 16.5634 20.2957L15.4366 19.4506C15.331 19.3802 15.2958 19.2745 15.2958 19.1689C15.2958 19.0633 15.331 18.9928 15.4014 18.9224C15.4718 18.852 15.5422 18.8168 15.6479 18.8168H17.0563C17.2324 18.8168 17.4084 18.6759 17.4789 18.4999L17.9014 17.1619C17.9366 17.0562 17.9718 17.021 18.0422 16.9858C18.1127 16.9506 18.1831 16.9154 18.2535 16.9154C18.3239 16.9154 18.3943 16.9506 18.4648 16.9858C18.5352 17.021 18.5704 17.0914 18.6056 17.1619L19.0281 18.4999C19.0986 18.6759 19.2394 18.8168 19.4507 18.8168V18.3943Z"/>
</mask>
<path d="M19.4507 18.3943L19.8732 18.2534L19.4507 16.9154C19.3803 16.6337 19.2042 16.4224 18.9929 16.2816C18.7817 16.1407 18.5352 16.0703 18.2887 16.0703C18.0422 16.0703 17.7958 16.1407 17.5845 16.2816C17.3732 16.4224 17.1972 16.6337 17.1267 16.9154L16.7746 17.9365H15.6831C15.331 17.9365 14.9789 18.0774 14.7676 18.3238C14.5563 18.5703 14.4507 18.852 14.4507 19.1689C14.4507 19.521 14.6267 19.9083 14.9436 20.1548L15.8239 20.7886L15.4718 21.8097C15.4366 21.9506 15.4014 22.0562 15.4014 22.1971C15.4014 22.5492 15.5422 22.8661 15.7887 23.0774C16 23.2886 16.3169 23.4295 16.6338 23.4295C16.8803 23.4295 17.1267 23.359 17.338 23.183L18.2183 22.5492L19.0986 23.183C19.3098 23.359 19.5915 23.4295 19.8028 23.4295C20.1197 23.4295 20.4366 23.2886 20.6479 23.0774C20.8591 22.8661 21.0352 22.5492 21.0352 22.1971C21.0352 22.0562 21 21.9506 20.9648 21.8097L20.6127 20.7886L21.4929 20.1548C21.8451 19.9083 22.0211 19.521 21.9859 19.1689C21.9859 18.852 21.8803 18.5703 21.669 18.3238C21.4577 18.0774 21.1408 17.9365 20.7535 17.9365H19.345V18.3943L19.7676 18.2534L19.4507 18.3943V18.8168H20.8591C20.9648 18.8168 21.0352 18.852 21.1056 18.9224C21.176 18.9928 21.2112 19.0985 21.2112 19.1689C21.2112 19.2745 21.176 19.345 21.0704 19.4506L19.9436 20.2957C19.8028 20.4013 19.7324 20.6126 19.7676 20.7886L20.1901 22.1267C20.1901 22.1619 20.2253 22.1971 20.2253 22.2323C20.2253 22.3379 20.1901 22.4083 20.1197 22.4788C20.0493 22.5492 19.9436 22.5844 19.8732 22.5844C19.8028 22.5844 19.7324 22.5844 19.662 22.514L18.5352 21.6689C18.3943 21.5633 18.1831 21.5633 18.007 21.6689L16.845 22.514C16.7746 22.5844 16.7042 22.5844 16.6338 22.5844C16.5634 22.5844 16.4577 22.5492 16.3873 22.4788C16.3169 22.4083 16.2817 22.3379 16.2817 22.2323C16.2817 22.1971 16.2817 22.1619 16.3169 22.1267L16.7394 20.7886C16.8098 20.6126 16.7394 20.4013 16.5634 20.2957L15.4366 19.4506C15.331 19.3802 15.2958 19.2745 15.2958 19.1689C15.2958 19.0633 15.331 18.9928 15.4014 18.9224C15.4718 18.852 15.5422 18.8168 15.6479 18.8168H17.0563C17.2324 18.8168 17.4084 18.6759 17.4789 18.4999L17.9014 17.1619C17.9366 17.0562 17.9718 17.021 18.0422 16.9858C18.1127 16.9506 18.1831 16.9154 18.2535 16.9154C18.3239 16.9154 18.3943 16.9506 18.4648 16.9858C18.5352 17.021 18.5704 17.0914 18.6056 17.1619L19.0281 18.4999C19.0986 18.6759 19.2394 18.8168 19.4507 18.8168V18.3943Z" fill="#5A5A5A"/>
<path d="M19.4507 18.3943L18.6384 16.5666L17.4507 17.0945V18.3943H19.4507ZM19.8732 18.2534L20.5057 20.1508L22.3732 19.5283L21.7804 17.6511L19.8732 18.2534ZM19.4507 16.9154L17.5104 17.4005L17.5252 17.4596L17.5435 17.5176L19.4507 16.9154ZM17.1267 16.9154L19.0175 17.5674L19.0459 17.485L19.067 17.4005L17.1267 16.9154ZM16.7746 17.9365V19.9365H18.2005L18.6654 18.5885L16.7746 17.9365ZM14.9436 20.1548L13.7158 21.7335L13.745 21.7563L13.775 21.7779L14.9436 20.1548ZM15.8239 20.7886L17.7147 21.4406L18.1995 20.0346L16.9925 19.1656L15.8239 20.7886ZM15.4718 21.8097L13.5811 21.1578L13.5527 21.2401L13.5315 21.3247L15.4718 21.8097ZM15.7887 23.0774L17.2029 21.6631L17.1486 21.6088L17.0903 21.5588L15.7887 23.0774ZM17.338 23.183L16.1694 21.5599L16.112 21.6013L16.0576 21.6465L17.338 23.183ZM18.2183 22.5492L19.3869 20.9261L18.2183 20.0847L17.0497 20.9261L18.2183 22.5492ZM19.0986 23.183L20.3789 21.6465L20.3246 21.6013L20.2672 21.5599L19.0986 23.183ZM20.9648 21.8097L22.9051 21.3247L22.8839 21.2401L22.8555 21.1578L20.9648 21.8097ZM20.6127 20.7886L19.444 19.1656L18.2371 20.0346L18.7219 21.4406L20.6127 20.7886ZM21.4929 20.1548L20.346 18.5164L20.3351 18.524L20.3243 18.5318L21.4929 20.1548ZM21.9859 19.1689H19.9859V19.2687L19.9958 19.3679L21.9859 19.1689ZM19.345 17.9365V15.9365H17.345V17.9365H19.345ZM19.345 18.3943H17.345V21.1691L19.9775 20.2916L19.345 18.3943ZM19.7676 18.2534L20.5799 20.081L19.1351 16.356L19.7676 18.2534ZM19.4507 18.8168H17.4507V20.8168H19.4507V18.8168ZM21.0704 19.4506L22.2704 21.0506L22.3841 20.9653L22.4846 20.8648L21.0704 19.4506ZM19.9436 20.2957L18.7436 18.6957L18.7436 18.6957L19.9436 20.2957ZM19.7676 20.7886L17.8064 21.1809L17.8277 21.2873L17.8604 21.3909L19.7676 20.7886ZM20.1901 22.1267H22.1901V21.8184L22.0973 21.5244L20.1901 22.1267ZM19.662 22.514L21.0762 21.0998L20.9757 20.9993L20.862 20.914L19.662 22.514ZM18.5352 21.6689L17.3352 23.2689L17.3352 23.2689L18.5352 21.6689ZM18.007 21.6689L16.978 19.9539L16.9022 19.9994L16.8307 20.0514L18.007 21.6689ZM16.845 22.514L15.6687 20.8965L15.5418 20.9888L15.4308 21.0998L16.845 22.514ZM16.3169 22.1267L17.7311 23.5409L18.0768 23.1951L18.224 22.7289L16.3169 22.1267ZM16.7394 20.7886L14.8825 20.0458L14.8547 20.1152L14.8323 20.1864L16.7394 20.7886ZM16.5634 20.2957L15.3634 21.8957L15.4459 21.9576L15.5344 22.0107L16.5634 20.2957ZM15.4366 19.4506L16.6366 17.8506L16.5922 17.8173L16.546 17.7865L15.4366 19.4506ZM17.4789 18.4999L19.3358 19.2427L19.3635 19.1733L19.386 19.1022L17.4789 18.4999ZM17.9014 17.1619L16.004 16.5294L15.999 16.5445L15.9942 16.5596L17.9014 17.1619ZM18.6056 17.1619L20.5128 16.5596L20.4652 16.4088L20.3945 16.2674L18.6056 17.1619ZM19.0281 18.4999L17.121 19.1022L17.1435 19.1733L17.1712 19.2427L19.0281 18.4999ZM19.4507 18.8168V20.8168H21.4507V18.8168H19.4507ZM20.0831 20.2916L20.5057 20.1508L19.2408 16.356L18.8182 16.4969L20.0831 20.2916ZM21.7804 17.6511L21.3579 16.3131L17.5435 17.5176L17.9661 18.8557L21.7804 17.6511ZM21.391 16.4303C21.1801 15.587 20.6544 14.9855 20.1023 14.6175L17.8835 17.9457C17.754 17.8593 17.5804 17.6804 17.5104 17.4005L21.391 16.4303ZM20.1023 14.6175C19.5489 14.2485 18.9133 14.0703 18.2887 14.0703V18.0703C18.1571 18.0703 18.0144 18.033 17.8835 17.9457L20.1023 14.6175ZM18.2887 14.0703C17.6641 14.0703 17.0285 14.2485 16.4751 14.6175L18.6939 17.9457C18.563 18.033 18.4204 18.0703 18.2887 18.0703V14.0703ZM16.4751 14.6175C15.923 14.9855 15.3973 15.587 15.1865 16.4303L19.067 17.4005C18.997 17.6804 18.8235 17.8593 18.6939 17.9457L16.4751 14.6175ZM15.236 16.2634L14.8839 17.2845L18.6654 18.5885L19.0175 17.5674L15.236 16.2634ZM16.7746 15.9365H15.6831V19.9365H16.7746V15.9365ZM15.6831 15.9365C14.8578 15.9365 13.9069 16.2548 13.2491 17.0223L16.2861 19.6254C16.1593 19.7733 16.0286 19.8477 15.9417 19.8839C15.8534 19.9207 15.7677 19.9365 15.6831 19.9365V15.9365ZM13.2491 17.0223C12.7354 17.6215 12.4507 18.362 12.4507 19.1689H16.4507C16.4507 19.2373 16.4384 19.3267 16.4026 19.4222C16.367 19.517 16.3206 19.5852 16.2861 19.6254L13.2491 17.0223ZM12.4507 19.1689C12.4507 20.1336 12.9081 21.1053 13.7158 21.7335L16.1715 18.5761C16.2706 18.6532 16.3355 18.7417 16.3763 18.8255C16.4156 18.9063 16.4507 19.0194 16.4507 19.1689H12.4507ZM13.775 21.7779L14.6553 22.4117L16.9925 19.1656L16.1122 18.5318L13.775 21.7779ZM13.9332 20.1366L13.5811 21.1578L17.3626 22.4617L17.7147 21.4406L13.9332 20.1366ZM13.5315 21.3247C13.5251 21.3502 13.523 21.3577 13.5097 21.4091C13.4995 21.4483 13.4834 21.5116 13.4678 21.5844C13.4338 21.7429 13.4014 21.9494 13.4014 22.1971H17.4014C17.4014 22.2468 17.3982 22.2939 17.393 22.3366C17.388 22.3781 17.382 22.4085 17.379 22.4225C17.3766 22.4336 17.3759 22.4353 17.3822 22.4106C17.3837 22.405 17.3853 22.3988 17.3874 22.391C17.3892 22.3838 17.3918 22.3742 17.3942 22.3649C17.3991 22.3458 17.4054 22.3216 17.4121 22.2948L13.5315 21.3247ZM13.4014 22.1971C13.4014 23.0865 13.7632 23.9754 14.4871 24.5959L17.0903 21.5588C17.3213 21.7568 17.4014 22.0119 17.4014 22.1971H13.4014ZM14.3745 24.4916C14.9433 25.0603 15.7621 25.4295 16.6338 25.4295V21.4295C16.7677 21.4295 16.874 21.4581 16.9527 21.4915C17.0305 21.5245 17.1168 21.5771 17.2029 21.6631L14.3745 24.4916ZM16.6338 25.4295C17.2729 25.4295 17.9938 25.2399 18.6184 24.7194L16.0576 21.6465C16.1494 21.5701 16.2561 21.5117 16.3666 21.4749C16.4739 21.4391 16.5668 21.4295 16.6338 21.4295V25.4295ZM18.5066 24.8061L19.3869 24.1723L17.0497 20.9261L16.1694 21.5599L18.5066 24.8061ZM17.0497 24.1723L17.93 24.8061L20.2672 21.5599L19.3869 20.9261L17.0497 24.1723ZM17.8182 24.7194C18.4641 25.2577 19.232 25.4295 19.8028 25.4295V21.4295C19.9066 21.4295 19.9898 21.4448 20.0627 21.4682C20.1372 21.4921 20.253 21.5416 20.3789 21.6465L17.8182 24.7194ZM19.8028 25.4295C20.6745 25.4295 21.4933 25.0603 22.0621 24.4916L19.2337 21.6631C19.3197 21.5771 19.4061 21.5245 19.4838 21.4915C19.5626 21.4581 19.6688 21.4295 19.8028 21.4295V25.4295ZM22.0621 24.4916C22.5468 24.0069 23.0352 23.2079 23.0352 22.1971H19.0352C19.0352 22.0375 19.075 21.9152 19.1111 21.8384C19.1459 21.7646 19.1877 21.7091 19.2337 21.6631L22.0621 24.4916ZM23.0352 22.1971C23.0352 21.9494 23.0028 21.7429 22.9688 21.5844C22.9532 21.5116 22.937 21.4483 22.9269 21.4091C22.9136 21.3577 22.9114 21.3502 22.9051 21.3247L19.0245 22.2948C19.0312 22.3216 19.0374 22.3458 19.0424 22.3649C19.0448 22.3742 19.0473 22.3838 19.0492 22.391C19.0513 22.3988 19.0529 22.405 19.0543 22.4106C19.0607 22.4353 19.06 22.4336 19.0576 22.4225C19.0546 22.4085 19.0486 22.3781 19.0435 22.3366C19.0384 22.294 19.0352 22.2468 19.0352 22.1971H23.0352ZM22.8555 21.1578L22.5034 20.1366L18.7219 21.4406L19.074 22.4617L22.8555 21.1578ZM21.7813 22.4117L22.6615 21.7779L20.3243 18.5318L19.444 19.1656L21.7813 22.4117ZM22.6399 21.7933C23.525 21.1737 24.0901 20.1117 23.976 18.9699L19.9958 19.3679C19.9521 18.9304 20.1651 18.643 20.346 18.5164L22.6399 21.7933ZM23.9859 19.1689C23.9859 18.362 23.7012 17.6215 23.1875 17.0223L20.1505 19.6254C20.116 19.5852 20.0696 19.517 20.034 19.4222C19.9982 19.3267 19.9859 19.2373 19.9859 19.1689H23.9859ZM23.1875 17.0223C22.5477 16.2758 21.6456 15.9365 20.7535 15.9365V19.9365C20.7039 19.9365 20.6085 19.9271 20.4894 19.876C20.3677 19.8239 20.2481 19.7393 20.1505 19.6254L23.1875 17.0223ZM20.7535 15.9365H19.345V19.9365H20.7535V15.9365ZM17.345 17.9365V18.3943H21.345V17.9365H17.345ZM19.9775 20.2916L20.4 20.1508L19.1351 16.356L18.7126 16.4969L19.9775 20.2916ZM18.9553 16.4258L18.6384 16.5666L20.263 20.2219L20.5799 20.081L18.9553 16.4258ZM17.4507 18.3943V18.8168H21.4507V18.3943H17.4507ZM19.4507 20.8168H20.8591V16.8168H19.4507V20.8168ZM20.8591 20.8168C20.6786 20.8168 20.4387 20.7843 20.1833 20.6708C19.9366 20.5612 19.7742 20.4195 19.6914 20.3366L22.5198 17.5082C22.3666 17.3549 22.1338 17.1604 21.8079 17.0156C21.4732 16.8669 21.1453 16.8168 20.8591 16.8168V20.8168ZM19.6914 20.3366C19.4991 20.1443 19.3901 19.9439 19.3279 19.7885C19.2692 19.6417 19.2112 19.4329 19.2112 19.1689H23.2112C23.2112 18.6037 22.9898 17.9782 22.5198 17.5082L19.6914 20.3366ZM19.2112 19.1689C19.2112 18.9705 19.2505 18.6976 19.3916 18.4153C19.5094 18.1797 19.6463 18.0463 19.6562 18.0364L22.4846 20.8648C22.6002 20.7492 22.8075 20.5278 22.9693 20.2042C23.1544 19.8339 23.2112 19.4729 23.2112 19.1689H19.2112ZM19.8704 17.8506L18.7436 18.6957L21.1436 21.8957L22.2704 21.0506L19.8704 17.8506ZM18.7436 18.6957C17.9169 19.3157 17.638 20.3389 17.8064 21.1809L21.7287 20.3964C21.7885 20.6953 21.7522 20.9625 21.6773 21.1764C21.6033 21.388 21.4485 21.667 21.1436 21.8957L18.7436 18.6957ZM17.8604 21.3909L18.283 22.7289L22.0973 21.5244L21.6748 20.1864L17.8604 21.3909ZM18.1901 22.1267C18.1901 22.2978 18.2115 22.4469 18.2378 22.5672C18.2639 22.6864 18.2964 22.7844 18.323 22.8553C18.3494 22.9259 18.3748 22.9819 18.3903 23.0151C18.3984 23.0324 18.4054 23.0467 18.41 23.0561C18.4143 23.0648 18.4182 23.0726 18.4189 23.0739C18.4204 23.077 18.4187 23.0736 18.4166 23.0693C18.4141 23.0643 18.4093 23.0544 18.4033 23.0415C18.3918 23.0171 18.3703 22.9699 18.3472 22.9081C18.3239 22.846 18.2942 22.7568 18.27 22.6465C18.2456 22.535 18.2253 22.3947 18.2253 22.2323H22.2253C22.2253 22.0611 22.2039 21.912 22.1776 21.7917C22.1516 21.6725 22.1191 21.5745 22.0925 21.5036C22.066 21.433 22.0407 21.377 22.0251 21.3438C22.017 21.3265 22.01 21.3122 22.0054 21.3029C22.0011 21.2941 21.9972 21.2863 21.9966 21.285C21.995 21.2819 21.9967 21.2853 21.9989 21.2897C22.0013 21.2946 22.0061 21.3045 22.0122 21.3174C22.0236 21.3418 22.0451 21.389 22.0683 21.4508C22.0916 21.5129 22.1213 21.6021 22.1454 21.7125C22.1698 21.824 22.1901 21.9643 22.1901 22.1267H18.1901ZM18.2253 22.2323C18.2253 22.0517 18.2578 21.8119 18.3713 21.5565C18.4809 21.3097 18.6226 21.1474 18.7055 21.0645L21.5339 23.893C21.6872 23.7397 21.8817 23.5069 22.0265 23.181C22.1753 22.8464 22.2253 22.5185 22.2253 22.2323H18.2253ZM18.7055 21.0645C18.8978 20.8722 19.0982 20.7632 19.2537 20.701C19.4005 20.6423 19.6093 20.5844 19.8732 20.5844V24.5844C20.4384 24.5844 21.0639 24.363 21.5339 23.893L18.7055 21.0645ZM19.8732 20.5844C19.8009 20.5844 20.0109 20.5749 20.2527 20.6353C20.5616 20.7125 20.8496 20.8732 21.0762 21.0998L18.2477 23.9282C18.94 24.6204 19.7731 24.5844 19.8732 24.5844V20.5844ZM20.862 20.914L19.7352 20.0689L17.3352 23.2689L18.462 24.114L20.862 20.914ZM19.7352 20.0689C18.8164 19.3798 17.704 19.5184 16.978 19.9539L19.036 23.3839C18.6622 23.6082 17.9722 23.7467 17.3352 23.2689L19.7352 20.0689ZM16.8307 20.0514L15.6687 20.8965L18.0214 24.1314L19.1834 23.2864L16.8307 20.0514ZM15.4308 21.0998C15.6574 20.8732 15.9454 20.7125 16.2543 20.6353C16.4961 20.5749 16.7061 20.5844 16.6338 20.5844V24.5844C16.7339 24.5844 17.567 24.6204 18.2593 23.9282L15.4308 21.0998ZM16.6338 20.5844C16.8977 20.5844 17.1065 20.6423 17.2533 20.701C17.4088 20.7632 17.6092 20.8722 17.8015 21.0645L14.9731 23.893C15.4431 24.363 16.0686 24.5844 16.6338 24.5844V20.5844ZM17.8015 21.0645C17.8844 21.1474 18.0261 21.3097 18.1357 21.5565C18.2492 21.8119 18.2817 22.0517 18.2817 22.2323H14.2817C14.2817 22.5185 14.3317 22.8464 14.4805 23.181C14.6253 23.5069 14.8198 23.7397 14.9731 23.893L17.8015 21.0645ZM18.2817 22.2323C18.2817 22.1775 18.2912 22.4052 18.2264 22.6645C18.1447 22.991 17.9753 23.2967 17.7311 23.5409L14.9027 20.7124C14.2456 21.3695 14.2817 22.1674 14.2817 22.2323H18.2817ZM18.224 22.7289L18.6466 21.3909L14.8323 20.1864L14.4097 21.5244L18.224 22.7289ZM18.5964 21.5314C19.0465 20.406 18.5747 19.1701 17.5924 18.5807L15.5344 22.0107C14.9042 21.6325 14.5731 20.8191 14.8825 20.0458L18.5964 21.5314ZM17.7634 18.6957L16.6366 17.8506L14.2366 21.0506L15.3634 21.8957L17.7634 18.6957ZM16.546 17.7865C16.8093 17.962 17.0177 18.2103 17.1473 18.4953C17.2691 18.7634 17.2958 19.0057 17.2958 19.1689H13.2958C13.2958 19.7356 13.5121 20.5713 14.3272 21.1147L16.546 17.7865ZM17.2958 19.1689C17.2958 19.3495 17.2633 19.5893 17.1498 19.8448C17.0401 20.0915 16.8984 20.2538 16.8156 20.3366L13.9872 17.5082C13.8339 17.6615 13.6394 17.8942 13.4945 18.2202C13.3458 18.5548 13.2958 18.8827 13.2958 19.1689H17.2958ZM16.8156 20.3366C16.7328 20.4195 16.5704 20.5612 16.3237 20.6708C16.0683 20.7843 15.8284 20.8168 15.6479 20.8168V16.8168C15.3617 16.8168 15.0338 16.8669 14.6991 17.0156C14.3732 17.1604 14.1404 17.3549 13.9872 17.5082L16.8156 20.3366ZM15.6479 20.8168H17.0563V16.8168H15.6479V20.8168ZM17.0563 20.8168C18.228 20.8168 19.0336 19.9983 19.3358 19.2427L15.6219 17.7571C15.7264 17.4958 15.8936 17.2876 16.0923 17.1356C16.287 16.9867 16.6149 16.8168 17.0563 16.8168V20.8168ZM19.386 19.1022L19.8086 17.7641L15.9942 16.5596L15.5717 17.8976L19.386 19.1022ZM19.7988 17.7943C19.7803 17.8497 19.701 18.0807 19.495 18.3278C19.2693 18.5987 19.0244 18.7308 18.9367 18.7747L17.1478 15.197C16.9897 15.276 16.692 15.4433 16.4222 15.7671C16.1722 16.067 16.0577 16.3683 16.004 16.5294L19.7988 17.7943ZM18.9367 18.7747C18.9909 18.7476 18.9307 18.7798 18.8501 18.81C18.7611 18.8434 18.5459 18.9154 18.2535 18.9154V14.9154C17.8907 14.9154 17.6051 15.0049 17.4456 15.0647C17.2946 15.1214 17.164 15.1888 17.1478 15.197L18.9367 18.7747ZM18.2535 18.9154C17.9611 18.9154 17.7459 18.8434 17.6569 18.81C17.5763 18.7798 17.5161 18.7476 17.5703 18.7747L19.3592 15.197C19.343 15.1888 19.2124 15.1214 19.0614 15.0647C18.9019 15.0049 18.6163 14.9154 18.2535 14.9154V18.9154ZM17.5703 18.7747C17.2304 18.6047 17.0257 18.3698 16.9209 18.2231C16.8356 18.1037 16.7852 17.9932 16.8168 18.0563L20.3945 16.2674C20.3908 16.2601 20.3052 16.0792 20.1759 15.8981C20.0271 15.6899 19.7696 15.4022 19.3592 15.197L17.5703 18.7747ZM16.6984 17.7641L17.121 19.1022L20.9353 17.8976L20.5128 16.5596L16.6984 17.7641ZM17.1712 19.2427C17.4345 19.901 18.1593 20.8168 19.4507 20.8168V16.8168C19.8229 16.8168 20.1764 16.9516 20.4478 17.1721C20.6957 17.3736 20.8226 17.6008 20.8851 17.7571L17.1712 19.2427ZM21.4507 18.8168V18.3943H17.4507V18.8168H21.4507Z" fill="#5A5A5A" mask="url(#path-13-inside-6_1416_1580)"/>
<mask id="path-15-inside-7_1416_1580" fill="white">
<path d="M8.42964 17.4091L8.04231 17.6204L10.9296 22.6556L11.0705 22.5499H10.8944L10.9296 22.6556L11.0705 22.5499H10.8944H11.0705L10.9296 22.4443C10.8944 22.4795 10.8944 22.5147 10.8944 22.5499H11.0705L10.9296 22.4443L11.0705 22.5499V22.3739C11.0353 22.3739 10.9648 22.4091 10.9296 22.4443L11.0705 22.5499V22.3739H5.33104V22.5499L5.47189 22.4443C5.43668 22.4091 5.40147 22.3739 5.33104 22.3739V22.5499L5.47189 22.4443L5.33104 22.5499H5.5071C5.5071 22.5147 5.47189 22.4443 5.47189 22.4443L5.33104 22.5499H5.5071H5.33104L5.47189 22.6556L5.5071 22.5499H5.33104L5.47189 22.6556L8.35921 17.6204L8.21837 17.5499L8.28879 17.6908L8.35921 17.6204L8.21837 17.5499L8.28879 17.6908L8.21837 17.5499V17.726L8.28879 17.6908L8.21837 17.5499V17.726V17.5499L8.14795 17.6908L8.21837 17.726V17.5499L8.14795 17.6908L8.21837 17.5499L8.07752 17.6556L8.14795 17.726L8.21837 17.5851L8.07752 17.6908L8.42964 17.4091L8.81696 17.1978C8.74654 17.0922 8.6409 16.9865 8.53527 16.9513C8.42964 16.8809 8.324 16.8457 8.18316 16.8457C8.07752 16.8457 7.93668 16.8809 7.83104 16.9513C7.72541 17.0218 7.61978 17.0922 7.54935 17.1978L4.66203 22.233C4.59161 22.3387 4.5564 22.4795 4.5564 22.5851C4.5564 22.7612 4.62682 22.9373 4.76766 23.0781C4.8733 23.2189 5.08457 23.2894 5.26062 23.2894H11.0705C11.2817 23.2894 11.4578 23.2189 11.5634 23.0781C11.7043 22.9373 11.7747 22.7612 11.7747 22.5851C11.7747 22.4795 11.7395 22.3387 11.6691 22.233L8.81696 17.1978L8.42964 17.4091Z"/>
</mask>
<path d="M8.42964 17.4091L8.04231 17.6204L10.9296 22.6556L11.0705 22.5499H10.8944L10.9296 22.6556L11.0705 22.5499H10.8944H11.0705L10.9296 22.4443C10.8944 22.4795 10.8944 22.5147 10.8944 22.5499H11.0705L10.9296 22.4443L11.0705 22.5499V22.3739C11.0353 22.3739 10.9648 22.4091 10.9296 22.4443L11.0705 22.5499V22.3739H5.33104V22.5499L5.47189 22.4443C5.43668 22.4091 5.40147 22.3739 5.33104 22.3739V22.5499L5.47189 22.4443L5.33104 22.5499H5.5071C5.5071 22.5147 5.47189 22.4443 5.47189 22.4443L5.33104 22.5499H5.5071H5.33104L5.47189 22.6556L5.5071 22.5499H5.33104L5.47189 22.6556L8.35921 17.6204L8.21837 17.5499L8.28879 17.6908L8.35921 17.6204L8.21837 17.5499L8.28879 17.6908L8.21837 17.5499V17.726L8.28879 17.6908L8.21837 17.5499V17.726V17.5499L8.14795 17.6908L8.21837 17.726V17.5499L8.14795 17.6908L8.21837 17.5499L8.07752 17.6556L8.14795 17.726L8.21837 17.5851L8.07752 17.6908L8.42964 17.4091L8.81696 17.1978C8.74654 17.0922 8.6409 16.9865 8.53527 16.9513C8.42964 16.8809 8.324 16.8457 8.18316 16.8457C8.07752 16.8457 7.93668 16.8809 7.83104 16.9513C7.72541 17.0218 7.61978 17.0922 7.54935 17.1978L4.66203 22.233C4.59161 22.3387 4.5564 22.4795 4.5564 22.5851C4.5564 22.7612 4.62682 22.9373 4.76766 23.0781C4.8733 23.2189 5.08457 23.2894 5.26062 23.2894H11.0705C11.2817 23.2894 11.4578 23.2189 11.5634 23.0781C11.7043 22.9373 11.7747 22.7612 11.7747 22.5851C11.7747 22.4795 11.7395 22.3387 11.6691 22.233L8.81696 17.1978L8.42964 17.4091Z" fill="#5A5A5A"/>
<path d="M8.42964 17.4091L7.47193 15.6533L7.47193 15.6533L8.42964 17.4091ZM8.04231 17.6204L7.08461 15.8646L5.29101 16.8429L6.30732 18.6152L8.04231 17.6204ZM10.9296 22.6556L9.19465 23.6505L10.3199 25.6128L12.1296 24.2556L10.9296 22.6556ZM11.0705 22.5499L12.2705 24.1499L17.0705 20.5499H11.0705V22.5499ZM10.8944 22.5499V20.5499H8.11957L8.99706 23.1824L10.8944 22.5499ZM10.9296 22.6556L9.03227 23.288L9.90976 25.9205L12.1296 24.2556L10.9296 22.6556ZM11.0705 22.5499L12.2705 24.1499L17.0705 20.5499H11.0705V22.5499ZM11.0705 22.5499V24.5499H17.0705L12.2705 20.9499L11.0705 22.5499ZM10.9296 22.4443L12.1296 20.8443L10.742 19.8035L9.51542 21.0301L10.9296 22.4443ZM10.8944 22.5499H8.89442V24.5499H10.8944V22.5499ZM11.0705 22.5499V24.5499H17.0705L12.2705 20.9499L11.0705 22.5499ZM11.0705 22.5499L9.87048 24.1499L13.0705 26.5499V22.5499H11.0705ZM11.0705 22.3739H13.0705V20.3739H11.0705V22.3739ZM10.9296 22.4443L9.51542 21.0301L7.88482 22.6607L9.72964 24.0443L10.9296 22.4443ZM11.0705 22.5499L9.87048 24.1499L13.0705 26.5499V22.5499H11.0705ZM11.0705 22.3739H13.0705V20.3739H11.0705V22.3739ZM5.33104 22.3739V20.3739H3.33104V22.3739H5.33104ZM5.33104 22.5499H3.33104V26.5499L6.53104 24.1499L5.33104 22.5499ZM5.47189 22.4443L6.67189 24.0443L8.51671 22.6607L6.8861 21.0301L5.47189 22.4443ZM5.33104 22.3739V20.3739H3.33104V22.3739H5.33104ZM5.33104 22.5499H3.33104V26.5499L6.53104 24.1499L5.33104 22.5499ZM5.33104 22.5499L4.13105 20.9499L-0.668964 24.5499H5.33104V22.5499ZM5.5071 22.5499V24.5499H7.5071V22.5499H5.5071ZM5.47189 22.4443L7.26074 21.5499L6.18902 19.4064L4.27189 20.8443L5.47189 22.4443ZM5.33104 22.5499L4.13105 20.9499L-0.668964 24.5499H5.33104V22.5499ZM5.33104 22.5499V20.5499H-0.668964L4.13105 24.1499L5.33104 22.5499ZM5.47189 22.6556L4.27189 24.2556L6.49177 25.9205L7.36925 23.288L5.47189 22.6556ZM5.5071 22.5499L7.40447 23.1824L8.28196 20.5499H5.5071V22.5499ZM5.33104 22.5499V20.5499H-0.668964L4.13105 24.1499L5.33104 22.5499ZM5.47189 22.6556L4.27189 24.2556L6.0816 25.6128L7.20688 23.6505L5.47189 22.6556ZM8.35921 17.6204L10.0942 18.6152L11.1475 16.7784L9.25364 15.8315L8.35921 17.6204ZM8.21837 17.5499L9.1128 15.7611L3.74622 13.0778L6.42951 18.4444L8.21837 17.5499ZM8.28879 17.6908L6.49994 18.5852L7.74089 21.0671L9.70301 19.105L8.28879 17.6908ZM8.35921 17.6204L9.77343 19.0346L11.7355 17.0724L9.25364 15.8315L8.35921 17.6204ZM8.21837 17.5499L9.1128 15.7611L3.74622 13.0778L6.42951 18.4444L8.21837 17.5499ZM8.21837 17.5499L10.0072 16.6555L6.21837 17.5499H8.21837ZM8.21837 17.726H6.21837V20.962L9.11278 19.5148L8.21837 17.726ZM8.28879 17.6908L9.1832 19.4796L10.9721 18.5852L10.0776 16.7963L8.28879 17.6908ZM8.21837 17.5499L10.0072 16.6555L6.21837 17.5499H8.21837ZM8.21837 17.5499H10.2184L6.42951 16.6555L8.21837 17.5499ZM8.14795 17.6908L6.35909 16.7963L5.46466 18.5852L7.25353 19.4796L8.14795 17.6908ZM8.21837 17.726L7.32395 19.5148L10.2184 20.962V17.726H8.21837ZM8.21837 17.5499H10.2184L6.42951 16.6555L8.21837 17.5499ZM8.21837 17.5499L10.0072 18.4444L7.01837 15.9499L8.21837 17.5499ZM8.07752 17.6556L6.87752 16.0556L5.03272 17.4392L6.6633 19.0698L8.07752 17.6556ZM8.14795 17.726L6.73373 19.1402L8.69584 21.1023L9.9368 18.6204L8.14795 17.726ZM8.21837 17.5851L10.0072 18.4796L7.01836 15.9851L8.21837 17.5851ZM8.07752 17.6908L6.82813 16.129L9.27753 19.2908L8.07752 17.6908ZM8.81696 17.1978L9.77466 18.9536L11.6934 17.907L10.4811 16.0884L8.81696 17.1978ZM8.53527 16.9513L7.42587 18.6154L7.64872 18.764L7.90281 18.8487L8.53527 16.9513ZM7.54935 17.1978L5.88525 16.0884L5.84788 16.1445L5.81436 16.2029L7.54935 17.1978ZM4.66203 22.233L6.32613 23.3424L6.3635 23.2864L6.39702 23.2279L4.66203 22.233ZM4.76766 23.0781L6.36766 21.8781L6.28238 21.7644L6.18188 21.6639L4.76766 23.0781ZM11.5634 23.0781L10.1492 21.6639L10.0487 21.7644L9.96344 21.8781L11.5634 23.0781ZM11.6691 22.233L9.92885 23.2187L9.96467 23.282L10.005 23.3424L11.6691 22.233ZM8.81696 17.1978L10.5572 16.2121L9.58713 14.4995L7.85926 15.442L8.81696 17.1978ZM7.47193 15.6533L7.08461 15.8646L9.00002 19.3761L9.38734 19.1649L7.47193 15.6533ZM6.30732 18.6152L9.19465 23.6505L12.6646 21.6607L9.7773 16.6255L6.30732 18.6152ZM12.1296 24.2556L12.2705 24.1499L9.87048 20.9499L9.72964 21.0556L12.1296 24.2556ZM11.0705 20.5499H10.8944V24.5499H11.0705V20.5499ZM8.99706 23.1824L9.03227 23.288L12.827 22.0231L12.7918 21.9175L8.99706 23.1824ZM12.1296 24.2556L12.2705 24.1499L9.87048 20.9499L9.72964 21.0556L12.1296 24.2556ZM11.0705 20.5499H10.8944V24.5499H11.0705V20.5499ZM10.8944 24.5499H11.0705V20.5499H10.8944V24.5499ZM12.2705 20.9499L12.1296 20.8443L9.72964 24.0443L9.87048 24.1499L12.2705 20.9499ZM9.51542 21.0301C8.85841 21.6871 8.89442 22.485 8.89442 22.5499H12.8944C12.8944 22.4952 12.9039 22.7229 12.8391 22.9822C12.7575 23.3087 12.588 23.6144 12.3438 23.8585L9.51542 21.0301ZM10.8944 24.5499H11.0705V20.5499H10.8944V24.5499ZM12.2705 20.9499L12.1296 20.8443L9.72964 24.0443L9.87048 24.1499L12.2705 20.9499ZM9.72964 24.0443L9.87048 24.1499L12.2705 20.9499L12.1296 20.8443L9.72964 24.0443ZM13.0705 22.5499V22.3739H9.07048V22.5499H13.0705ZM11.0705 20.3739C10.5674 20.3739 10.193 20.5634 10.1056 20.607C9.95509 20.6823 9.73088 20.8146 9.51542 21.0301L12.3438 23.8585C12.1636 24.0388 11.9922 24.1359 11.8945 24.1847C11.8335 24.2152 11.7498 24.2524 11.645 24.2858C11.5642 24.3115 11.3532 24.3739 11.0705 24.3739V20.3739ZM9.72964 24.0443L9.87048 24.1499L12.2705 20.9499L12.1296 20.8443L9.72964 24.0443ZM13.0705 22.5499V22.3739H9.07048V22.5499H13.0705ZM11.0705 20.3739H5.33104V24.3739H11.0705V20.3739ZM3.33104 22.3739V22.5499H7.33104V22.3739H3.33104ZM6.53104 24.1499L6.67189 24.0443L4.27189 20.8443L4.13105 20.9499L6.53104 24.1499ZM6.8861 21.0301C6.82989 20.9739 6.28084 20.3739 5.33104 20.3739V24.3739C4.99606 24.3739 4.66782 24.2802 4.38567 24.1109C4.1629 23.9772 4.0138 23.8146 4.05768 23.8585L6.8861 21.0301ZM3.33104 22.3739V22.5499H7.33104V22.3739H3.33104ZM6.53104 24.1499L6.67189 24.0443L4.27189 20.8443L4.13105 20.9499L6.53104 24.1499ZM4.27189 20.8443L4.13105 20.9499L6.53104 24.1499L6.67189 24.0443L4.27189 20.8443ZM5.33104 24.5499H5.5071V20.5499H5.33104V24.5499ZM7.5071 22.5499C7.5071 22.2616 7.44452 22.0387 7.42465 21.9691C7.39607 21.8691 7.3654 21.7885 7.34645 21.7411C7.32581 21.6895 7.30672 21.6468 7.29331 21.6177C7.28626 21.6025 7.27989 21.589 7.2745 21.5779C7.27179 21.5723 7.26927 21.5671 7.26698 21.5624C7.26583 21.5601 7.26474 21.5579 7.2637 21.5558C7.26318 21.5548 7.26267 21.5537 7.26218 21.5527C7.26193 21.5522 7.26169 21.5518 7.26145 21.5513C7.26133 21.551 7.26121 21.5508 7.26109 21.5506C7.26103 21.5504 7.26095 21.5503 7.26092 21.5502C7.26083 21.55 7.26074 21.5499 5.47189 22.4443C3.68304 23.3387 3.68295 23.3386 3.68286 23.3384C3.68283 23.3383 3.68275 23.3381 3.68269 23.338C3.68257 23.3378 3.68246 23.3376 3.68234 23.3373C3.68211 23.3369 3.68188 23.3364 3.68165 23.3359C3.68119 23.335 3.68073 23.3341 3.68028 23.3332C3.67937 23.3314 3.67848 23.3295 3.67759 23.3277C3.67581 23.3241 3.67405 23.3205 3.6723 23.3169C3.66884 23.3097 3.66522 23.3021 3.66147 23.294C3.65467 23.2792 3.64437 23.2563 3.63254 23.2267C3.62239 23.2013 3.60053 23.1449 3.57855 23.068C3.56528 23.0216 3.5071 22.8206 3.5071 22.5499H7.5071ZM4.27189 20.8443L4.13105 20.9499L6.53104 24.1499L6.67189 24.0443L4.27189 20.8443ZM5.33104 24.5499H5.5071V20.5499H5.33104V24.5499ZM5.5071 20.5499H5.33104V24.5499H5.5071V20.5499ZM4.13105 24.1499L4.27189 24.2556L6.67189 21.0556L6.53104 20.9499L4.13105 24.1499ZM7.36925 23.288L7.40447 23.1824L3.60974 21.9175L3.57452 22.0231L7.36925 23.288ZM5.5071 20.5499H5.33104V24.5499H5.5071V20.5499ZM4.13105 24.1499L4.27189 24.2556L6.67189 21.0556L6.53104 20.9499L4.13105 24.1499ZM7.20688 23.6505L10.0942 18.6152L6.62422 16.6255L3.7369 21.6607L7.20688 23.6505ZM9.25364 15.8315L9.1128 15.7611L7.32394 19.3388L7.46478 19.4092L9.25364 15.8315ZM6.42951 18.4444L6.49994 18.5852L10.0776 16.7963L10.0072 16.6555L6.42951 18.4444ZM9.70301 19.105L9.77343 19.0346L6.94499 16.2061L6.87457 16.2766L9.70301 19.105ZM9.25364 15.8315L9.1128 15.7611L7.32394 19.3388L7.46478 19.4092L9.25364 15.8315ZM6.42951 18.4444L6.49994 18.5852L10.0776 16.7963L10.0072 16.6555L6.42951 18.4444ZM10.0776 16.7963L10.0072 16.6555L6.42951 18.4444L6.49994 18.5852L10.0776 16.7963ZM6.21837 17.5499V17.726H10.2184V17.5499H6.21837ZM9.11278 19.5148L9.1832 19.4796L7.39438 15.9019L7.32395 15.9371L9.11278 19.5148ZM10.0776 16.7963L10.0072 16.6555L6.42951 18.4444L6.49994 18.5852L10.0776 16.7963ZM6.21837 17.5499V17.726H10.2184V17.5499H6.21837ZM10.2184 17.726V17.5499H6.21837V17.726H10.2184ZM6.42951 16.6555L6.35909 16.7963L9.9368 18.5852L10.0072 18.4444L6.42951 16.6555ZM7.25353 19.4796L7.32395 19.5148L9.11278 15.9371L9.04236 15.9019L7.25353 19.4796ZM10.2184 17.726V17.5499H6.21837V17.726H10.2184ZM6.42951 16.6555L6.35909 16.7963L9.9368 18.5852L10.0072 18.4444L6.42951 16.6555ZM9.9368 18.5852L10.0072 18.4444L6.42951 16.6555L6.35909 16.7963L9.9368 18.5852ZM7.01837 15.9499L6.87752 16.0556L9.27752 19.2556L9.41837 19.1499L7.01837 15.9499ZM6.6633 19.0698L6.73373 19.1402L9.56217 16.3118L9.49174 16.2414L6.6633 19.0698ZM9.9368 18.6204L10.0072 18.4796L6.42951 16.6907L6.35909 16.8316L9.9368 18.6204ZM7.01836 15.9851L6.87751 16.0908L9.27753 19.2908L9.41838 19.1851L7.01836 15.9851ZM9.32692 19.2525L9.67903 18.9708L7.18024 15.8473L6.82813 16.129L9.32692 19.2525ZM9.38734 19.1649L9.77466 18.9536L7.85926 15.442L7.47193 15.6533L9.38734 19.1649ZM10.4811 16.0884C10.3142 15.8381 9.8953 15.2965 9.16773 15.054L7.90281 18.8487C7.60147 18.7483 7.41727 18.5947 7.34397 18.528C7.25738 18.4493 7.19721 18.3737 7.15286 18.3072L10.4811 16.0884ZM9.64467 15.2872C9.221 15.0048 8.73129 14.8457 8.18316 14.8457V18.8457C8.08153 18.8457 7.94204 18.8322 7.78425 18.7837C7.62657 18.7352 7.50542 18.6685 7.42587 18.6154L9.64467 15.2872ZM8.18316 14.8457C7.72756 14.8457 7.19127 14.9742 6.72164 15.2872L8.94044 18.6154C8.78921 18.7163 8.65326 18.7675 8.55654 18.7952C8.46059 18.8226 8.33692 18.8457 8.18316 18.8457V14.8457ZM6.72164 15.2872C6.6776 15.3166 6.21481 15.5941 5.88525 16.0884L9.21345 18.3072C9.10576 18.4688 8.99484 18.5673 8.94347 18.6093C8.93016 18.6202 8.91955 18.6283 8.91266 18.6335C8.90583 18.6386 8.90175 18.6414 8.90163 18.6415C8.90162 18.6415 8.90412 18.6398 8.91089 18.6352C8.91821 18.6303 8.9264 18.6248 8.94044 18.6154L6.72164 15.2872ZM5.81436 16.2029L2.92704 21.2381L6.39702 23.2279L9.28435 18.1927L5.81436 16.2029ZM2.99793 21.1236C2.68485 21.5933 2.5564 22.1295 2.5564 22.5851H6.5564C6.5564 22.7389 6.53327 22.8626 6.50585 22.9585C6.47822 23.0552 6.42696 23.1912 6.32613 23.3424L2.99793 21.1236ZM2.5564 22.5851C2.5564 23.3083 2.8495 23.9884 3.35345 24.4923L6.18188 21.6639C6.40414 21.8861 6.5564 22.2141 6.5564 22.5851H2.5564ZM3.16766 24.2781C3.78721 25.1042 4.72325 25.2894 5.26062 25.2894V21.2894C5.42148 21.2894 5.5772 21.3183 5.73051 21.3796C5.87513 21.4374 6.13977 21.5742 6.36766 21.8781L3.16766 24.2781ZM5.26062 25.2894H11.0705V21.2894H5.26062V25.2894ZM11.0705 25.2894C11.7046 25.2894 12.5713 25.0677 13.1634 24.2781L9.96344 21.8781C10.3443 21.3702 10.8589 21.2894 11.0705 21.2894V25.2894ZM12.9777 24.4923C13.4816 23.9884 13.7747 23.3083 13.7747 22.5851H9.77471C9.77471 22.2141 9.92697 21.8861 10.1492 21.6639L12.9777 24.4923ZM13.7747 22.5851C13.7747 22.1295 13.6463 21.5932 13.3332 21.1236L10.005 23.3424C9.90415 23.1912 9.85288 23.0552 9.82525 22.9585C9.79783 22.8626 9.77471 22.7389 9.77471 22.5851H13.7747ZM13.4093 21.2473L10.5572 16.2121L7.07674 18.1835L9.92885 23.2187L13.4093 21.2473ZM7.85926 15.442L7.47193 15.6533L9.38734 19.1649L9.77466 18.9536L7.85926 15.442Z" fill="#5A5A5A" mask="url(#path-15-inside-7_1416_1580)"/>
<mask id="path-17-inside-8_1416_1580" fill="white">
<path d="M11.6689 11.5287L11.2816 11.3174L9.83791 13.8174L9.97876 13.923V13.747C9.90834 13.747 9.87313 13.7822 9.83791 13.8174L9.97876 13.923V13.747H7.09144V13.923L7.23228 13.8174C7.19707 13.747 7.12665 13.747 7.09144 13.747V13.923L7.23228 13.8174L5.78862 11.3174L5.64777 11.3878H5.82383L5.78862 11.3174L5.64777 11.3878H5.82383H5.64777L5.78862 11.4935L5.82383 11.3878H5.64777L5.78862 11.4935L7.23228 8.99345L7.09144 8.88782V9.06388C7.16186 9.06388 7.19707 9.02866 7.23228 8.99345L7.09144 8.88782V9.06388H9.97876V8.88782L9.83791 8.99345C9.87313 9.06388 9.94355 9.06388 9.97876 9.06388V8.88782L9.83791 8.99345L11.2816 11.4935L11.4224 11.423H11.2464L11.2816 11.4935L11.4224 11.423H11.2464H11.4224L11.2816 11.3526L11.2464 11.423H11.4224L11.2816 11.3526L11.6689 11.5287L12.0562 11.7399C12.1266 11.6343 12.1619 11.4935 12.1619 11.3878C12.1619 11.2822 12.1266 11.1413 12.0562 11.0357L10.6126 8.53571C10.4717 8.32444 10.2604 8.18359 10.014 8.18359H7.12665C6.88017 8.18359 6.63369 8.32444 6.52806 8.53571L5.08439 11.0357C5.01397 11.1413 4.97876 11.2822 4.97876 11.3878C4.97876 11.4935 5.01397 11.6343 5.08439 11.7399L6.52806 14.2399C6.6689 14.4512 6.88017 14.592 7.12665 14.592H10.014C10.2604 14.592 10.5069 14.4512 10.6126 14.2399L12.0562 11.7399L11.6689 11.5287Z"/>
</mask>
<path d="M11.6689 11.5287L11.2816 11.3174L9.83791 13.8174L9.97876 13.923V13.747C9.90834 13.747 9.87313 13.7822 9.83791 13.8174L9.97876 13.923V13.747H7.09144V13.923L7.23228 13.8174C7.19707 13.747 7.12665 13.747 7.09144 13.747V13.923L7.23228 13.8174L5.78862 11.3174L5.64777 11.3878H5.82383L5.78862 11.3174L5.64777 11.3878H5.82383H5.64777L5.78862 11.4935L5.82383 11.3878H5.64777L5.78862 11.4935L7.23228 8.99345L7.09144 8.88782V9.06388C7.16186 9.06388 7.19707 9.02866 7.23228 8.99345L7.09144 8.88782V9.06388H9.97876V8.88782L9.83791 8.99345C9.87313 9.06388 9.94355 9.06388 9.97876 9.06388V8.88782L9.83791 8.99345L11.2816 11.4935L11.4224 11.423H11.2464L11.2816 11.4935L11.4224 11.423H11.2464H11.4224L11.2816 11.3526L11.2464 11.423H11.4224L11.2816 11.3526L11.6689 11.5287L12.0562 11.7399C12.1266 11.6343 12.1619 11.4935 12.1619 11.3878C12.1619 11.2822 12.1266 11.1413 12.0562 11.0357L10.6126 8.53571C10.4717 8.32444 10.2604 8.18359 10.014 8.18359H7.12665C6.88017 8.18359 6.63369 8.32444 6.52806 8.53571L5.08439 11.0357C5.01397 11.1413 4.97876 11.2822 4.97876 11.3878C4.97876 11.4935 5.01397 11.6343 5.08439 11.7399L6.52806 14.2399C6.6689 14.4512 6.88017 14.592 7.12665 14.592H10.014C10.2604 14.592 10.5069 14.4512 10.6126 14.2399L12.0562 11.7399L11.6689 11.5287Z" fill="#5A5A5A"/>
<path d="M11.2816 11.3174L12.2393 9.56161L10.5257 8.62693L9.54961 10.3172L11.2816 11.3174ZM9.83791 13.8174L8.10595 12.8172L7.21899 14.3532L8.63792 15.4174L9.83791 13.8174ZM9.97876 13.923L8.77876 15.523L11.9788 17.923V13.923H9.97876ZM9.97876 13.747H11.9788V11.747H9.97876V13.747ZM9.83791 13.8174L8.4237 12.4032L6.7931 14.0338L8.63792 15.4174L9.83791 13.8174ZM9.97876 13.923L8.77876 15.523L11.9788 17.923V13.923H9.97876ZM9.97876 13.747H11.9788V11.747H9.97876V13.747ZM7.09144 13.747V11.747H5.09144V13.747H7.09144ZM7.09144 13.923H5.09144V17.923L8.29143 15.523L7.09144 13.923ZM7.23228 13.8174L8.43228 15.4174L9.76761 14.4159L9.02114 12.923L7.23228 13.8174ZM7.09144 13.747V11.747H5.09144V13.747H7.09144ZM7.09144 13.923H5.09144V17.923L8.29143 15.523L7.09144 13.923ZM7.23228 13.8174L8.43228 15.4174L9.85121 14.3532L8.96425 12.8172L7.23228 13.8174ZM5.78862 11.3174L7.52058 10.3172L6.57875 8.68626L4.89419 9.52854L5.78862 11.3174ZM5.64777 11.3878L4.75334 9.59897L5.64777 13.3878V11.3878ZM5.82383 11.3878V13.3878H9.05988L7.61269 10.4934L5.82383 11.3878ZM5.78862 11.3174L7.57748 10.423L6.68305 8.63411L4.89419 9.52854L5.78862 11.3174ZM5.64777 11.3878L4.75334 9.59897L5.64777 13.3878V11.3878ZM5.64777 11.3878V9.38782H-0.352245L4.44778 12.9878L5.64777 11.3878ZM5.78862 11.4935L4.58862 13.0935L6.8085 14.7584L7.68599 12.1259L5.78862 11.4935ZM5.82383 11.3878L7.7212 12.0203L8.59868 9.38782H5.82383V11.3878ZM5.64777 11.3878V9.38782H-0.352245L4.44778 12.9878L5.64777 11.3878ZM5.78862 11.4935L4.58862 13.0935L6.3928 14.4466L7.52058 12.4936L5.78862 11.4935ZM7.23228 8.99345L8.96425 9.9936L9.85121 8.45765L8.43228 7.39345L7.23228 8.99345ZM7.09144 8.88782L8.29144 7.28782L5.09144 4.88782V8.88782H7.09144ZM7.09144 9.06388H5.09144V11.0639H7.09144V9.06388ZM7.23228 8.99345L8.64649 10.4077L10.2771 8.77706L8.43228 7.39345L7.23228 8.99345ZM7.09144 8.88782L8.29144 7.28782L5.09144 4.88782V8.88782H7.09144ZM7.09144 9.06388H5.09144V11.0639H7.09144V9.06388ZM9.97876 9.06388V11.0639H11.9788V9.06388H9.97876ZM9.97876 8.88782H11.9788V4.88781L8.77876 7.28782L9.97876 8.88782ZM9.83791 8.99345L8.63791 7.39346L7.30259 8.39495L8.04906 9.88788L9.83791 8.99345ZM9.97876 9.06388V11.0639H11.9788V9.06388H9.97876ZM9.97876 8.88782H11.9788V4.88781L8.77876 7.28782L9.97876 8.88782ZM9.83791 8.99345L8.63791 7.39346L7.21899 8.45765L8.10595 9.9936L9.83791 8.99345ZM11.2816 11.4935L9.54961 12.4936L10.4914 14.1246L12.176 13.2823L11.2816 11.4935ZM11.4224 11.423L12.3168 13.2119L11.4224 9.42303V11.423ZM11.2464 11.423V9.42303H8.01026L9.45752 12.3175L11.2464 11.423ZM11.2816 11.4935L9.49273 12.3879L10.3872 14.1767L12.176 13.2823L11.2816 11.4935ZM11.4224 11.423L12.3168 13.2119L11.4224 9.42303V11.423ZM11.4224 11.423V13.423L12.3169 9.63418L11.4224 11.423ZM11.2816 11.3526L12.176 9.56376L10.3872 8.66933L9.49273 10.4582L11.2816 11.3526ZM11.2464 11.423L9.45752 10.5286L8.01027 13.423H11.2464V11.423ZM11.4224 11.423V13.423L12.3169 9.63418L11.4224 11.423ZM11.2816 11.3526L12.1092 9.53188L10.3871 13.1415L11.2816 11.3526ZM12.0562 11.7399L11.0985 13.4957L12.7052 14.3721L13.7203 12.8493L12.0562 11.7399ZM12.0562 11.0357L10.3243 12.0359L10.3564 12.0916L10.3921 12.1451L12.0562 11.0357ZM10.6126 8.53571L12.3445 7.53556L12.3124 7.47984L12.2767 7.42631L10.6126 8.53571ZM6.52806 8.53571L8.26002 9.53586L8.29005 9.48385L8.31691 9.43013L6.52806 8.53571ZM5.08439 11.0357L6.74849 12.1451L6.78418 12.0916L6.81636 12.0359L5.08439 11.0357ZM5.08439 11.7399L6.81636 10.7398L6.78418 10.6841L6.74849 10.6305L5.08439 11.7399ZM6.52806 14.2399L4.79609 15.2401L4.82827 15.2958L4.86395 15.3493L6.52806 14.2399ZM10.6126 14.2399L8.8806 13.2398L8.85057 13.2918L8.82371 13.3455L10.6126 14.2399ZM12.0562 11.7399L13.7882 12.7401L14.813 10.9654L13.0139 9.98414L12.0562 11.7399ZM12.6266 9.77287L12.2393 9.56161L10.3239 13.0732L10.7112 13.2845L12.6266 9.77287ZM9.54961 10.3172L8.10595 12.8172L11.5699 14.8175L13.0135 12.3175L9.54961 10.3172ZM8.63792 15.4174L8.77876 15.523L11.1788 12.323L11.0379 12.2174L8.63792 15.4174ZM11.9788 13.923V13.747H7.97876V13.923H11.9788ZM9.97876 11.747C9.02896 11.747 8.47992 12.347 8.4237 12.4032L11.2521 15.2316C11.296 15.1877 11.1469 15.3503 10.9241 15.484C10.642 15.6533 10.3137 15.747 9.97876 15.747V11.747ZM8.63792 15.4174L8.77876 15.523L11.1788 12.323L11.0379 12.2174L8.63792 15.4174ZM11.9788 13.923V13.747H7.97876V13.923H11.9788ZM9.97876 11.747H7.09144V15.747H9.97876V11.747ZM5.09144 13.747V13.923H9.09144V13.747H5.09144ZM8.29143 15.523L8.43228 15.4174L6.03229 12.2174L5.89144 12.323L8.29143 15.523ZM9.02114 12.923C8.73053 12.3418 8.24257 12.0078 7.79432 11.8584C7.42308 11.7347 7.09346 11.747 7.09144 11.747V15.747C7.12463 15.747 6.84782 15.7593 6.5294 15.6531C6.13396 15.5213 5.69882 15.2226 5.44343 14.7118L9.02114 12.923ZM5.09144 13.747V13.923H9.09144V13.747H5.09144ZM8.29143 15.523L8.43228 15.4174L6.03229 12.2174L5.89144 12.323L8.29143 15.523ZM8.96425 12.8172L7.52058 10.3172L4.05665 12.3175L5.50032 14.8175L8.96425 12.8172ZM4.89419 9.52854L4.75334 9.59897L6.5422 13.1767L6.68305 13.1062L4.89419 9.52854ZM5.64777 13.3878H5.82383V9.38782H5.64777V13.3878ZM7.61269 10.4934L7.57748 10.423L3.99976 12.2118L4.03497 12.2822L7.61269 10.4934ZM4.89419 9.52854L4.75334 9.59897L6.5422 13.1767L6.68305 13.1062L4.89419 9.52854ZM5.64777 13.3878H5.82383V9.38782H5.64777V13.3878ZM5.82383 9.38782H5.64777V13.3878H5.82383V9.38782ZM4.44778 12.9878L4.58862 13.0935L6.98862 9.89345L6.84777 9.78782L4.44778 12.9878ZM7.68599 12.1259L7.7212 12.0203L3.92646 10.7554L3.89125 10.861L7.68599 12.1259ZM5.82383 9.38782H5.64777V13.3878H5.82383V9.38782ZM4.44778 12.9878L4.58862 13.0935L6.98862 9.89345L6.84777 9.78782L4.44778 12.9878ZM7.52058 12.4936L8.96425 9.9936L5.50032 7.9933L4.05665 10.4933L7.52058 12.4936ZM8.43228 7.39345L8.29144 7.28782L5.89144 10.4878L6.03228 10.5935L8.43228 7.39345ZM5.09144 8.88782V9.06388H9.09144V8.88782H5.09144ZM7.09144 11.0639C8.04122 11.0639 8.59026 10.4639 8.64649 10.4077L5.81807 7.57924C5.77421 7.6231 5.92331 7.46054 6.14608 7.32688C6.42823 7.15759 6.75646 7.06388 7.09144 7.06388V11.0639ZM8.43228 7.39345L8.29144 7.28782L5.89144 10.4878L6.03228 10.5935L8.43228 7.39345ZM5.09144 8.88782V9.06388H9.09144V8.88782H5.09144ZM7.09144 11.0639H9.97876V7.06388H7.09144V11.0639ZM11.9788 9.06388V8.88782H7.97876V9.06388H11.9788ZM8.77876 7.28782L8.63791 7.39346L11.0379 10.5935L11.1788 10.4878L8.77876 7.28782ZM8.04906 9.88788C8.33967 10.4691 8.82762 10.803 9.27589 10.9524C9.64712 11.0762 9.97675 11.0639 9.97876 11.0639V7.06388C9.94555 7.06388 10.2224 7.05157 10.5408 7.1577C10.9362 7.28952 11.3714 7.58824 11.6268 8.09903L8.04906 9.88788ZM11.9788 9.06388V8.88782H7.97876V9.06388H11.9788ZM8.77876 7.28782L8.63791 7.39346L11.0379 10.5935L11.1788 10.4878L8.77876 7.28782ZM8.10595 9.9936L9.54961 12.4936L13.0135 10.4933L11.5699 7.9933L8.10595 9.9936ZM12.176 13.2823L12.3168 13.2119L10.528 9.63418L10.3872 9.7046L12.176 13.2823ZM11.4224 9.42303H11.2464V13.423H11.4224V9.42303ZM9.45752 12.3175L9.49273 12.3879L13.0704 10.599L13.0352 10.5286L9.45752 12.3175ZM12.176 13.2823L12.3168 13.2119L10.528 9.63418L10.3872 9.7046L12.176 13.2823ZM11.4224 9.42303H11.2464V13.423H11.4224V9.42303ZM11.2464 13.423H11.4224V9.42303H11.2464V13.423ZM12.3169 9.63418L12.176 9.56376L10.3871 13.1415L10.528 13.2119L12.3169 9.63418ZM9.49273 10.4582L9.45752 10.5286L13.0352 12.3175L13.0704 12.247L9.49273 10.4582ZM11.2464 13.423H11.4224V9.42303H11.2464V13.423ZM12.3169 9.63418L12.176 9.56376L10.3871 13.1415L10.528 13.2119L12.3169 9.63418ZM10.454 13.1733L10.8413 13.3494L12.4965 9.70793L12.1092 9.53188L10.454 13.1733ZM10.7112 13.2845L11.0985 13.4957L13.0139 9.98414L12.6266 9.77287L10.7112 13.2845ZM13.7203 12.8493C14.0334 12.3797 14.1619 11.8434 14.1619 11.3878H10.1619C10.1619 11.2341 10.185 11.1104 10.2124 11.0144C10.24 10.9177 10.2913 10.7818 10.3921 10.6305L13.7203 12.8493ZM14.1619 11.3878C14.1619 10.9322 14.0334 10.3959 13.7203 9.92631L10.3921 12.1451C10.2913 11.9939 10.24 11.8579 10.2124 11.7612C10.185 11.6653 10.1619 11.5416 10.1619 11.3878H14.1619ZM13.7882 10.0356L12.3445 7.53556L8.8806 9.53586L10.3243 12.0359L13.7882 10.0356ZM12.2767 7.42631C11.8626 6.80518 11.0879 6.18359 10.014 6.18359V10.1836C9.43296 10.1836 9.08085 9.8437 8.94846 9.64511L12.2767 7.42631ZM10.014 6.18359H7.12665V10.1836H10.014V6.18359ZM7.12665 6.18359C6.2042 6.18359 5.21863 6.68243 4.7392 7.64128L8.31691 9.43013C8.17271 9.71853 7.96475 9.90154 7.78228 10.008C7.59874 10.115 7.37636 10.1836 7.12665 10.1836V6.18359ZM4.79609 7.53556L3.35243 10.0356L6.81636 12.0359L8.26002 9.53586L4.79609 7.53556ZM3.42029 9.92631C3.10721 10.3959 2.97876 10.9322 2.97876 11.3878H6.97876C6.97876 11.5416 6.95563 11.6653 6.92822 11.7612C6.90058 11.8579 6.84932 11.9939 6.74849 12.1451L3.42029 9.92631ZM2.97876 11.3878C2.97876 11.8434 3.10721 12.3797 3.42029 12.8493L6.74849 10.6305C6.84932 10.7818 6.90058 10.9177 6.92822 11.0144C6.95563 11.1104 6.97876 11.2341 6.97876 11.3878H2.97876ZM3.35243 12.7401L4.79609 15.2401L8.26002 13.2398L6.81636 10.7398L3.35243 12.7401ZM4.86395 15.3493C5.27804 15.9705 6.05268 16.592 7.12665 16.592V12.592C7.70766 12.592 8.05976 12.9319 8.19216 13.1305L4.86395 15.3493ZM7.12665 16.592H10.014V12.592H7.12665V16.592ZM10.014 16.592C10.9364 16.592 11.922 16.0932 12.4014 15.1344L8.82371 13.3455C8.96791 13.0571 9.17586 12.8741 9.35834 12.7677C9.54188 12.6606 9.76426 12.592 10.014 12.592V16.592ZM12.3445 15.2401L13.7882 12.7401L10.3243 10.7398L8.8806 13.2398L12.3445 15.2401ZM13.0139 9.98414L12.6266 9.77287L10.7112 13.2845L11.0985 13.4957L13.0139 9.98414Z" fill="#5A5A5A" mask="url(#path-17-inside-8_1416_1580)"/>
</svg>
