<svg width="20" height="28" viewBox="0 0 20 28" fill="none" xmlns="http://www.w3.org/2000/svg">
<path d="M8.88011 19.9023C9.14992 20.2219 9.77049 20.8609 10.0943 20.8609C10.418 20.8609 10.9037 20.2219 11.1061 19.9023M8.07068 22.778C8.34049 22.5224 9.12294 22.0111 10.0943 22.0111C11.0656 22.0111 11.7131 22.5224 11.9155 22.778C11.7806 23.0975 11.2275 23.7365 10.0943 23.7365C8.67775 23.7365 8.27304 22.5863 8.07068 22.778Z" stroke="white" stroke-linecap="round" stroke-linejoin="round"/>
<path d="M10.1061 3.21697C9.11189 3.48824 7.79198 3.94269 6.46642 4.55479M16.9357 7.61268C17.8463 7.76557 18.6811 9.71497 18.9846 10.6706C19.0605 12.964 18.8935 18.2771 17.6187 21.182C16.3438 24.087 12.6862 26.2148 11.0167 26.9156C11.0926 26.9793 10.8802 27.0685 9.42317 26.9156C7.60195 26.7245 3.95949 23.4755 2.59357 21.182C1.84127 19.9189 1.43426 18.0181 1.22039 15.8307M16.9357 7.61268C15.7975 7.42156 7.8296 7.99491 4.18715 11.8173C1.27318 14.8752 0.995156 15.767 1.22039 15.8307M16.9357 7.61268C17.0116 7.35786 17.875 6.8208 17.875 5.48615C17.875 4.98769 18.074 4.36367 16.7081 2.83473C15.3422 1.30579 12.838 0.732435 9.65083 1.11467C7.10111 1.42046 6.46551 3.5355 6.46642 4.55479M1.22039 15.8307C1.04594 14.0466 1 12.0719 1 10.0972C1 7.7325 3.74512 5.81142 6.46642 4.55479" stroke="white" stroke-width="2" stroke-linecap="round" stroke-linejoin="round"/>
<path d="M9.89215 8.7832C12.5903 9.86955 18.6619 12.8526 18.5 14.9998M10.7016 15.6847C10.9039 15.1735 11.9967 14.151 14.7487 14.151M9.28507 15.6847C8.94781 15.1735 7.70667 14.1894 5.44026 14.3427M4.42847 16.8349C4.76573 17.0906 5.60215 17.6018 6.24969 17.6018C6.89724 17.6018 8.00347 17.6018 8.47564 17.6018M11.3087 17.6018H14.1417C14.4789 17.5379 15.1939 17.2184 15.3558 16.4515" stroke="white" stroke-linecap="round" stroke-linejoin="round"/>
</svg>
