<svg width="30" height="22" viewBox="0 0 30 22" fill="none" xmlns="http://www.w3.org/2000/svg">
<path d="M11.1579 21.3499C11.252 21.4459 11.3807 21.5 11.5151 21.5C11.6494 21.5 11.7782 21.4459 11.8722 21.3499L29.3571 3.50526C29.5476 3.31085 29.5476 2.99979 29.3571 2.80539L27.2453 0.650065C27.1512 0.554086 27.0225 0.5 26.8881 0.5C26.7538 0.5 26.625 0.554086 26.531 0.650065L11.5151 15.9749L3.46901 7.76334C3.37496 7.66737 3.24625 7.61328 3.11187 7.61328C2.9775 7.61328 2.84878 7.66737 2.75474 7.76334L0.642865 9.91867C0.452378 10.1131 0.452378 10.4241 0.642865 10.6185L11.1579 21.3499Z" fill="#009E19" stroke="#009E19" stroke-linejoin="round"/>
</svg>
