<svg width="179" height="19" viewBox="0 0 179 19" fill="none" xmlns="http://www.w3.org/2000/svg">
<path d="M2.43359 11.2949V15H1.28516V5.19727H3.97852C5.02669 5.19727 5.83789 5.45247 6.41211 5.96289C6.99089 6.47331 7.28027 7.19336 7.28027 8.12305C7.28027 9.05273 6.95898 9.8138 6.31641 10.4062C5.67839 10.9987 4.81478 11.2949 3.72559 11.2949H2.43359ZM2.43359 6.23633V10.2559H3.63672C4.42969 10.2559 5.03353 10.0758 5.44824 9.71582C5.86751 9.35124 6.07715 8.83854 6.07715 8.17773C6.07715 6.88346 5.31152 6.23633 3.78027 6.23633H2.43359ZM11.3887 15.1641C10.3542 15.1641 9.52702 14.8382 8.90723 14.1865C8.29199 13.5303 7.98438 12.6621 7.98438 11.582C7.98438 10.4062 8.30566 9.48796 8.94824 8.82715C9.59082 8.16634 10.459 7.83594 11.5527 7.83594C12.5964 7.83594 13.4098 8.15723 13.9932 8.7998C14.5811 9.44238 14.875 10.3333 14.875 11.4727C14.875 12.5892 14.5583 13.4847 13.9248 14.1592C13.2959 14.8291 12.4505 15.1641 11.3887 15.1641ZM11.4707 8.7793C10.7507 8.7793 10.181 9.02539 9.76172 9.51758C9.34245 10.0052 9.13281 10.6797 9.13281 11.541C9.13281 12.3704 9.34473 13.0244 9.76855 13.5029C10.1924 13.9814 10.7598 14.2207 11.4707 14.2207C12.1953 14.2207 12.7513 13.986 13.1387 13.5166C13.5306 13.0472 13.7266 12.3796 13.7266 11.5137C13.7266 10.6387 13.5306 9.96419 13.1387 9.49023C12.7513 9.01628 12.1953 8.7793 11.4707 8.7793ZM25.4844 8L23.3857 15H22.2236L20.7812 9.98926C20.7266 9.79785 20.6901 9.58138 20.6719 9.33984H20.6445C20.6309 9.50391 20.583 9.71582 20.501 9.97559L18.9355 15H17.8145L15.6953 8H16.8711L18.3203 13.2637C18.3659 13.4232 18.3978 13.6328 18.416 13.8926H18.4707C18.4844 13.6921 18.5254 13.4779 18.5938 13.25L20.207 8H21.2324L22.6816 13.2773C22.7272 13.446 22.7614 13.6556 22.7842 13.9062H22.8389C22.848 13.7285 22.8867 13.5189 22.9551 13.2773L24.377 8H25.4844ZM32.4092 11.7803H27.4668C27.485 12.5596 27.6947 13.1611 28.0957 13.585C28.4967 14.0088 29.0482 14.2207 29.75 14.2207C30.5384 14.2207 31.263 13.9609 31.9238 13.4414V14.4941C31.3086 14.9408 30.4951 15.1641 29.4834 15.1641C28.4945 15.1641 27.7174 14.8473 27.1523 14.2139C26.5872 13.5758 26.3047 12.6803 26.3047 11.5273C26.3047 10.4382 26.6123 9.55176 27.2275 8.86816C27.8473 8.18001 28.6152 7.83594 29.5312 7.83594C30.4473 7.83594 31.1559 8.13216 31.6572 8.72461C32.1585 9.31706 32.4092 10.1396 32.4092 11.1924V11.7803ZM31.2607 10.8301C31.2562 10.1829 31.099 9.67936 30.7891 9.31934C30.4837 8.95931 30.0576 8.7793 29.5107 8.7793C28.9821 8.7793 28.5332 8.96842 28.1641 9.34668C27.7949 9.72493 27.5671 10.2194 27.4805 10.8301H31.2607ZM37.7617 9.13477C37.5658 8.98438 37.2832 8.90918 36.9141 8.90918C36.4355 8.90918 36.0345 9.13477 35.7109 9.58594C35.3919 10.0371 35.2324 10.6523 35.2324 11.4316V15H34.1113V8H35.2324V9.44238H35.2598C35.4193 8.9502 35.6631 8.56738 35.9912 8.29395C36.3193 8.01595 36.6862 7.87695 37.0918 7.87695C37.3835 7.87695 37.6068 7.90885 37.7617 7.97266V9.13477ZM44.6045 11.7803H39.6621C39.6803 12.5596 39.89 13.1611 40.291 13.585C40.6921 14.0088 41.2435 14.2207 41.9453 14.2207C42.7337 14.2207 43.4583 13.9609 44.1191 13.4414V14.4941C43.5039 14.9408 42.6904 15.1641 41.6787 15.1641C40.6898 15.1641 39.9128 14.8473 39.3477 14.2139C38.7826 13.5758 38.5 12.6803 38.5 11.5273C38.5 10.4382 38.8076 9.55176 39.4229 8.86816C40.0426 8.18001 40.8105 7.83594 41.7266 7.83594C42.6426 7.83594 43.3512 8.13216 43.8525 8.72461C44.3538 9.31706 44.6045 10.1396 44.6045 11.1924V11.7803ZM43.4561 10.8301C43.4515 10.1829 43.2943 9.67936 42.9844 9.31934C42.679 8.95931 42.2529 8.7793 41.7061 8.7793C41.1774 8.7793 40.7285 8.96842 40.3594 9.34668C39.9902 9.72493 39.7624 10.2194 39.6758 10.8301H43.4561ZM52.2812 15H51.1602V13.8105H51.1328C50.6133 14.7129 49.8112 15.1641 48.7266 15.1641C47.847 15.1641 47.1429 14.8519 46.6143 14.2275C46.0902 13.5986 45.8281 12.7441 45.8281 11.6641C45.8281 10.5065 46.1198 9.5791 46.7031 8.88184C47.2865 8.18457 48.0635 7.83594 49.0342 7.83594C49.9958 7.83594 50.6953 8.21419 51.1328 8.9707H51.1602V4.63672H52.2812V15ZM51.1602 11.835V10.8027C51.1602 10.2376 50.9733 9.75911 50.5996 9.36719C50.2259 8.97526 49.752 8.7793 49.1777 8.7793C48.4941 8.7793 47.9564 9.02995 47.5645 9.53125C47.1725 10.0326 46.9766 10.7253 46.9766 11.6094C46.9766 12.416 47.1634 13.054 47.5371 13.5234C47.9154 13.9883 48.4212 14.2207 49.0547 14.2207C49.679 14.2207 50.1849 13.9951 50.5723 13.5439C50.9642 13.0928 51.1602 12.5231 51.1602 11.835ZM59.541 13.9883H59.5137V15H58.3926V4.63672H59.5137V9.23047H59.541C60.0924 8.30078 60.8991 7.83594 61.9609 7.83594C62.8587 7.83594 63.5605 8.15039 64.0664 8.7793C64.5768 9.40365 64.832 10.2422 64.832 11.2949C64.832 12.4661 64.5472 13.4049 63.9775 14.1113C63.4079 14.8132 62.6286 15.1641 61.6396 15.1641C60.7145 15.1641 60.015 14.7721 59.541 13.9883ZM59.5137 11.165V12.1426C59.5137 12.7214 59.7005 13.2135 60.0742 13.6191C60.4525 14.0202 60.931 14.2207 61.5098 14.2207C62.1888 14.2207 62.7197 13.9609 63.1025 13.4414C63.4899 12.9219 63.6836 12.1995 63.6836 11.2744C63.6836 10.4951 63.5036 9.88444 63.1436 9.44238C62.7835 9.00033 62.2959 8.7793 61.6807 8.7793C61.029 8.7793 60.5049 9.00716 60.1084 9.46289C59.7119 9.91406 59.5137 10.4814 59.5137 11.165ZM72.1943 8L68.9746 16.1211C68.4004 17.5703 67.5938 18.2949 66.5547 18.2949C66.263 18.2949 66.0192 18.2653 65.8232 18.2061V17.2012C66.0648 17.2832 66.2858 17.3242 66.4863 17.3242C67.0514 17.3242 67.4753 16.987 67.7578 16.3125L68.3184 14.9863L65.584 8H66.8281L68.7217 13.3867C68.7445 13.4551 68.7923 13.6328 68.8652 13.9199H68.9062C68.929 13.8105 68.9746 13.6374 69.043 13.4004L71.0322 8H72.1943Z" fill="#5A5A5A"/>
<path d="M94.256 16.9847H86.072C85.1012 17.0147 84.1346 16.8436 83.233 16.4823C82.3315 16.1209 81.5144 15.577 80.833 14.8847C80.1473 14.1846 79.6104 13.353 79.2545 12.4399C78.8985 11.5269 78.731 10.5512 78.762 9.57174C78.7226 8.61835 78.8847 7.66737 79.238 6.78095C79.5912 5.89454 80.1276 5.09267 80.812 4.42775C81.5169 3.77131 82.3445 3.26059 83.2474 2.92492C84.1502 2.58925 85.1105 2.43524 86.073 2.47175H94.257V5.00174H86.073C85.4399 4.98054 84.8091 5.08831 84.2189 5.31849C83.6288 5.54868 83.0916 5.89648 82.64 6.34074C82.1911 6.79176 81.8397 7.33017 81.6075 7.92259C81.3753 8.51502 81.2672 9.14884 81.29 9.78475C81.2659 10.4111 81.3737 11.0355 81.6062 11.6176C81.8388 12.1997 82.191 12.7264 82.64 13.1637C83.0974 13.5973 83.6365 13.9355 84.2259 14.1587C84.8153 14.3819 85.4432 14.4856 86.073 14.4637H94.257L94.256 16.9847Z" fill="#5A5A5A"/>
<path d="M109.038 2.46777V8.41978H98.721V2.46777H96.193V16.9848H98.721V10.9488H109.037V16.9848H111.566V2.46777H109.038Z" fill="#5A5A5A"/>
<path d="M132.038 9.56775C132.069 10.5461 131.902 11.5206 131.548 12.4331C131.194 13.3456 130.66 14.1774 129.977 14.8788C129.295 15.5726 128.476 16.1174 127.572 16.4788C126.668 16.8403 125.7 17.0105 124.727 16.9788H120.667C119.696 17.0089 118.73 16.8379 117.828 16.4765C116.927 16.1151 116.11 15.5711 115.429 14.8788C114.743 14.179 114.205 13.3475 113.849 12.4344C113.493 11.5213 113.325 10.5454 113.356 9.56575C113.317 8.61226 113.479 7.66117 113.832 6.77473C114.186 5.88829 114.722 5.08647 115.407 4.42175C116.112 3.76522 116.94 3.25444 117.842 2.91877C118.745 2.58309 119.706 2.42914 120.668 2.46575H124.728C125.692 2.42733 126.654 2.58041 127.559 2.91615C128.463 3.25189 129.292 3.76362 129.998 4.42175C130.68 5.08783 131.215 5.8901 131.567 6.77636C131.918 7.66263 132.08 8.61304 132.04 9.56575L132.038 9.56775ZM129.531 9.77875C129.554 9.14292 129.446 8.50914 129.214 7.91672C128.982 7.3243 128.631 6.78585 128.182 6.33475C127.727 5.88909 127.186 5.54058 126.592 5.3104C125.998 5.08022 125.364 4.97317 124.727 4.99575H120.667C120.034 4.97454 119.403 5.08231 118.813 5.3125C118.223 5.54269 117.686 5.89048 117.234 6.33475C116.785 6.78574 116.434 7.32417 116.202 7.91662C115.97 8.50907 115.862 9.14289 115.885 9.77875C115.861 10.405 115.968 11.0295 116.201 11.6115C116.433 12.1936 116.785 12.7204 117.234 13.1578C117.691 13.5914 118.231 13.9296 118.82 14.1528C119.409 14.376 120.037 14.4796 120.667 14.4578H124.727C125.36 14.4808 125.992 14.3778 126.585 14.1546C127.178 13.9314 127.721 13.5926 128.182 13.1578C128.631 12.7203 128.983 12.1935 129.215 11.6115C129.448 11.0294 129.555 10.405 129.531 9.77875Z" fill="#5A5A5A"/>
<path d="M160.847 2.46777H158.318V16.9848H160.847V2.46777Z" fill="#5A5A5A"/>
<path d="M178.497 12.4998C178.52 13.1273 178.399 13.7518 178.146 14.3261C177.892 14.9005 177.511 15.4098 177.032 15.8158C176.041 16.6137 174.796 17.0286 173.525 16.9848H162.786V14.4558H173.525C174.159 14.4716 174.785 14.3095 175.331 13.9878C175.6 13.8289 175.822 13.6018 175.975 13.3294C176.128 13.057 176.206 12.7491 176.202 12.4368C176.208 12.1271 176.128 11.8218 175.97 11.5553C175.812 11.2887 175.583 11.0714 175.309 10.9278C174.767 10.6179 174.15 10.4632 173.526 10.4808H167.339C166.193 10.5198 165.071 10.1509 164.172 9.43976C163.731 9.08261 163.379 8.62813 163.143 8.11197C162.907 7.59581 162.794 7.032 162.812 6.46476C162.795 5.90078 162.909 5.34055 163.145 4.82803C163.381 4.3155 163.733 3.86462 164.172 3.51076C165.071 2.79932 166.193 2.43007 167.339 2.46876H178.131V4.99876H167.339C166.894 4.98511 166.459 5.12652 166.107 5.39876C165.942 5.52566 165.809 5.69022 165.72 5.87876C165.631 6.0673 165.588 6.27437 165.595 6.48276C165.585 6.69159 165.626 6.8997 165.716 7.08875C165.805 7.27779 165.939 7.44196 166.107 7.56676C166.463 7.82847 166.897 7.96363 167.339 7.95076H173.526C174.804 7.9071 176.054 8.33812 177.033 9.16076C177.511 9.57198 177.891 10.0853 178.145 10.6628C178.398 11.2403 178.519 11.8674 178.498 12.4978" fill="#5A5A5A"/>
<path d="M138.87 2.46777H142.08L147.755 12.8678L153.494 2.46777H156.747L149.264 15.5838C148.739 16.5171 148.215 16.9838 147.691 16.9838C147.167 16.9838 146.643 16.5171 146.118 15.5838L144.077 11.9228L144.062 11.9498L144.074 11.9188L138.87 2.46777Z" fill="#5A5A5A"/>
<path d="M131.267 2.46777H134.478L140.154 12.8678L141.863 9.72977L142.607 11.0808L142.596 11.1108L142.61 11.0838L143.393 12.4838L141.662 15.5838C141.137 16.5171 140.612 16.9838 140.089 16.9838C139.564 16.9838 139.041 16.5158 138.515 15.5838L136.474 11.9228L136.46 11.9498L136.471 11.9188L131.267 2.46777Z" fill="#5A5A5A"/>
</svg>
