<svg width="24" height="23" viewBox="0 0 24 23" fill="none" xmlns="http://www.w3.org/2000/svg">
<path d="M4.77164 22.6837H19.2165C21.7929 22.6837 23.1289 21.3477 23.1289 18.8071V4.29067C23.1289 1.73807 21.7929 0.414062 19.2165 0.414062H4.77164C2.19519 0.414062 0.859253 1.73807 0.859253 4.29067V18.8071C0.859253 21.3597 2.19519 22.6837 4.77164 22.6837ZM4.91478 20.3458C3.80547 20.3458 3.19714 19.7613 3.19714 18.6043V4.48151C3.19714 3.3245 3.80547 2.75195 4.91478 2.75195H19.0733C20.1707 2.75195 20.791 3.3245 20.791 4.48151V18.6043C20.791 19.7613 20.1707 20.3458 19.0733 20.3458H4.91478ZM7.1811 16.2425H13.2286C14.4453 16.2425 15.149 15.5507 15.149 14.3698V8.72789C15.149 7.52316 14.493 6.84326 13.2763 6.84326H7.1811C6.01215 6.84326 5.26069 7.52316 5.26069 8.72789V14.3937C5.26069 15.5865 5.97637 16.2425 7.1811 16.2425ZM15.817 13.2367L17.964 15.0617C18.2026 15.2525 18.4411 15.3956 18.6678 15.3956C19.133 15.3956 19.4431 15.0617 19.4431 14.5607V8.54897C19.4431 8.04799 19.133 7.72593 18.6678 7.72593C18.4411 7.72593 18.1907 7.85714 17.964 8.03606L15.817 9.86105V13.2367Z" fill="#5A5A5A"/>
</svg>
