<svg width="15" height="9" viewBox="0 0 15 9" fill="none" xmlns="http://www.w3.org/2000/svg">
<path d="M7.31545 5.84671L1.77445 0.301712C1.57677 0.110742 1.31193 0.00516319 1.03708 0.00776672C0.762235 0.0103703 0.499436 0.120948 0.30541 0.31563C0.111385 0.510312 0.00169521 0.773483 1.94844e-05 1.04834C-0.00165624 1.32319 0.104816 1.58768 0.296453 1.78471L6.57445 8.06671C6.76488 8.25677 7.02126 8.36605 7.29024 8.37183C7.55921 8.3776 7.82005 8.27942 8.01845 8.09771L14.3405 1.78871C14.5371 1.59258 14.6478 1.32637 14.6482 1.04863C14.6486 0.770885 14.5386 0.504369 14.3425 0.307711C14.1463 0.111053 13.8801 0.000361443 13.6024 -1.33514e-05C13.3246 -0.000388145 13.0581 0.109584 12.8615 0.305712L7.31545 5.84671Z" fill="#5A5A5A"/>
</svg>
