<svg width="18" height="18" viewBox="0 0 18 18" fill="none" xmlns="http://www.w3.org/2000/svg">
<path d="M10.0429 6.44289L10.7 7.10003L4.22857 13.5715H3.57142V12.9143L10.0429 6.44289ZM12.6143 2.14289C12.4269 2.14367 12.2473 2.21807 12.1143 2.35003L10.8071 3.65717L13.4857 6.33574L14.7929 5.0286C14.9259 4.89477 15.0006 4.71373 15.0006 4.52503C15.0006 4.33632 14.9259 4.15529 14.7929 4.02146L13.1214 2.35003C13.0551 2.28324 12.976 2.23049 12.8889 2.1949C12.8018 2.15931 12.7084 2.14162 12.6143 2.14289ZM10.0429 4.42146L2.14285 12.3215V15H4.82142L12.7214 7.10003L10.0429 4.42146Z" fill="white"/>
</svg>
