<svg width="20" height="20" viewBox="0 0 20 20" fill="none" xmlns="http://www.w3.org/2000/svg">
<path d="M2.50165 0.498428C1.94841 -0.0548145 1.05143 -0.0548147 0.498184 0.498428C-0.0550586 1.05167 -0.0550589 1.94865 0.498184 2.5019L7.99647 10.0002L0.498225 17.4984C-0.0550177 18.0517 -0.0550177 18.9487 0.498225 19.5019C1.05147 20.0551 1.94845 20.0551 2.50169 19.5019L9.99994 12.0037L17.4982 19.5019C18.0514 20.0552 18.9484 20.0552 19.5017 19.5019C20.0549 18.9487 20.0549 18.0517 19.5017 17.4984L12.0034 10.0002L19.5017 2.5019C20.0549 1.94866 20.0549 1.05167 19.5017 0.49843C18.9485 -0.0548128 18.0515 -0.0548123 17.4982 0.49843L9.99994 7.99672L2.50165 0.498428Z" fill="#33383F"/>
</svg>
