<svg width="25" height="25" viewBox="0 0 25 25" fill="none" xmlns="http://www.w3.org/2000/svg">
<path d="M19.5528 10.1399C19.2495 8.59987 18.4748 7.19222 17.336 6.11193C16.1973 5.03164 14.7508 4.33216 13.1969 4.11037C11.643 3.88857 10.0585 4.15542 8.663 4.87398C7.26748 5.59253 6.1299 6.72723 5.40782 8.12093C3.86587 8.2874 2.44649 9.0389 1.44209 10.2206C0.437685 11.4023 -0.075242 12.9243 0.00897619 14.4729C0.0931944 16.0215 0.768143 17.4789 1.89478 18.5447C3.02141 19.6105 4.51391 20.2037 6.06482 20.2019H19.1998C20.5114 20.2119 21.7752 19.7097 22.7222 18.8022C23.6692 17.8947 24.2248 16.6535 24.2708 15.3426C24.3168 14.0318 23.8495 12.7547 22.9684 11.7831C22.0873 10.8115 20.8619 10.222 19.5528 10.1399ZM17.1788 13.1299L12.1288 18.1799L7.07882 13.1299H10.1078V9.08993H14.1478V13.1299H17.1788Z" fill="white"/>
</svg>
