<svg width="23" height="23" viewBox="0 0 23 23" fill="none" xmlns="http://www.w3.org/2000/svg">
<path d="M12.493 0H9.993V12.514H12.493V0ZM18.537 2.715L16.76 4.492C17.7735 5.30503 18.591 6.3357 19.1521 7.50763C19.7131 8.67955 20.0032 9.9627 20.001 11.262C20.0029 12.7409 19.6303 14.1962 18.918 15.4922C18.2057 16.7883 17.1769 17.8829 15.9274 18.6741C14.678 19.4652 13.2485 19.9272 11.7724 20.0169C10.2962 20.1066 8.82135 19.8212 7.48528 19.1871C6.14921 18.553 4.99541 17.5911 4.13141 16.3908C3.26742 15.1905 2.72136 13.7911 2.54414 12.3228C2.36691 10.8546 2.56428 9.36541 3.11785 7.99404C3.67142 6.62266 4.56318 5.41376 5.71 4.48L3.946 2.715C2.50988 3.9411 1.40542 5.50892 0.7344 7.274C0.0633762 9.03908 -0.152638 10.9446 0.10626 12.8151C0.365158 14.6856 1.09064 16.4609 2.21587 17.9773C3.3411 19.4938 4.82987 20.7027 6.54504 21.4926C8.2602 22.2825 10.1466 22.6281 12.0304 22.4975C13.9142 22.3669 15.7348 21.7642 17.3245 20.7451C18.9143 19.726 20.2219 18.3232 21.1271 16.666C22.0322 15.0087 22.5058 13.1503 22.504 11.262C22.5049 9.63445 22.1503 8.02635 21.4651 6.55007C20.7799 5.07378 19.7806 3.76494 18.537 2.715Z" fill="#5A5A5A"/>
</svg>
