<svg width="195" height="84" viewBox="0 0 195 84" fill="none" xmlns="http://www.w3.org/2000/svg">
<path d="M4.32045 83.1972C4.21504 83.1445 4.1228 83.0523 4.01739 83.0523C2.97645 82.9469 2.04092 82.5252 1.11857 82.0641C0.868212 81.9323 0.631035 81.7874 0.393859 81.6161C0.3148 81.5634 0.262094 81.4184 0.262094 81.3262C0.248918 80.9177 0.248918 80.5092 0.248918 80.1008C0.248918 80.0349 0.301624 79.9427 0.35433 79.89C0.380682 79.8636 0.486094 79.9163 0.5388 79.9558C1.46115 80.6278 2.42304 81.2603 3.52986 81.5765C4.46539 81.8401 5.42727 81.8401 6.37598 81.4975C7.35104 81.1417 8.04939 80.4961 8.47104 79.5869C8.83998 78.7831 8.90586 77.9398 8.64233 77.0702C8.26022 75.8184 7.32469 75.1728 6.21786 74.6852C5.13739 74.2241 4.03057 73.8288 2.96327 73.3412C2.05409 72.9196 1.2108 72.4057 0.644212 71.5229C0.262094 70.93 0.0512705 70.2975 0.0117411 69.6123C-0.0277883 68.7031 0.011741 67.8071 0.459741 66.977C0.868212 66.2259 1.39527 65.5935 2.09362 65.1059C3.54304 64.0914 5.16374 64.0255 6.8108 64.2626C7.7068 64.3944 8.5501 64.737 9.34069 65.1586C9.47245 65.2377 9.59104 65.4485 9.61739 65.6067C9.65692 65.9361 9.63057 66.2787 9.63057 66.6212C9.63057 66.8584 9.52516 66.8979 9.32751 66.8057C8.72139 66.5026 8.11527 66.1732 7.49598 65.9229C6.41551 65.4881 5.30868 65.3958 4.16233 65.7252C3.34539 65.9624 2.68657 66.4104 2.18586 67.0956C1.17127 68.4923 1.35574 70.6137 2.98962 71.6151C3.76704 72.0895 4.61033 72.4189 5.4668 72.7483C6.5341 73.1568 7.61457 73.5389 8.53692 74.2241C9.74916 75.1201 10.3157 76.3191 10.3553 77.8081C10.4212 79.9163 9.4988 81.4711 7.7068 82.4857C7.23245 82.7624 6.65269 82.8547 6.11245 83.0391C5.95433 83.0918 5.80939 83.1709 5.66445 83.2236C5.25598 83.1972 4.7948 83.1972 4.32045 83.1972Z" fill="black"/>
<path d="M167.103 28.5942C167.208 28.6732 167.313 28.7655 167.432 28.805C168.183 29.0553 168.96 29.253 169.712 29.5429C170.463 29.8328 171.174 30.2017 171.886 30.5706C172.544 30.9132 173.177 31.2954 173.809 31.6906C174.969 32.4285 175.997 33.3113 176.959 34.2864C178.118 35.4591 179.106 36.7504 179.897 38.1866C180.503 39.2803 181.083 40.3739 181.689 41.4544C182.401 42.7194 183.072 44.0107 183.837 45.2492C184.575 46.4615 185.339 47.6474 186.169 48.7805C187.144 50.1114 188.317 51.2577 189.806 52.0219C190.781 52.5227 191.848 52.7994 192.968 52.6544C193.047 52.6412 193.113 52.6412 193.192 52.6412C193.614 52.6412 193.904 52.8389 193.93 53.1419C193.943 53.3923 193.627 53.7744 193.311 53.814C191.874 53.9984 190.425 54.1829 188.976 54.0643C188.238 53.9984 187.487 53.9589 186.749 53.8667C186.143 53.7876 185.523 53.6427 184.93 53.4977C184.364 53.3528 183.797 53.1947 183.244 52.997C182.624 52.773 181.992 52.549 181.412 52.246C180.582 51.798 179.778 51.3104 179.001 50.7834C177.696 49.8874 176.59 48.7805 175.601 47.5419C174.587 46.2902 173.757 44.9198 172.992 43.5099C172.386 42.4031 171.886 41.2304 171.332 40.0972C170.845 39.109 170.37 38.1076 169.83 37.1325C169.184 35.973 168.512 34.8266 167.775 33.7198C166.918 32.4285 165.824 31.3217 164.533 30.4521C163.505 29.7669 162.399 29.2925 161.186 28.9895C159.566 28.5942 157.919 28.6205 156.258 28.6205C156.048 28.6205 155.942 28.7259 155.942 28.9368C155.942 29.0158 155.942 29.0817 155.942 29.1608C155.942 36.0125 155.942 42.8775 155.942 49.7292C155.942 50.5857 156.258 51.2972 157.049 51.6925C157.352 51.8375 157.708 51.9297 158.037 51.9429C159.368 51.9692 160.699 51.9429 162.016 51.9561C162.293 51.9561 162.596 51.9692 162.847 52.0615C163.005 52.1142 163.229 52.3514 163.216 52.4963C163.202 52.6676 163.005 52.8652 162.847 52.9707C162.728 53.0497 162.517 53.0102 162.346 53.0102C155.072 53.0102 147.799 53.0102 140.539 53.0102C140.407 53.0102 140.236 53.0234 140.144 52.9575C139.999 52.8521 139.801 52.6808 139.801 52.5358C139.814 52.3777 139.972 52.1537 140.13 52.0747C140.341 51.9692 140.605 51.9561 140.842 51.9561C142.199 51.9429 143.556 51.9561 144.913 51.9561C145.651 51.9561 146.271 51.6794 146.679 51.0469C147.008 50.533 147.074 49.9401 147.114 49.3603C147.127 49.2417 147.114 49.1231 147.114 49.0177C147.114 34.2996 147.114 19.5683 147.114 4.85016C147.114 4.20451 146.995 3.57204 146.679 2.99227C146.297 2.29392 145.625 2.10945 144.887 2.09627C143.424 2.0831 141.962 2.09627 140.499 2.09627C140.368 2.09627 140.223 2.0831 140.091 2.05674C139.801 1.99086 139.709 1.78004 139.735 1.50333C139.761 1.25298 139.893 1.09486 140.157 1.06851C140.288 1.05533 140.433 1.04215 140.565 1.04215C147.799 1.04215 155.02 1.04215 162.254 1.04215C163.374 1.04215 164.494 1.02898 165.6 1.12121C167.248 1.25298 168.895 1.34521 170.515 1.6878C171.398 1.87227 172.294 2.00404 173.177 2.21486C173.862 2.37298 174.521 2.59698 175.193 2.82098C175.878 3.05816 176.576 3.26898 177.222 3.57204C177.96 3.9278 178.672 4.36263 179.37 4.79745C180.464 5.46945 181.399 6.32592 182.176 7.34051C182.954 8.34192 183.521 9.44875 183.916 10.661C184.39 12.1236 184.561 13.6257 184.588 15.1542C184.614 16.6695 184.377 18.1584 183.837 19.5683C183.099 21.4921 181.887 23.0601 180.24 24.3118C179.199 25.1024 178.065 25.7349 176.88 26.2488C175.654 26.7758 174.402 27.2106 173.085 27.4742C172.202 27.6586 171.332 27.8958 170.436 28.0408C169.488 28.1989 168.512 28.2648 167.551 28.3702C167.406 28.3833 167.261 28.4097 167.116 28.4229C167.129 28.5283 167.116 28.5546 167.103 28.5942ZM155.942 15.6285C155.942 19.3048 155.942 22.981 155.942 26.6572C155.942 27.6586 155.81 27.5664 156.825 27.5401C159.289 27.4873 161.779 27.7245 164.23 27.3029C165.073 27.1579 165.93 27.013 166.76 26.7626C167.946 26.4069 169.079 25.9193 170.16 25.3132C171.319 24.6544 172.334 23.8506 173.203 22.8624C174.112 21.8346 174.758 20.6751 175.219 19.3838C175.72 17.9739 175.97 16.5113 175.997 15.0356C176.01 14.2713 175.904 13.5071 175.825 12.756C175.76 12.2026 175.694 11.6492 175.549 11.109C175.246 10.0022 174.864 8.90851 174.205 7.94663C173.757 7.28781 173.256 6.65533 172.716 6.08875C172.255 5.61439 171.701 5.19274 171.148 4.8238C170.476 4.3758 169.777 3.96733 169.053 3.62474C168.368 3.30851 167.63 3.07133 166.892 2.87369C165.93 2.62333 164.955 2.39933 163.967 2.29392C162.899 2.17533 161.832 2.16216 160.752 2.1358C159.935 2.10945 159.104 2.10945 158.288 2.14898C157.879 2.16216 157.457 2.21486 157.088 2.37298C156.245 2.74192 155.929 3.49298 155.929 4.3758C155.942 8.10475 155.942 11.8732 155.942 15.6285Z" fill="black"/>
<path d="M7.57501 27.0919C7.57501 19.6736 7.57501 12.2684 7.57501 4.85002C7.57501 4.33613 7.53548 3.83543 7.2983 3.3479C6.91618 2.59684 6.29689 2.25425 5.49312 2.24107C3.95148 2.21472 2.39665 2.20154 0.855005 2.20154C0.578299 2.20154 0.354299 2.13566 0.222534 1.88531C0.0380638 1.56907 0.27524 1.14743 0.631005 1.12107C0.920888 1.1079 1.22395 1.08154 1.51383 1.08154C9.80183 1.08154 18.0767 1.08154 26.3647 1.08154C27.4188 1.08154 28.4729 1.08154 29.527 1.1606C30.6207 1.23966 31.7275 1.37143 32.808 1.54272C33.9016 1.71401 34.9953 1.92484 36.0889 2.17519C37.0113 2.38601 37.9336 2.62319 38.8296 2.91307C39.7388 3.21613 40.6216 3.55872 41.4913 3.94084C42.4268 4.36249 43.336 4.82366 44.232 5.32437C45.5233 6.02272 46.7223 6.87919 47.816 7.86743C48.5143 8.4999 49.2258 9.13237 49.8451 9.83072C50.5435 10.6213 51.1891 11.4646 51.7953 12.3343C52.2696 12.9931 52.6781 13.7046 53.0602 14.4293C53.4423 15.154 53.7717 15.9051 54.0748 16.6561C54.3647 17.3545 54.615 18.066 54.839 18.7776C55.063 19.5023 55.2475 20.227 55.4056 20.9648C55.5901 21.9136 55.735 22.8623 55.88 23.8241C56.104 25.3658 56.1567 26.9206 56.0513 28.4754C55.9854 29.4241 55.8404 30.3729 55.7087 31.3216C55.656 31.7564 55.5769 32.1912 55.4583 32.626C55.1816 33.6538 54.8917 34.6816 54.5755 35.7093C54.0353 37.3827 53.2315 38.9376 52.2564 40.387C51.5054 41.507 50.6226 42.5479 49.7529 43.5757C48.7779 44.722 47.6447 45.7235 46.4456 46.6195C45.5364 47.3046 44.5746 47.9239 43.5863 48.5037C42.7957 48.978 41.9788 49.3997 41.1355 49.7818C40.3317 50.1507 39.4884 50.467 38.6583 50.77C37.8677 51.0599 37.0771 51.3235 36.2734 51.5606C35.575 51.7715 34.8767 51.9296 34.1651 52.0877C33.559 52.2326 32.9529 52.3644 32.3468 52.4566C31.4771 52.5884 30.5943 52.6938 29.7247 52.7992C26.839 53.1418 23.9402 53.01 21.0545 53.0232C14.4136 53.0364 7.77266 53.0232 1.14489 53.0232C0.960417 53.0232 0.736417 53.0496 0.591476 52.9705C0.446534 52.8915 0.27524 52.6938 0.262064 52.5357C0.248887 52.3776 0.407005 52.1668 0.551946 52.0877C0.736417 51.9955 0.973593 51.9823 1.19759 51.9823C2.48889 51.9691 3.79336 51.9823 5.08465 51.9823C5.58536 51.9823 6.08607 51.9164 6.54724 51.6924C7.06113 51.442 7.35101 51.0204 7.49595 50.5197C7.58819 50.1903 7.62771 49.8345 7.62771 49.4919C7.57501 42.0209 7.57501 34.563 7.57501 27.0919ZM16.535 27.0919C16.535 33.9964 16.535 40.914 16.535 47.8185C16.535 48.7672 16.5218 49.7159 16.5482 50.6646C16.5614 50.9677 16.6404 51.2971 16.7854 51.5606C16.9962 51.9559 17.431 51.9955 17.8395 51.9955C19.5656 51.9955 21.2917 52.0086 23.0178 51.9955C24.3618 51.9823 25.7058 51.9296 27.0498 51.89C27.3793 51.8769 27.7218 51.8505 28.0513 51.7978C29.0263 51.6265 30.0014 51.4552 30.9633 51.2312C31.7802 51.0336 32.5971 50.77 33.3877 50.4802C33.9938 50.2562 34.5868 49.9795 35.1534 49.6764C35.9967 49.202 36.8663 48.754 37.6437 48.1743C38.5002 47.5418 39.2776 46.8039 40.055 46.0792C40.9774 45.2227 41.7416 44.2213 42.44 43.1672C43.1251 42.1263 43.7313 41.0458 44.2056 39.8863C44.4823 39.2143 44.7986 38.5423 45.0226 37.8571C45.3124 36.9611 45.576 36.0519 45.7736 35.1296C46.024 34.0096 46.2611 32.8764 46.4061 31.73C46.5642 30.4783 46.6696 29.2001 46.7223 27.9352C46.7619 26.8416 46.7091 25.7479 46.6564 24.6543C46.6037 23.6397 46.5115 22.6119 46.3534 21.6105C46.2084 20.6354 45.9844 19.6736 45.7604 18.7117C45.5364 17.7893 45.3256 16.867 44.9962 15.9973C44.5614 14.851 44.0343 13.7441 43.5336 12.6373C43.0197 11.5041 42.3346 10.4764 41.5967 9.48814C40.6743 8.24955 39.6202 7.12955 38.408 6.15449C37.2748 5.23213 36.0626 4.4679 34.7317 3.87496C33.8621 3.47966 32.9397 3.16343 32.0174 2.8999C31.095 2.63637 30.1595 2.43872 29.2108 2.32013C28.2225 2.20154 27.2211 2.17519 26.2197 2.16201C24.2696 2.13566 22.3195 2.14884 20.3694 2.14884C19.5129 2.14884 18.6564 2.13566 17.8131 2.16201C17.431 2.17519 16.9435 2.13566 16.759 2.55731C16.6009 2.92625 16.5218 3.36107 16.5218 3.76954C16.535 11.5305 16.535 19.3046 16.535 27.0919Z" fill="black"/>
<path d="M138.365 27.408C138.312 28.4357 138.299 29.5689 138.167 30.6757C138.048 31.6771 137.811 32.6654 137.6 33.6404C137.456 34.2993 137.297 34.9449 137.087 35.5906C136.849 36.3284 136.573 37.0532 136.283 37.7647C136.072 38.3049 135.835 38.8452 135.571 39.3722C135.189 40.1233 134.833 40.9007 134.372 41.599C133.595 42.7849 132.791 43.9708 131.895 45.0645C130.656 46.5534 129.233 47.8579 127.639 48.9647C126.545 49.7421 125.412 50.4536 124.187 51.0202C123.251 51.455 122.316 51.9162 121.354 52.272C120.313 52.6541 119.246 52.944 118.178 53.2339C117.322 53.4579 116.465 53.6555 115.596 53.8005C114.673 53.9454 113.738 54.0376 112.802 54.1035C111.854 54.1694 110.918 54.2485 109.969 54.2089C108.718 54.1694 107.479 54.0376 106.24 53.8927C105.186 53.7741 104.132 53.6292 103.104 53.3788C101.945 53.1021 100.799 52.7332 99.6785 52.3379C98.6903 51.9953 97.7152 51.6132 96.7929 51.1388C95.3566 50.4141 93.9599 49.5972 92.7214 48.5562C91.6672 47.6602 90.5999 46.7774 89.6117 45.8155C88.5181 44.7482 87.5562 43.536 86.7392 42.2447C86.2254 41.4277 85.6983 40.624 85.2635 39.7675C84.8023 38.832 84.407 37.8569 84.0512 36.8819C83.7482 36.0649 83.4978 35.2084 83.2475 34.3652C83.1157 33.904 83.0366 33.4164 82.9444 32.9553C82.8258 32.3623 82.7072 31.7826 82.6282 31.1896C82.5359 30.5308 82.4305 29.872 82.4042 29.2131C82.3515 27.8428 82.2988 26.4593 82.3383 25.0889C82.3646 24.2193 82.5228 23.3628 82.6414 22.4931C82.7336 21.887 82.839 21.2941 82.9708 20.7011C83.1421 20.0028 83.3265 19.3176 83.5505 18.6456C83.7745 17.9341 84.0117 17.2357 84.2884 16.5506C84.5915 15.7995 84.9077 15.0353 85.2766 14.3106C85.6588 13.5595 86.0804 12.848 86.5152 12.1364C87.2531 10.9242 88.0832 9.75149 89.0846 8.72373C89.9411 7.8409 90.8108 6.95808 91.7463 6.18067C92.6818 5.40325 93.6832 4.69172 94.7242 4.08561C95.8574 3.41361 97.0564 2.84702 98.2555 2.30678C98.9538 1.99055 99.7049 1.75337 100.443 1.52937C101.365 1.23949 102.287 0.936429 103.223 0.738781C104.422 0.501605 105.621 0.317134 106.833 0.198546C108.164 0.0799573 109.495 0.0272513 110.826 0.000898396C112.42 -0.0122781 114.001 0.119487 115.569 0.396193C116.505 0.55431 117.44 0.699252 118.35 0.923252C119.206 1.13408 120.036 1.42396 120.866 1.71384C121.525 1.93784 122.197 2.18819 122.83 2.47808C123.778 2.92608 124.714 3.42678 125.649 3.91431C127.007 4.63902 128.232 5.54819 129.405 6.53643C130.511 7.47196 131.552 8.48655 132.435 9.6329C133.107 10.5157 133.766 11.4117 134.359 12.3473C134.82 13.072 135.189 13.8494 135.571 14.6136C135.874 15.2461 136.164 15.8786 136.415 16.5374C136.612 17.0513 136.77 17.5915 136.942 18.1186C137.139 18.7642 137.324 19.4098 137.508 20.0555C137.614 20.4376 137.719 20.8197 137.785 21.215C137.996 22.559 138.299 23.903 138.312 25.2734C138.259 25.9717 138.325 26.6306 138.365 27.408ZM91.9044 28.831C91.8781 28.831 91.8517 28.831 91.8254 28.831C91.9439 30.0828 92.023 31.3477 92.1811 32.5995C92.3261 33.68 92.5369 34.7473 92.7477 35.8277C92.8927 36.5788 93.0376 37.343 93.2616 38.0677C93.6305 39.2404 94.039 40.4132 94.5134 41.5463C95.0009 42.6795 95.5411 43.7863 96.1736 44.8405C96.9115 46.079 97.7943 47.2254 98.8221 48.2663C99.8498 49.3073 100.983 50.2296 102.248 50.9543C103.315 51.5605 104.435 52.048 105.621 52.3906C106.926 52.7727 108.243 53.0099 109.587 53.0494C111.458 53.1021 113.29 52.9045 115.108 52.3906C116.175 52.0875 117.19 51.679 118.165 51.152C119.43 50.4668 120.563 49.5972 121.591 48.5694C122.764 47.4099 123.791 46.1449 124.595 44.7219C124.991 44.0103 125.373 43.2856 125.715 42.5609C126.018 41.9416 126.295 41.3092 126.532 40.6635C126.822 39.8597 127.059 39.0428 127.296 38.239C127.507 37.5012 127.744 36.7633 127.876 36.0122C128.113 34.7604 128.324 33.5087 128.456 32.2437C128.614 30.7284 128.693 29.2131 128.759 27.6847C128.785 27.0259 128.719 26.367 128.693 25.695C128.654 24.8122 128.64 23.9294 128.561 23.0466C128.469 22.0583 128.311 21.0833 128.153 20.1082C128.008 19.2254 127.863 18.3294 127.626 17.4597C127.336 16.3529 126.98 15.2461 126.598 14.1656C126.308 13.3487 126.018 12.5186 125.623 11.7543C125.017 10.5948 124.345 9.47478 123.647 8.36796C122.803 7.05031 121.736 5.89078 120.524 4.88937C119.707 4.23055 118.811 3.66396 117.915 3.09737C117.375 2.76796 116.795 2.47808 116.202 2.25408C115.359 1.95102 114.502 1.70066 113.632 1.51619C112.776 1.33172 111.893 1.19996 111.01 1.16043C110.048 1.13408 109.073 1.18678 108.111 1.30537C107.202 1.41078 106.293 1.58208 105.423 1.84561C104.593 2.09596 103.79 2.50443 102.999 2.86019C101.602 3.49267 100.39 4.42819 99.2832 5.46914C97.7152 6.93173 96.4635 8.65784 95.4884 10.5553C94.8032 11.8861 94.2235 13.296 93.6964 14.6927C93.3143 15.7336 93.0376 16.8141 92.7872 17.9077C92.5632 18.8696 92.4183 19.8447 92.2865 20.8197C92.1284 21.9924 91.9571 23.1783 91.9044 24.3642C91.8517 25.8531 91.9044 27.3421 91.9044 28.831Z" fill="black"/>
<path d="M73.5102 27.1446C73.5102 34.6157 73.5102 42.0736 73.5102 49.5446C73.5102 50.322 73.6683 51.0204 74.3403 51.5211C74.7356 51.811 75.1572 51.9823 75.6447 51.9955C76.9624 52.0086 78.28 51.9955 79.5977 51.9955C79.769 51.9955 79.9271 52.035 80.0984 52.0613C80.3487 52.1009 80.5069 52.2326 80.4805 52.5093C80.4541 52.7729 80.296 52.9573 80.0325 53.01C79.9271 53.0364 79.8085 53.0364 79.6899 53.0364C72.601 53.0364 65.512 53.0364 58.4099 53.0364C57.8565 53.0364 57.7116 52.8651 57.8433 52.3512C57.8697 52.2458 57.9751 52.1272 58.0805 52.1009C58.265 52.035 58.4626 51.9955 58.6603 51.9955C59.8988 51.9823 61.1506 52.0086 62.3892 51.9823C62.7977 51.9691 63.2457 51.9032 63.6014 51.7187C64.3789 51.3235 64.616 50.5724 64.6687 49.7423C64.6819 49.5183 64.6687 49.2943 64.6687 49.0835C64.6687 34.2599 64.6687 19.4232 64.6687 4.59967C64.6687 3.86179 64.537 3.13708 63.9309 2.59684C63.5092 2.21473 63.0085 2.14884 62.4946 2.13567C61.1243 2.12249 59.7539 2.13567 58.3836 2.13567C58.0937 2.13567 57.8301 2.09614 57.7511 1.74037C57.6852 1.43731 57.8697 1.17379 58.1859 1.14743C58.5021 1.12108 58.8184 1.09473 59.1346 1.09473C65.8283 1.09473 72.5219 1.09473 79.2024 1.09473C79.4264 1.09473 79.6504 1.1079 79.8612 1.12108C80.1774 1.13426 80.4014 1.35826 80.4146 1.63496C80.4146 1.91167 80.2038 2.12249 79.8612 2.12249C79.0179 2.13567 78.1746 2.10931 77.3313 2.13567C76.6462 2.14884 75.961 2.1752 75.289 2.21473C74.2744 2.28061 73.721 3.04484 73.5629 3.92767C73.5233 4.15167 73.5233 4.38884 73.5233 4.62602C73.5101 12.1234 73.5102 19.634 73.5102 27.1446Z" fill="black"/>
<path d="M83.3924 67.03C83.3661 67.1618 83.3265 67.2672 83.3265 67.3858C83.3265 72.3401 83.3265 77.3076 83.3265 82.262C83.3265 82.9472 83.3265 82.9472 82.6545 82.9472C82.5228 82.9472 82.4042 82.9472 82.2724 82.9472C81.7849 82.9472 81.7849 82.9472 81.7849 82.4465C81.7849 76.5434 81.7849 70.6535 81.7849 64.7505C81.7849 64.4738 81.8639 64.3947 82.1538 64.3552C82.8258 64.2761 83.2606 64.5265 83.6823 65.0403C84.855 66.4502 86.0804 67.8206 87.2795 69.2041C88.8475 71.0093 90.4155 72.8276 91.9835 74.6328C93.3143 76.1745 94.6583 77.7029 95.9891 79.2314C96.2922 79.574 96.5821 79.9298 96.9642 80.2723C96.9774 80.1538 97.0169 80.0352 97.0169 79.9166C97.0169 74.8963 97.0169 69.8761 97.0169 64.8427C97.0169 64.3683 97.0169 64.3683 97.4781 64.3683C97.7152 64.3683 97.9392 64.3683 98.1764 64.3683C98.4399 64.3683 98.5849 64.4606 98.5454 64.7373C98.5322 64.8559 98.5454 64.9745 98.5454 65.0799C98.5454 70.838 98.5454 76.5961 98.5454 82.3674C98.5454 82.9208 98.519 82.8681 97.9788 82.9472C97.2936 83.0526 97.0037 82.5914 96.6479 82.1829C96.1472 81.6164 95.6597 81.0366 95.1722 80.47C94.1708 79.3236 93.1694 78.1773 92.1679 77.0309C91.2061 75.9241 90.2442 74.8173 89.2823 73.7105C87.9778 72.2083 86.6734 70.6931 85.3689 69.1909C84.7628 68.4794 84.1435 67.7811 83.5242 67.0827C83.511 67.0695 83.4846 67.0695 83.3924 67.03Z" fill="black"/>
<path d="M52.0193 73.6445C52.0193 76.5697 52.0193 79.4948 52.0193 82.4332C52.0193 82.9471 52.0062 82.8812 51.5186 82.9603C50.8993 83.0525 50.5699 82.7231 50.2142 82.3014C49.3313 81.2341 48.3958 80.2064 47.4866 79.1654C46.3007 77.7951 45.1149 76.4115 43.929 75.0412C43.0989 74.0925 42.2687 73.157 41.4386 72.2082C40.4372 71.0619 39.4358 69.9155 38.4344 68.7692C37.9732 68.2421 37.5252 67.7019 37.064 67.1748C37.0113 67.1221 36.9323 67.0958 36.8664 67.0562C36.8268 67.1353 36.7741 67.2144 36.761 67.2934C36.7478 67.4515 36.761 67.6097 36.761 67.7678C36.761 72.6431 36.761 77.5184 36.761 82.3937C36.761 82.9207 36.7478 82.9471 36.2076 82.9471C35.9967 82.9471 35.7859 82.9471 35.5751 82.9471C35.3643 82.9471 35.2589 82.8417 35.2589 82.644C35.2589 82.5386 35.2589 82.4332 35.2589 82.3278C35.2589 76.4906 35.2589 70.6534 35.2589 64.8294C35.2589 64.4341 35.2984 64.4473 35.6805 64.3814C36.4579 64.2365 36.84 64.724 37.2617 65.2115C38.4739 66.6346 39.7125 68.0313 40.9379 69.428C41.913 70.548 42.888 71.6812 43.8631 72.8012C44.8118 73.8948 45.7605 74.9885 46.696 76.0821C47.8556 77.4261 49.0283 78.7833 50.1878 80.1273C50.2273 80.18 50.2932 80.2064 50.3459 80.2459C50.3854 80.18 50.4513 80.1141 50.4513 80.0483C50.4645 79.8638 50.4513 79.6661 50.4513 79.4817C50.4513 74.58 50.4513 69.6915 50.4513 64.7899C50.4513 64.421 50.4909 64.3814 50.873 64.3814C51.1365 64.3814 51.4 64.3946 51.6636 64.3814C51.9139 64.3682 51.993 64.4737 51.993 64.724C51.9798 65.3301 51.993 65.9494 51.993 66.5555C52.0193 68.9141 52.0193 71.2859 52.0193 73.6445Z" fill="black"/>
<path d="M187.921 73.6971C188.672 74.1451 189.147 74.8171 189.608 75.4891C190.267 76.4246 190.873 77.3865 191.505 78.3352C192.151 79.3103 192.784 80.2722 193.416 81.2472C193.719 81.7084 194.009 82.1564 194.299 82.6176C194.431 82.8284 194.378 82.9338 194.141 82.9338C193.745 82.9338 193.363 82.947 192.968 82.9207C192.836 82.9075 192.678 82.8021 192.599 82.6967C192.098 81.9588 191.611 81.2209 191.137 80.4698C190.57 79.5738 190.03 78.6778 189.45 77.795C188.804 76.8199 188.185 75.8054 187.342 74.9884C186.63 74.3032 185.761 74.0265 184.785 74.0265C183.916 74.0265 183.059 74.0397 182.19 74.0265C181.913 74.0265 181.86 74.1319 181.86 74.3823C181.873 77.0571 181.86 79.7319 181.86 82.4068C181.86 82.5254 181.873 82.6439 181.847 82.7494C181.821 82.8284 181.715 82.9338 181.649 82.9338C181.333 82.9602 181.017 82.9602 180.701 82.9338C180.595 82.9206 180.49 82.7889 180.424 82.6967C180.385 82.6176 180.398 82.4858 180.398 82.3804C180.398 76.5301 180.398 70.6665 180.398 64.8162C180.398 64.4341 180.45 64.3813 180.833 64.3813C182.427 64.3813 184.008 64.3813 185.602 64.3813C186.749 64.3813 187.869 64.5922 188.897 65.1192C189.964 65.6595 190.715 66.4896 191.084 67.6623C191.334 68.4792 191.347 69.283 191.229 70.0999C191.071 71.1804 190.504 72.0501 189.634 72.6825C189.16 73.0251 188.62 73.2886 188.106 73.5785C188.066 73.6049 188.014 73.6444 187.921 73.6971ZM181.873 69.1644C181.873 70.179 181.873 71.1804 181.873 72.195C181.873 72.7879 181.873 72.8011 182.48 72.7879C183.758 72.7616 185.049 72.7616 186.327 72.6562C186.894 72.6035 187.487 72.4058 187.987 72.1291C189.173 71.4966 189.74 70.4821 189.713 69.1117C189.687 67.5173 188.791 66.5291 187.473 66.0021C186.591 65.6595 185.655 65.5936 184.72 65.554C183.916 65.5277 183.099 65.5409 182.282 65.5409C181.9 65.5409 181.873 65.5672 181.873 65.9493C181.873 67.043 181.873 68.0971 181.873 69.1644Z" fill="black"/>
<path d="M149.473 81.5893C149.604 81.6025 149.723 81.6289 149.855 81.6289C154.19 81.6289 158.538 81.6289 162.873 81.6289C163.295 81.6289 163.295 81.6289 163.281 82.0505C163.281 82.2613 163.281 82.4722 163.281 82.683C163.281 82.8674 163.189 82.9465 163.005 82.9465C162.86 82.9333 162.715 82.9465 162.557 82.9465C157.537 82.9465 152.529 82.9465 147.509 82.9333C147.338 82.9333 147.088 82.8675 146.995 82.7357C146.837 82.5249 146.969 82.314 147.14 82.1164C148.537 80.4298 149.934 78.73 151.317 77.0434C152.674 75.3964 154.032 73.7625 155.376 72.1155C156.403 70.8637 157.431 69.5987 158.459 68.347C159.118 67.53 159.79 66.7263 160.449 65.9093C160.501 65.8434 160.514 65.7249 160.541 65.6326C160.449 65.6063 160.369 65.5667 160.277 65.5667C156.193 65.5667 152.108 65.5667 148.01 65.5667C147.483 65.5667 147.483 65.5536 147.483 65.0397C147.483 64.4336 147.351 64.3677 148.181 64.3677C152.991 64.3677 157.787 64.3677 162.596 64.3809C162.741 64.3809 162.965 64.4204 163.018 64.5258C163.137 64.7234 163.137 64.9606 162.952 65.1714C162.293 65.9489 161.648 66.7394 161.002 67.5169C160.04 68.6764 159.078 69.8491 158.116 71.0086C156.588 72.8533 155.059 74.7112 153.518 76.5559C152.161 78.1898 150.803 79.8369 149.446 81.4839C149.473 81.4971 149.486 81.5235 149.473 81.5893Z" fill="black"/>
<path d="M118.402 82.9469C117.809 83.105 117.546 82.7887 117.335 82.2749C116.94 81.2998 116.479 80.3511 116.031 79.3892C115.688 78.6645 115.253 77.9662 115.016 77.2019C114.805 76.5167 114.384 76.4904 113.804 76.4904C111.234 76.5167 108.665 76.5036 106.096 76.4904C105.779 76.4904 105.634 76.6222 105.516 76.912C105.265 77.505 104.976 78.0847 104.712 78.6777C104.449 79.2443 104.211 79.824 103.948 80.4038C103.711 80.9309 103.46 81.4711 103.21 81.9982C103.091 82.2485 102.973 82.512 102.828 82.7492C102.775 82.8414 102.643 82.9337 102.538 82.9469C102.195 82.9732 101.84 82.96 101.497 82.96C101.247 82.96 101.247 82.7887 101.326 82.6306C101.655 81.9323 101.985 81.2339 102.314 80.5356C102.577 79.9822 102.815 79.4156 103.065 78.849C103.315 78.2956 103.566 77.7422 103.829 77.1887C104.093 76.6222 104.356 76.0556 104.62 75.4758C104.897 74.896 105.173 74.3031 105.437 73.7233C105.766 72.9854 106.096 72.2476 106.425 71.5229C106.689 70.9563 106.965 70.3897 107.229 69.8231C107.479 69.2697 107.729 68.7163 107.98 68.1629C108.23 67.5963 108.481 67.0429 108.744 66.4763C109.008 65.8965 109.297 65.3299 109.535 64.737C109.719 64.2758 110.049 64.065 110.497 64.2626C110.668 64.3285 110.773 64.5789 110.865 64.7765C111.155 65.3826 111.432 65.9887 111.709 66.5949C111.959 67.1614 112.209 67.728 112.46 68.2814C112.723 68.848 113 69.4146 113.264 69.9812C113.514 70.5214 113.764 71.0617 114.001 71.6019C114.265 72.1949 114.529 72.7878 114.805 73.3676C115.069 73.9342 115.332 74.5139 115.596 75.0805C115.859 75.6603 116.136 76.2269 116.413 76.8066C116.663 77.36 116.9 77.9134 117.164 78.4669C117.506 79.2311 117.875 79.9822 118.218 80.7332C118.521 81.392 118.811 82.0509 119.101 82.7097C119.18 82.8678 119.101 82.9469 118.929 82.9469C118.758 82.9469 118.574 82.9469 118.402 82.9469ZM110.207 66.8189C110.167 66.832 110.141 66.8452 110.101 66.8584C109.851 67.4118 109.601 67.9784 109.337 68.5318C109.008 69.2697 108.678 69.9944 108.349 70.7323C108.006 71.4833 107.664 72.2344 107.321 72.9854C107.044 73.5784 106.781 74.1845 106.491 74.7774C106.333 75.1069 106.412 75.265 106.794 75.265C108.994 75.265 111.195 75.265 113.395 75.265C113.527 75.265 113.646 75.265 113.777 75.265C114.015 75.265 114.081 75.12 113.988 74.9224C113.764 74.4217 113.54 73.9342 113.303 73.4334C112.961 72.7087 112.605 71.984 112.275 71.2593C111.722 70.0471 111.182 68.8217 110.641 67.5963C110.51 67.3327 110.352 67.0824 110.207 66.8189Z" fill="black"/>
<path d="M70.137 76.4901C68.7666 76.4901 67.3963 76.5032 66.0259 76.4901C65.7097 76.4901 65.5647 76.6218 65.433 76.8985C65.0245 77.8209 64.5897 78.7169 64.1812 79.6392C63.8518 80.3771 63.5224 81.115 63.193 81.8397C63.048 82.156 62.9031 82.4722 62.7318 82.7621C62.6791 82.8411 62.5605 82.9202 62.4683 82.9334C62.1257 82.9597 61.7699 82.9465 61.4273 82.9465C61.177 82.9465 61.177 82.7752 61.2429 82.6171C61.401 82.2482 61.5854 81.8793 61.7567 81.5103C62.0203 80.9305 62.2706 80.3508 62.5473 79.771C62.7977 79.2176 63.0612 78.6774 63.3116 78.124C63.5751 77.5574 63.8386 76.9908 64.1021 76.411C64.3525 75.8444 64.616 75.291 64.8664 74.7244C65.1299 74.171 65.3803 73.6044 65.6438 73.051C65.9205 72.4581 66.1972 71.852 66.4739 71.259C66.7243 70.7056 66.9746 70.1522 67.225 69.5988C67.4885 69.0322 67.752 68.4524 68.0024 67.8858C68.2659 67.3192 68.5294 66.7527 68.793 66.1729C69.0433 65.6195 69.2937 65.0661 69.544 64.5127C69.6626 64.2623 69.8603 64.1964 70.137 64.2096C70.3742 64.2228 70.5454 64.2623 70.664 64.5127C71.0066 65.2901 71.3624 66.0543 71.7182 66.8185C71.9817 67.3851 72.2584 67.9517 72.5219 68.5183C72.7723 69.0454 73.0094 69.5856 73.2598 70.1127C73.5233 70.6792 73.7605 71.259 74.024 71.8256C74.3007 72.4317 74.5774 73.0247 74.8542 73.6176C75.1967 74.3687 75.5525 75.1065 75.8951 75.8576C76.1586 76.4242 76.3958 76.9908 76.6462 77.5442C76.9097 78.1108 77.1864 78.6774 77.4499 79.244C77.6871 79.771 77.9374 80.2849 78.1746 80.812C78.4382 81.4049 78.7017 81.9978 78.9784 82.5908C79.1102 82.8675 79.0838 82.9202 78.7807 82.9334C78.5304 82.9334 78.2669 82.907 78.0297 82.9465C77.6739 82.9992 77.5026 82.8148 77.384 82.5381C77.0678 81.8661 76.7647 81.1809 76.4617 80.5089C76.1059 79.7447 75.7502 78.9672 75.3944 78.203C75.1704 77.7155 74.9332 77.2148 74.7224 76.7141C74.6302 76.5032 74.4984 76.4769 74.3007 76.4769C72.904 76.4901 71.5205 76.4901 70.137 76.4901ZM70.0711 66.7395C69.768 67.3719 69.5177 67.899 69.2805 68.4392C69.0038 69.0454 68.7403 69.6647 68.4636 70.2708C68.1341 70.9955 67.8047 71.707 67.4753 72.4317C67.1196 73.196 66.777 73.9734 66.4212 74.7376C66.2367 75.1197 66.3158 75.2515 66.7374 75.2515C68.9511 75.2515 71.1647 75.2515 73.3652 75.2515C73.4838 75.2515 73.6024 75.2515 73.7078 75.2515C73.9055 75.2383 73.9845 75.1197 73.9055 74.9616C73.6815 74.4477 73.4443 73.9338 73.2071 73.42C72.8645 72.6689 72.5087 71.931 72.153 71.18C71.8763 70.587 71.5996 69.9809 71.3229 69.388C71.0593 68.8214 70.8222 68.2416 70.5586 67.675C70.44 67.3851 70.2687 67.1084 70.0711 66.7395Z" fill="black"/>
<path d="M15.5863 73.8417C15.5732 73.9867 15.56 74.0789 15.56 74.1711C15.56 76.9118 15.56 79.6525 15.56 82.3801C15.56 82.9335 15.56 82.9335 14.9934 82.9335C14.7957 82.9335 14.5981 82.9335 14.3873 82.9335C14.1764 82.9335 14.071 82.8281 14.0579 82.6304C14.0447 82.5382 14.0579 82.446 14.0579 82.3405C14.0579 76.4902 14.0579 70.653 14.0579 64.8027C14.0579 64.4205 14.1106 64.3678 14.4927 64.3678C14.7167 64.3678 14.9407 64.381 15.1515 64.3678C15.4546 64.3415 15.56 64.4601 15.56 64.7631C15.5468 66.3575 15.56 67.965 15.56 69.5725C15.56 70.7584 15.56 71.9311 15.5468 73.117C15.5468 73.1829 15.5732 73.2488 15.5995 73.4201C15.8367 73.1961 16.0343 73.0379 16.2056 72.8535C17.1807 71.8521 18.1426 70.8507 19.1176 69.8492C20.3826 68.5316 21.6475 67.2139 22.9124 65.8963C23.3341 65.4483 23.7689 65.0003 24.2169 64.5787C24.3223 64.4864 24.4805 64.4074 24.6254 64.3942C25.0207 64.3678 25.4292 64.381 25.8245 64.381C25.9035 64.381 25.9957 64.4337 26.0748 64.4732C26.0353 64.5523 26.0089 64.6445 25.9562 64.6972C24.9416 65.7645 23.9402 66.8318 22.9256 67.8991C22.2536 68.5975 21.5816 69.2827 20.9096 69.981C19.816 71.1142 18.7355 72.2605 17.655 73.3937C17.5101 73.5518 17.5364 73.6836 17.6814 73.8285C18.7355 74.83 19.7896 75.8445 20.8437 76.8591C22.5172 78.4798 24.1906 80.1005 25.8772 81.7212C26.1934 82.0243 26.5096 82.301 26.8127 82.6041C26.8786 82.67 26.9049 82.7885 26.9445 82.8808C26.8522 82.9071 26.76 82.9598 26.6677 82.973C26.4833 82.9862 26.312 82.9467 26.1275 82.973C25.495 83.0784 25.047 82.8017 24.6122 82.3669C23.3736 81.1415 22.0955 79.9556 20.8306 78.7565C19.7237 77.6892 18.6169 76.6088 17.4969 75.5415C16.9303 75.0012 16.3374 74.4874 15.7576 73.9471C15.7181 73.9076 15.6786 73.8944 15.5863 73.8417Z" fill="black"/>
<path d="M166.615 73.6312C166.615 70.6797 166.615 67.7282 166.615 64.7898C166.615 64.4077 166.642 64.3813 167.037 64.3813C170.146 64.3813 173.256 64.3813 176.366 64.3813C176.669 64.3813 176.748 64.4736 176.748 64.7635C176.735 65.5804 176.748 65.5804 175.918 65.5804C173.48 65.5804 171.029 65.5804 168.592 65.5804C168.183 65.5804 168.117 65.6463 168.117 66.0548C168.117 68.2289 168.117 70.4162 168.117 72.5903C168.117 72.9329 168.315 72.9592 168.565 72.9592C170.7 72.9592 172.848 72.9592 174.982 72.9592C175.378 72.9592 175.786 72.9724 176.181 72.9592C176.432 72.9461 176.511 73.0515 176.524 73.2886C176.563 74.2373 176.577 74.2374 175.628 74.2374C173.296 74.2374 170.95 74.2374 168.618 74.2374C168.144 74.2374 168.117 74.2637 168.117 74.7381C168.117 76.8858 168.117 79.0336 168.117 81.1814C168.117 81.6294 168.131 81.6425 168.579 81.6425C171.24 81.6425 173.915 81.6425 176.577 81.6425C176.972 81.6425 176.972 81.6425 176.972 82.051C176.972 82.947 176.972 82.947 176.076 82.947C173.085 82.947 170.094 82.947 167.103 82.947C166.668 82.947 166.642 82.9206 166.642 82.4726C166.615 79.5211 166.615 76.5696 166.615 73.6312Z" fill="black"/>
<path d="M137.508 77.8734C137.508 76.3318 137.508 74.777 137.508 73.2353C137.508 73.1167 137.456 72.9586 137.377 72.8664C136.586 71.9045 135.795 70.9558 135.005 70.0071C134.412 69.2956 133.806 68.5708 133.213 67.8593C132.541 67.0687 131.869 66.2781 131.197 65.4875C130.973 65.2108 130.736 64.9341 130.512 64.6574C130.472 64.6047 130.419 64.5257 130.433 64.473C130.446 64.4203 130.538 64.3807 130.604 64.3807C131.052 64.3675 131.513 64.3544 131.961 64.3939C132.093 64.4071 132.238 64.5388 132.33 64.6443C133.107 65.5534 133.872 66.4758 134.636 67.385C135.769 68.729 136.902 70.0598 138.035 71.3906C138.167 71.5487 138.286 71.6014 138.47 71.3906C139.893 69.6777 141.316 67.9779 142.753 66.265C143.227 65.6984 143.714 65.1318 144.215 64.5784C144.307 64.473 144.492 64.3807 144.637 64.3675C145.019 64.3412 145.414 64.3544 145.809 64.3544C145.889 64.3544 145.981 64.4203 146.06 64.4466C146.033 64.5125 146.007 64.6047 145.968 64.6574C144.9 65.9355 143.82 67.2137 142.753 68.4918C141.567 69.9017 140.394 71.2984 139.221 72.7214C139.103 72.8664 139.037 73.0772 139.037 73.2617C139.024 76.2923 139.024 79.3228 139.024 82.3534C139.024 82.8937 138.997 82.92 138.444 82.92C138.286 82.92 138.128 82.92 137.969 82.92C137.561 82.92 137.521 82.8937 137.521 82.472C137.521 81.7473 137.521 81.0226 137.521 80.2979C137.508 79.4941 137.508 78.6904 137.508 77.8734Z" fill="black"/>
<path d="M121.868 73.6441C121.868 70.6794 121.868 67.7278 121.868 64.7631C121.868 64.4601 121.96 64.3415 122.263 64.3678C122.514 64.3942 122.764 64.381 123.027 64.3678C123.304 64.3546 123.41 64.4732 123.41 64.7631C123.396 66.5156 123.41 68.2812 123.41 70.0337C123.41 73.7627 123.41 77.4916 123.41 81.2205C123.41 81.6158 123.423 81.629 123.818 81.629C126.572 81.629 129.313 81.629 132.066 81.629C132.501 81.629 132.501 81.6554 132.514 82.0638C132.514 83.0653 132.514 82.9335 131.645 82.9335C128.575 82.9335 125.518 82.9335 122.448 82.9335C121.881 82.9335 121.881 82.9335 121.881 82.3933C121.868 79.4812 121.868 76.5561 121.868 73.6441Z" fill="black"/>
<path d="M30.568 73.6576C30.568 76.5696 30.568 79.4948 30.568 82.4068C30.568 82.9338 30.5549 82.947 30.0542 82.947C29.8565 82.947 29.6589 82.9338 29.448 82.947C29.1977 82.9602 29.0791 82.8284 29.0791 82.5912C29.0791 82.4727 29.0791 82.3541 29.0791 82.2486C29.0791 76.451 29.0791 70.6402 29.0791 64.8425C29.0791 64.4341 29.1186 64.3813 29.5271 64.3813C29.7379 64.3813 29.9487 64.3813 30.1596 64.3813C30.5549 64.3813 30.5812 64.4077 30.5812 64.7898C30.5812 67.6096 30.5812 70.4293 30.5812 73.2623C30.568 73.3809 30.568 73.5126 30.568 73.6576Z" fill="black"/>
</svg>
