<svg width="27" height="27" viewBox="0 0 27 27" fill="none" xmlns="http://www.w3.org/2000/svg">
<path d="M13.5 1C6.58333 1 1 6.58333 1 13.5C1 20.4167 6.58333 26 13.5 26C20.4167 26 26 20.4167 26 13.5C26 6.58333 20.4167 1 13.5 1ZM21.9167 21.9167C19.6667 24.1667 16.6667 25.3889 13.5 25.3889C10.3333 25.3889 7.33333 24.1389 5.08333 21.9167C2.83333 19.6667 1.61111 16.6667 1.61111 13.5C1.61111 10.3333 2.86111 7.33333 5.08333 5.08333C5.13889 5.02778 5.19444 4.97222 5.25 4.91667C5.19444 5.05556 5.16667 5.16667 5.08333 5.27778C4.91667 5.52778 4.61111 5.63889 4.41667 5.88889C4.25 6.11111 4.11111 6.44444 4.05556 6.69444C4 6.97222 4.02778 7.30556 3.94444 7.58333C3.83333 7.91667 3.61111 8.13889 3.63889 8.52778C4.11111 8.66667 3.91667 7.80556 4.33333 7.77778C4.47222 8.11111 4.38889 8.69444 4.33333 9.05556C4.27778 9.52778 4.19444 9.66667 4.47222 10.0556C4.69444 10.3889 4.77778 10.6111 5.22222 10.6389C5.63889 10.6944 5.80556 10.8611 5.97222 11.25C6.27778 11.3056 6.47222 11.3611 6.5 11.7222C6.63889 11.8056 6.88889 12.0278 7.02778 12.0833C7.22222 12.1389 7.58333 11.8333 7.77778 12.0833C8.11111 12.4722 7.36111 13.4444 7.22222 13.7778C7.02778 14.2778 7 15 7.47222 15.3611C7.72222 15.5556 7.97222 15.6389 8.05556 15.9722C8.13889 16.2778 8.08333 16.5278 8.22222 16.8333C8.44444 17.2778 8.91667 17.4444 9.27778 17.7778C9.72222 18.2222 9.69444 18.8333 9.69444 19.4722C9.69444 20.1389 9.94444 20.6667 10.0278 21.2778C10.1111 21.9167 10.3056 22.5 10.4444 23.1389C10.5556 23.6111 10.9444 24.3056 11.5278 24.2222C11.5556 24 11.3333 23.8333 11.3056 23.6111C11.2778 23.4167 11.3333 23.1944 11.3056 23C11.2222 22.5833 11.2222 22.3333 11.5 21.9722C11.6111 21.8333 11.7222 21.75 11.8333 21.6111C12.0278 21.3611 11.8889 21.4444 11.8611 21.1667C11.8611 20.8333 11.9444 21 12.1667 20.8889C12.2778 20.8333 12.3889 20.6667 12.4722 20.5833C12.6667 20.3889 12.9444 20.1667 13.0833 19.9444C13.25 19.6944 13.2222 19.3333 13.3889 19.0833C13.5833 18.7778 13.8333 18.7778 14.0833 18.5833C14.4167 18.3333 14.2778 18.0556 14.3333 17.7222C14.4444 17.1389 14.6944 16.5278 15.0556 16.0556C15.5 15.4722 15.6944 15 15.1389 14.4444C14.8611 14.1667 14.7222 14.25 14.3611 14.1389C14.0833 14.0556 13.8333 13.8611 13.5556 13.8333C13.3889 13.8056 13.2778 13.8611 13.1389 13.8333C13 13.8056 13 13.6944 12.8611 13.7222C12.6389 13.7222 12.3056 14.1944 12.1389 13.8889C12.0278 13.7222 12.3611 13.25 12.3333 13.0278C12.3056 12.75 12.2222 12.3056 11.9444 12.1389C11.8333 12.1111 11.6111 12.1111 11.5 12.0556C11.3611 12 11.1944 11.9167 11.0833 11.8333C10.9167 11.7222 10.5833 11.5278 10.5 11.3333C10.2778 11.3333 10.1389 11.1944 9.91667 11.2222C9.72222 11.2222 9.58333 11.3056 9.38889 11.2778C9.19445 11.25 9 11.1111 8.80556 11.1389C8.66667 11.1667 8.47222 11.3333 8.36111 11.3889C8.05556 11.5556 7.75 11.6944 7.41667 11.75C6.88889 11.8333 6.80556 11.6389 6.83333 11.1667L6.75 11C6.94444 10.4722 6.58333 10.4167 6.22222 10.3056C6.16667 9.91667 6.63889 9.66667 6.44444 9.25C6.05556 9.22222 5.61111 10.3333 5.27778 9.86111C5.05556 9.55556 5.38889 8.66667 5.58333 8.38889C5.77778 8.11111 6.5 7.63889 6.83333 7.58333C7.08333 7.55556 7.33333 7.66667 7.41667 7.88889C7.52778 8.13889 7.38889 8.36111 7.41667 8.66667C7.75 8.58333 7.66667 8.16667 7.63889 7.94444C7.61111 7.55556 7.80556 7.58333 8 7.33333C8.16667 7.08333 8.19444 6.80556 8.41667 6.55556C8.58333 6.36111 8.77778 6.16667 8.97222 6C9.19445 5.80556 9.41667 5.83333 9.63889 5.66667C9.97222 5.44444 9.52778 5.02778 10.0278 5.05556C10.1944 5.05556 10.1111 5.16667 10.3611 5.11111C10.4722 5.08333 10.6389 5 10.75 4.94444C11.2222 4.75 10.8889 4.69444 10.6667 4.44444C10.3889 4.13889 10.7778 4.19444 11.0556 4.13889C11.25 4.11111 11.2222 4.02778 11.3889 4.16667C11.5556 4.27778 11.4444 4.41667 11.6944 4.41667C12.1389 4.38889 11.8333 3.94444 11.7222 3.80556C11.5556 3.55556 11.5 3.38889 11.1389 3.36111C11.1667 3.25 11.1667 3.11111 11.1389 3C10.8333 3.02778 10.7778 2.83333 10.5556 2.72222C10.1667 2.58333 10.2222 2.88889 10.0833 3.11111C9.91667 3.33333 9.61111 3.30556 9.5 3.55556C9.38889 3.83333 9.5 4.05556 9.05556 3.97222C9.11111 3.80556 9.08333 3.58333 9.08333 3.41667C8.94444 3.38889 8.83333 3.36111 8.72222 3.33333C8.72222 2.88889 9.22222 2.83333 9.55556 2.80556C9.94444 2.75 10.0556 2.36111 10.3889 2.30556C10.6944 2.25 10.9444 2.75 11.3333 2.47222C11.5556 2.30556 11.4444 2.19444 11.3611 2.02778C11.3333 1.97222 11.2222 1.88889 11.1944 1.83333C11.5 1.77778 11.8056 1.72222 12.1111 1.69444C12.1667 1.86111 12.3056 2.05556 12.3611 2.19444C12.4167 2.27778 12.5 2.33333 12.5556 2.44444C12.6111 2.55556 12.5 2.69444 12.6389 2.75C12.8611 2.86111 13.4444 2.13889 13.6111 2.02778C13.8056 1.88889 13.9167 1.80556 13.8611 1.63889C14.8333 1.66667 15.8056 1.80556 16.7222 2.08333C16.8056 2.16667 16.8611 2.27778 16.9444 2.36111C17.1111 2.58333 17.2222 2.77778 17.5 2.88889C17.6667 2.91667 18.2222 2.91667 18 3.30556C17.8056 3.66667 17.5556 3.19444 17.4444 3.08333C17.3056 2.91667 16.8611 2.75 16.8889 3.11111C16.9167 3.63889 18.1111 3.55556 17.8611 4.13889C18 4.22222 18.2778 4.36111 18.25 4.58333C18.1944 4.83333 17.8611 4.66667 17.8611 5C17.8611 5.47222 18.3889 5.86111 18.8611 5.69444C19.3611 5.52778 18.9722 4.80556 19.5556 4.75C19.7778 4.72222 19.9167 4.77778 20.1111 4.94444C20.2778 5.08333 20.3889 5.38889 20.6111 5.36111C20.6389 5.22222 20.5278 5.11111 20.5 4.97222C20.6667 5.02778 21.0278 5.25 21.1389 5.38889C21.3056 5.61111 21.2778 5.97222 21.6667 5.66667C21.6111 5.61111 21.5833 5.52778 21.5556 5.47222C22.0278 5.47222 22.3611 5.66667 22.5833 6.08333C23.0556 7.02778 21.9167 6.27778 21.8611 6.75C21.5833 6.66667 21.4444 6.44444 21.2222 6.30556C21.1111 6.25 20.8889 6.27778 20.8056 6.22222C20.6944 6.13889 20.7222 5.97222 20.6111 5.88889C20.1944 5.55556 19.2222 6.11111 18.8333 6.33333C18.7222 6.38889 18.6111 6.38889 18.5556 6.5C18.4444 6.69444 18.6111 6.75 18.5556 6.91667C18.5 7.16667 18.1667 7.30556 18.0556 7.5C17.8056 8 18.3056 8.72222 18.25 9.27778C18.2222 9.58333 17.8889 9.91667 18 10.1667C18.0556 10.2778 18.25 10.3611 18.3056 10.5C18.3611 10.6111 18.3889 10.7778 18.5 10.8889C18.7778 11.2778 19.1944 11.7222 19.5278 12.1111C19.7222 12.3333 19.9722 12.3889 20.25 12.3333C20.4722 12.2778 20.8333 12.1944 21.0556 12.1111C21.3333 11.9722 21.3889 11.7778 21.6944 11.9167C21.9444 12.0278 22.1389 12.3333 22.4444 12.0833C22.6667 12.3056 22.4167 12.7222 22.3611 12.9722C22.3056 13.3056 22.4167 13.5833 22.6111 13.8611C22.8611 14.1944 22.9167 14.25 22.8611 14.6944C22.8333 15.0278 22.7222 15.3611 22.6667 15.6944C22.5833 16.0278 22.3889 16.2778 22.3889 16.6111C22.3889 16.9444 22.5278 17.1944 22.5 17.5278C22.4722 17.8333 22.4444 18.1944 22.3611 18.5C22.2778 18.8056 22.0556 19.0833 21.9722 19.3889C21.8889 19.6944 21.9167 20.0833 22.1111 20.3056C22.3333 20.5556 22.5278 20.4167 22.8056 20.2222C23.3056 19.8333 23.5278 19.1944 23.8611 18.6944C24.1944 18.1667 24.5556 17.6944 24.7778 17.1667C24.8333 17.0556 24.8889 16.9444 24.9444 16.8333C24.3889 18.6944 23.3611 20.4722 21.9167 21.9167Z" fill="#5A5A5A" stroke="#5A5A5A" stroke-width="1.5"/>
</svg>
