<svg width="30" height="30" viewBox="0 0 30 30" fill="none" xmlns="http://www.w3.org/2000/svg">
<path d="M15 30C23.2843 30 30 23.2843 30 15C30 6.71573 23.2843 0 15 0C6.71573 0 0 6.71573 0 15C0 23.2843 6.71573 30 15 30Z" fill="#5A5A5A"/>
<path d="M15 17.8028C15.2555 17.8028 15.5053 17.727 15.7178 17.5851C15.9302 17.4431 16.0958 17.2413 16.1936 17.0052C16.2914 16.7691 16.317 16.5094 16.2671 16.2587C16.2173 16.0081 16.0942 15.7779 15.9136 15.5972C15.7329 15.4165 15.5027 15.2935 15.252 15.2436C15.0014 15.1938 14.7416 15.2194 14.5055 15.3171C14.2695 15.4149 14.0677 15.5805 13.9257 15.793C13.7837 16.0055 13.708 16.2553 13.708 16.5108C13.7101 16.8528 13.8469 17.1802 14.0887 17.4221C14.3306 17.6639 14.658 17.8007 15 17.8028ZM18.876 11.9888H18.232V10.6968C18.232 9.84015 17.8917 9.01858 17.2859 8.41284C16.6802 7.8071 15.8586 7.4668 15.002 7.4668C14.1453 7.4668 13.3238 7.8071 12.718 8.41284C12.1123 9.01858 11.772 9.84015 11.772 10.6968V11.9888H11.124C10.782 11.9909 10.4546 12.1277 10.2127 12.3695C9.97086 12.6114 9.83407 12.9388 9.83197 13.2808V19.7408C9.83407 20.0828 9.97086 20.4102 10.2127 20.6521C10.4546 20.8939 10.782 21.0307 11.124 21.0328H18.876C19.218 21.0307 19.5454 20.8939 19.7872 20.6521C20.0291 20.4102 20.1659 20.0828 20.168 19.7408V13.2808C20.1659 12.9388 20.0291 12.6114 19.7872 12.3695C19.5454 12.1277 19.218 11.9909 18.876 11.9888ZM12.997 10.6968C12.997 10.4338 13.0488 10.1734 13.1494 9.93047C13.25 9.68752 13.3975 9.46676 13.5835 9.28082C13.7694 9.09487 13.9902 8.94736 14.2331 8.84673C14.4761 8.74609 14.7365 8.6943 14.9995 8.6943C15.2624 8.6943 15.5228 8.74609 15.7658 8.84673C16.0087 8.94736 16.2295 9.09487 16.4155 9.28082C16.6014 9.46676 16.7489 9.68752 16.8495 9.93047C16.9502 10.1734 17.002 10.4338 17.002 10.6968V11.9888H12.997V10.6968ZM18.876 19.7408H11.124V13.2808H18.876V19.7408Z" fill="#F7F7F7"/>
</svg>
