<svg width="22" height="27" viewBox="0 0 22 27" fill="none" xmlns="http://www.w3.org/2000/svg">
<path d="M18.463 5.275H15.825C15.825 3.87598 15.2692 2.53427 14.28 1.54501C13.2907 0.555757 11.949 0 10.55 0C9.15098 0 7.80927 0.555757 6.82001 1.54501C5.83076 2.53427 5.275 3.87598 5.275 5.275H2.638C1.93893 5.27685 1.26901 5.55537 0.774693 6.04969C0.280372 6.54401 0.00184766 7.21393 0 7.913V23.738C0.00184766 24.4371 0.280372 25.107 0.774693 25.6013C1.26901 26.0956 1.93893 26.3742 2.638 26.376H18.463C19.1619 26.3739 19.8316 26.0952 20.3257 25.601C20.8198 25.1067 21.0982 24.4369 21.1 23.738V7.913C21.0982 7.2141 20.8198 6.54434 20.3257 6.05005C19.8316 5.55575 19.1619 5.27711 18.463 5.275ZM10.55 2.638C11.2491 2.63985 11.919 2.91837 12.4133 3.41269C12.9076 3.90701 13.1862 4.57693 13.188 5.276H7.913C7.91485 4.5771 8.19323 3.90734 8.68734 3.41304C9.18144 2.91875 9.8511 2.64011 10.55 2.638ZM18.463 23.738H2.638V7.913H5.275V10.55C5.275 10.8998 5.41397 11.2353 5.66133 11.4827C5.90869 11.73 6.24418 11.869 6.594 11.869C6.94382 11.869 7.27931 11.73 7.52667 11.4827C7.77403 11.2353 7.913 10.8998 7.913 10.55V7.913H13.188V10.55C13.188 10.8998 13.327 11.2353 13.5743 11.4827C13.8217 11.73 14.1572 11.869 14.507 11.869C14.8568 11.869 15.1923 11.73 15.4397 11.4827C15.687 11.2353 15.826 10.8998 15.826 10.55V7.913H18.464L18.463 23.738Z" fill="white"/>
</svg>
