<svg width="25" height="26" viewBox="0 0 25 26" fill="none" xmlns="http://www.w3.org/2000/svg">
<path d="M24.7038 23.177L18.6406 17.1133C19.9623 15.3722 20.7547 13.2062 20.7547 10.8515C20.7547 5.12035 16.1085 0.474121 10.3774 0.474121C4.64623 0.474121 0 5.12035 0 10.8515C0 16.5826 4.64623 21.2288 10.3774 21.2288C12.7321 21.2288 14.8981 20.4364 16.6392 19.1147L22.7028 25.1779C22.9024 25.3774 23.1642 25.4741 23.4255 25.4741C23.6863 25.4741 23.9467 25.377 24.1453 25.1779L24.7038 24.6194C24.9028 24.4213 25 24.1604 25 23.9001C25 23.6383 24.9033 23.3765 24.7038 23.177ZM1.88679 10.8515C1.88679 6.16233 5.68821 2.36091 10.3774 2.36091C15.0665 2.36091 18.8679 6.16233 18.8679 10.8515C18.8679 15.5406 15.0665 19.342 10.3774 19.342C5.68821 19.342 1.88679 15.5406 1.88679 10.8515Z" fill="#5A5A5A"/>
<path d="M14.5485 6.25496H13.4849V5.61678C13.4849 5.38193 13.2943 5.19133 13.0595 5.19133H12.634C12.3992 5.19133 12.2086 5.38193 12.2086 5.61678V6.25496H8.37949V5.61678C8.37949 5.38193 8.18889 5.19133 7.95404 5.19133H7.52859C7.29374 5.19133 7.10313 5.38193 7.10313 5.61678V6.25496H6.0395C5.56959 6.25496 5.1886 6.63595 5.1886 7.10586V8.38222H15.3995V7.10586C15.3995 6.63595 15.0185 6.25496 14.5485 6.25496Z" fill="#5A5A5A"/>
<path d="M5.1886 9.23288V15.1892C5.1886 15.6591 5.56959 16.0401 6.0395 16.0401H14.5485C15.0185 16.0401 15.3995 15.6591 15.3995 15.1892V9.23288H5.1886ZM8.59222 10.2965V12.6365H6.25223V10.2965H8.59222Z" fill="#5A5A5A"/>
</svg>
