<svg width="25" height="25" viewBox="0 0 25 25" fill="none" xmlns="http://www.w3.org/2000/svg">
<path d="M24.7038 22.7028L18.6406 16.6392C19.9623 14.8981 20.7547 12.7321 20.7547 10.3774C20.7547 4.64623 16.1085 0 10.3774 0C4.64623 0 0 4.64623 0 10.3774C0 16.1085 4.64623 20.7547 10.3774 20.7547C12.7321 20.7547 14.8981 19.9623 16.6392 18.6406L22.7028 24.7038C22.9024 24.9033 23.1642 25 23.4255 25C23.6863 25 23.9467 24.9028 24.1453 24.7038L24.7038 24.1453C24.9028 23.9472 25 23.6863 25 23.4259C25 23.1642 24.9033 22.9024 24.7038 22.7028ZM1.88679 10.3774C1.88679 5.68821 5.68821 1.88679 10.3774 1.88679C15.0665 1.88679 18.8679 5.68821 18.8679 10.3774C18.8679 15.0665 15.0665 18.8679 10.3774 18.8679C5.68821 18.8679 1.88679 15.0665 1.88679 10.3774Z" fill="#FBFBFB"/>
<path d="M14.5485 5.78043H13.4849V5.14225C13.4849 4.9074 13.2943 4.7168 13.0595 4.7168H12.634C12.3992 4.7168 12.2086 4.9074 12.2086 5.14225V5.78043H8.37949V5.14225C8.37949 4.9074 8.18889 4.7168 7.95404 4.7168H7.52859C7.29374 4.7168 7.10313 4.9074 7.10313 5.14225V5.78043H6.0395C5.56959 5.78043 5.1886 6.16142 5.1886 6.63133V7.90769H15.3995V6.63133C15.3995 6.16142 15.0185 5.78043 14.5485 5.78043Z" fill="#FBFBFB"/>
<path d="M5.1886 8.75781V14.7141C5.1886 15.1841 5.56959 15.565 6.0395 15.565H14.5485C15.0185 15.565 15.3995 15.1841 15.3995 14.7141V8.75781H5.1886ZM8.59222 9.82144V12.1614H6.25223V9.82144H8.59222Z" fill="#FBFBFB"/>
</svg>
