<svg width="24" height="23" viewBox="0 0 24 23" fill="none" xmlns="http://www.w3.org/2000/svg">
<path d="M4.77164 22.6834H19.2165C21.7929 22.6834 23.1289 21.3475 23.1289 18.8068V4.29042C23.1289 1.73783 21.7929 0.413818 19.2165 0.413818H4.77164C2.19519 0.413818 0.859253 1.73783 0.859253 4.29042V18.8068C0.859253 21.3594 2.19519 22.6834 4.77164 22.6834ZM4.91478 20.3455C3.80547 20.3455 3.19714 19.7611 3.19714 18.604V4.48127C3.19714 3.32425 3.80547 2.75171 4.91478 2.75171H19.0733C20.1707 2.75171 20.791 3.32425 20.791 4.48127V18.604C20.791 19.7611 20.1707 20.3455 19.0733 20.3455H4.91478ZM7.1811 16.2423H13.2286C14.4453 16.2423 15.149 15.5505 15.149 14.3696V8.72764C15.149 7.52291 14.493 6.84302 13.2763 6.84302H7.1811C6.01215 6.84302 5.26069 7.52291 5.26069 8.72764V14.3934C5.26069 15.5863 5.97637 16.2423 7.1811 16.2423ZM15.817 13.2364L17.964 15.0614C18.2026 15.2523 18.4411 15.3954 18.6678 15.3954C19.133 15.3954 19.4431 15.0614 19.4431 14.5604V8.54872C19.4431 8.04775 19.133 7.72569 18.6678 7.72569C18.4411 7.72569 18.1907 7.8569 17.964 8.03582L15.817 9.8608V13.2364Z" fill="#5A5A5A"/>
</svg>
