<svg width="177" height="77" viewBox="0 0 177 77" fill="none" xmlns="http://www.w3.org/2000/svg">
<path d="M91.139 0.894069C91.607 0.81174 92.079 0.753994 92.553 0.721069C98.136 0.761069 103.724 0.664069 109.293 0.921069C111.594 1.08971 113.852 1.63004 115.98 2.52107C119.285 3.83007 120.813 6.67507 120.657 10.3411C120.605 11.9145 120.06 13.4318 119.099 14.6787C118.138 15.9256 116.809 16.8391 115.301 17.2901C113.444 17.9091 111.51 18.3011 109.741 18.7581C111.064 19.4931 112.541 20.2351 113.935 21.1121C116.024 22.5992 117.668 24.6275 118.691 26.9791C119.319 28.1941 119.98 29.3931 120.691 30.5601C122.057 32.8121 123.718 34.6801 126.708 34.6751C126.708 34.7941 126.699 34.9161 126.697 35.0361C126.229 35.2267 125.74 35.3629 125.24 35.4421C120.131 35.6491 116.128 33.7501 113.589 29.1811C112.328 26.9151 111.232 24.5551 109.889 22.3401C108.14 19.4461 105.408 18.4811 101.938 18.8271V21.0731C101.938 24.7161 101.927 28.3621 101.944 32.0061C101.953 33.6731 102.396 34.0821 104.057 34.0931C104.903 34.0991 105.747 34.0931 106.593 34.0931C106.587 34.2551 106.582 34.4141 106.576 34.5761H91.571C91.557 34.4601 91.543 34.3401 91.528 34.2241C92.19 34.1811 92.848 34.1051 93.51 34.0991C95.847 34.0821 96.11 33.8381 96.117 31.5181C96.123 22.3374 96.123 13.1557 96.117 3.97307C96.117 1.56507 95.9171 1.37307 93.5781 1.37307C93.0101 1.37307 92.4451 1.35907 91.8781 1.32507C91.7581 1.32107 91.647 1.20107 91.139 0.894069ZM101.93 18.0991C104.923 18.1991 107.697 18.2181 110.335 17.0631C111.606 16.5886 112.715 15.7636 113.536 14.684C114.357 13.6043 114.855 12.3142 114.972 10.9631C115.301 7.74607 114.691 4.84607 111.687 2.92707C108.958 1.18307 105.94 1.26907 102.915 1.47607C102.56 1.50207 101.975 2.23407 101.969 2.64607C101.907 7.74907 101.93 12.8521 101.93 18.1001V18.0991Z" fill="black"/>
<path d="M0.0620003 34.087C0.937 34.087 1.817 34.036 2.689 34.098C4.1 34.198 4.677 33.487 4.722 32.181C4.733 31.897 4.728 31.613 4.728 31.329C4.728 22.239 4.728 13.1504 4.728 4.06303C4.728 1.68603 4.428 1.41103 2.028 1.39703C1.361 1.39703 0.696 1.33503 0.0279999 1.29703L0 0.917027C0.310631 0.821097 0.630319 0.757428 0.954 0.727027C7.105 0.750027 13.264 0.627027 19.406 0.872027C24.506 1.07203 29.129 2.75203 32.591 6.78403C38.691 13.884 38.279 27.965 25.791 32.949C22.5677 34.1883 19.1347 34.7911 15.682 34.724C10.855 34.713 6.027 34.724 1.2 34.715C0.808089 34.6954 0.41752 34.6547 0.0300007 34.593C0.0430007 34.425 0.0540003 34.257 0.0620003 34.087ZM10.512 17.734H10.49C10.49 22.701 10.507 27.664 10.476 32.634C10.47 33.699 10.788 34.196 11.938 34.142C13.684 34.062 15.445 34.204 17.183 34.068C22.505 33.651 26.511 31.168 28.667 26.177C30.8605 21.1365 31.0302 15.4453 29.141 10.283C27.503 5.55203 24.341 2.25003 19.177 1.54503C16.854 1.22703 14.457 1.47703 12.098 1.35803C10.832 1.29603 10.477 1.75303 10.491 2.98203C10.546 7.89703 10.512 12.815 10.512 17.734Z" fill="black"/>
<path d="M90.293 17.833C90.27 28.152 82.566 35.544 71.884 35.496C61.363 35.448 53.645 27.852 53.665 17.564C53.684 7.35702 61.414 -0.0139801 72.073 1.99091e-05C82.732 0.0140199 90.314 7.42802 90.293 17.833ZM84.333 17.733C83.947 15.368 83.733 12.96 83.133 10.648C82.219 7.09302 80.498 3.94802 77.175 2.04802C71.581 -1.14398 64.788 1.21002 61.986 7.49202C60.5362 10.6601 59.7771 14.1003 59.759 17.5842C59.7409 21.0682 60.4642 24.5161 61.881 27.699C63.741 32.115 67.081 34.767 72.03 34.753C76.9 34.739 80.149 32.153 82.145 27.833C83.4894 24.63 84.2308 21.2063 84.332 17.734L84.333 17.733Z" fill="black"/>
<path d="M52.269 34.575H37.824C37.815 34.416 37.81 34.257 37.801 34.095C38.647 34.095 39.501 34.052 40.337 34.104C41.564 34.178 42.069 33.519 42.132 32.42C42.183 31.52 42.158 30.62 42.158 29.72C42.158 21.2973 42.158 12.874 42.158 4.44998C42.158 3.88498 42.113 3.31998 42.079 2.74998C42.095 2.54774 42.0637 2.34456 41.9876 2.1565C41.9115 1.96844 41.7927 1.80066 41.6406 1.66641C41.4885 1.53216 41.3073 1.43513 41.1113 1.38299C40.9152 1.33085 40.7097 1.32503 40.511 1.36598C39.611 1.40898 38.711 1.37498 37.816 1.37498C37.822 1.20998 37.827 1.04598 37.83 0.880981H52.165C52.179 0.999981 52.191 1.11698 52.205 1.23598C51.575 1.28098 50.941 1.36098 50.311 1.36898C48.111 1.39498 47.937 1.55098 47.934 3.69498C47.934 13.0176 47.934 22.3393 47.934 31.66C47.934 33.943 48.084 34.082 50.334 34.096C50.99 34.102 51.646 34.164 52.302 34.196C52.286 34.328 52.278 34.453 52.269 34.575Z" fill="black"/>
<path d="M1.91504 58.2637V55.75C2.2028 56.0039 2.54557 56.2324 2.94336 56.4355C3.34961 56.6387 3.77279 56.8122 4.21289 56.9561C4.66146 57.0915 5.11003 57.1973 5.55859 57.2734C6.00716 57.3496 6.42188 57.3877 6.80273 57.3877C8.11458 57.3877 9.09212 57.1465 9.73535 56.6641C10.387 56.1732 10.7129 55.4707 10.7129 54.5566C10.7129 54.0658 10.6029 53.6383 10.3828 53.2744C10.1712 52.9105 9.875 52.5804 9.49414 52.2842C9.11328 51.9795 8.66048 51.6917 8.13574 51.4209C7.61947 51.1416 7.06087 50.8496 6.45996 50.5449C5.8252 50.2233 5.23275 49.8975 4.68262 49.5674C4.13249 49.2373 3.6543 48.8734 3.24805 48.4756C2.8418 48.0778 2.52018 47.6292 2.2832 47.1299C2.05469 46.6221 1.94043 46.0296 1.94043 45.3525C1.94043 44.5231 2.1224 43.8037 2.48633 43.1943C2.85026 42.5765 3.32845 42.0687 3.9209 41.6709C4.51335 41.2731 5.1862 40.9769 5.93945 40.7822C6.70117 40.5876 7.47559 40.4902 8.2627 40.4902C10.057 40.4902 11.3646 40.7061 12.1855 41.1377V43.5371C11.1107 42.7923 9.73112 42.4199 8.04688 42.4199C7.58138 42.4199 7.11589 42.4707 6.65039 42.5723C6.1849 42.6654 5.77018 42.8219 5.40625 43.042C5.04232 43.262 4.74609 43.5456 4.51758 43.8926C4.28906 44.2396 4.1748 44.6628 4.1748 45.1621C4.1748 45.6276 4.25944 46.0296 4.42871 46.3682C4.60645 46.7067 4.86458 47.0156 5.20312 47.2949C5.54167 47.5742 5.95215 47.8451 6.43457 48.1074C6.92546 48.3698 7.48828 48.6576 8.12305 48.9707C8.77474 49.2923 9.39258 49.6309 9.97656 49.9863C10.5605 50.3418 11.0726 50.7354 11.5127 51.167C11.9528 51.5986 12.2998 52.0768 12.5537 52.6016C12.8161 53.1263 12.9473 53.7272 12.9473 54.4043C12.9473 55.3014 12.7695 56.0632 12.4141 56.6895C12.0671 57.3073 11.5931 57.8109 10.9922 58.2002C10.3997 58.5895 9.71419 58.8688 8.93555 59.0381C8.1569 59.2158 7.33594 59.3047 6.47266 59.3047C6.1849 59.3047 5.82943 59.2793 5.40625 59.2285C4.98307 59.1862 4.55143 59.1185 4.11133 59.0254C3.67122 58.9408 3.25228 58.835 2.85449 58.708C2.46517 58.5726 2.15202 58.4245 1.91504 58.2637ZM29.248 59H26.2773L19.2441 50.6719C18.9818 50.3587 18.821 50.1471 18.7617 50.0371H18.7109V59H16.5781V40.7949H18.7109V49.3516H18.7617C18.8802 49.1654 19.041 48.958 19.2441 48.7295L26.0488 40.7949H28.7021L20.8945 49.5293L29.248 59ZM33.793 59H31.6602V40.7949H33.793V59ZM53.2676 59H50.6523L41.2832 44.4893C41.0462 44.1253 40.8516 43.7445 40.6992 43.3467H40.623C40.6908 43.736 40.7246 44.5697 40.7246 45.8477V59H38.5918V40.7949H41.3594L50.4746 55.0771C50.8555 55.6696 51.1009 56.0758 51.2109 56.2959H51.2617C51.1771 55.7712 51.1348 54.8783 51.1348 53.6172V40.7949H53.2676V59ZM79.2676 59H76.9062L74.9766 53.8965H67.2578L65.4424 59H63.0684L70.0508 40.7949H72.2598L79.2676 59ZM74.2783 51.9795L71.4219 44.2227C71.3288 43.9688 71.2357 43.5625 71.1426 43.0039H71.0918C71.0072 43.5202 70.9098 43.9264 70.7998 44.2227L67.9688 51.9795H74.2783ZM96.6348 59H94.0195L84.6504 44.4893C84.4134 44.1253 84.2188 43.7445 84.0664 43.3467H83.9902C84.0579 43.736 84.0918 44.5697 84.0918 45.8477V59H81.959V40.7949H84.7266L93.8418 55.0771C94.2227 55.6696 94.4681 56.0758 94.5781 56.2959H94.6289C94.5443 55.7712 94.502 54.8783 94.502 53.6172V40.7949H96.6348V59ZM115.5 59H113.139L111.209 53.8965H103.49L101.675 59H99.3008L106.283 40.7949H108.492L115.5 59ZM110.511 51.9795L107.654 44.2227C107.561 43.9688 107.468 43.5625 107.375 43.0039H107.324C107.24 43.5202 107.142 43.9264 107.032 44.2227L104.201 51.9795H110.511ZM127.637 59H118.191V40.7949H120.324V57.0703H127.637V59ZM140.738 40.7949L134.733 52.2715V59H132.601V52.3223L126.748 40.7949H129.173L133.248 49.0215C133.299 49.123 133.447 49.4954 133.692 50.1387H133.73C133.815 49.8509 133.976 49.4785 134.213 49.0215L138.479 40.7949H140.738ZM142.427 58.2637V55.75C142.715 56.0039 143.057 56.2324 143.455 56.4355C143.861 56.6387 144.285 56.8122 144.725 56.9561C145.173 57.0915 145.622 57.1973 146.07 57.2734C146.519 57.3496 146.934 57.3877 147.314 57.3877C148.626 57.3877 149.604 57.1465 150.247 56.6641C150.899 56.1732 151.225 55.4707 151.225 54.5566C151.225 54.0658 151.115 53.6383 150.895 53.2744C150.683 52.9105 150.387 52.5804 150.006 52.2842C149.625 51.9795 149.172 51.6917 148.647 51.4209C148.131 51.1416 147.573 50.8496 146.972 50.5449C146.337 50.2233 145.744 49.8975 145.194 49.5674C144.644 49.2373 144.166 48.8734 143.76 48.4756C143.354 48.0778 143.032 47.6292 142.795 47.1299C142.566 46.6221 142.452 46.0296 142.452 45.3525C142.452 44.5231 142.634 43.8037 142.998 43.1943C143.362 42.5765 143.84 42.0687 144.433 41.6709C145.025 41.2731 145.698 40.9769 146.451 40.7822C147.213 40.5876 147.987 40.4902 148.774 40.4902C150.569 40.4902 151.876 40.7061 152.697 41.1377V43.5371C151.622 42.7923 150.243 42.4199 148.559 42.4199C148.093 42.4199 147.628 42.4707 147.162 42.5723C146.697 42.6654 146.282 42.8219 145.918 43.042C145.554 43.262 145.258 43.5456 145.029 43.8926C144.801 44.2396 144.687 44.6628 144.687 45.1621C144.687 45.6276 144.771 46.0296 144.94 46.3682C145.118 46.7067 145.376 47.0156 145.715 47.2949C146.053 47.5742 146.464 47.8451 146.946 48.1074C147.437 48.3698 148 48.6576 148.635 48.9707C149.286 49.2923 149.904 49.6309 150.488 49.9863C151.072 50.3418 151.584 50.7354 152.024 51.167C152.465 51.5986 152.812 52.0768 153.065 52.6016C153.328 53.1263 153.459 53.7272 153.459 54.4043C153.459 55.3014 153.281 56.0632 152.926 56.6895C152.579 57.3073 152.105 57.8109 151.504 58.2002C150.911 58.5895 150.226 58.8688 149.447 59.0381C148.669 59.2158 147.848 59.3047 146.984 59.3047C146.697 59.3047 146.341 59.2793 145.918 59.2285C145.495 59.1862 145.063 59.1185 144.623 59.0254C144.183 58.9408 143.764 58.835 143.366 58.708C142.977 58.5726 142.664 58.4245 142.427 58.2637ZM159.223 59H157.09V40.7949H159.223V59ZM163.171 58.2637V55.75C163.459 56.0039 163.801 56.2324 164.199 56.4355C164.605 56.6387 165.029 56.8122 165.469 56.9561C165.917 57.0915 166.366 57.1973 166.814 57.2734C167.263 57.3496 167.678 57.3877 168.059 57.3877C169.37 57.3877 170.348 57.1465 170.991 56.6641C171.643 56.1732 171.969 55.4707 171.969 54.5566C171.969 54.0658 171.859 53.6383 171.639 53.2744C171.427 52.9105 171.131 52.5804 170.75 52.2842C170.369 51.9795 169.916 51.6917 169.392 51.4209C168.875 51.1416 168.317 50.8496 167.716 50.5449C167.081 50.2233 166.489 49.8975 165.938 49.5674C165.388 49.2373 164.91 48.8734 164.504 48.4756C164.098 48.0778 163.776 47.6292 163.539 47.1299C163.311 46.6221 163.196 46.0296 163.196 45.3525C163.196 44.5231 163.378 43.8037 163.742 43.1943C164.106 42.5765 164.584 42.0687 165.177 41.6709C165.769 41.2731 166.442 40.9769 167.195 40.7822C167.957 40.5876 168.731 40.4902 169.519 40.4902C171.313 40.4902 172.62 40.7061 173.441 41.1377V43.5371C172.367 42.7923 170.987 42.4199 169.303 42.4199C168.837 42.4199 168.372 42.4707 167.906 42.5723C167.441 42.6654 167.026 42.8219 166.662 43.042C166.298 43.262 166.002 43.5456 165.773 43.8926C165.545 44.2396 165.431 44.6628 165.431 45.1621C165.431 45.6276 165.515 46.0296 165.685 46.3682C165.862 46.7067 166.12 47.0156 166.459 47.2949C166.798 47.5742 167.208 47.8451 167.69 48.1074C168.181 48.3698 168.744 48.6576 169.379 48.9707C170.031 49.2923 170.648 49.6309 171.232 49.9863C171.816 50.3418 172.328 50.7354 172.769 51.167C173.209 51.5986 173.556 52.0768 173.81 52.6016C174.072 53.1263 174.203 53.7272 174.203 54.4043C174.203 55.3014 174.025 56.0632 173.67 56.6895C173.323 57.3073 172.849 57.8109 172.248 58.2002C171.656 58.5895 170.97 58.8688 170.191 59.0381C169.413 59.2158 168.592 59.3047 167.729 59.3047C167.441 59.3047 167.085 59.2793 166.662 59.2285C166.239 59.1862 165.807 59.1185 165.367 59.0254C164.927 58.9408 164.508 58.835 164.11 58.708C163.721 58.5726 163.408 58.4245 163.171 58.2637ZM16.3164 63.7969L13.3555 75H10.5586L8.69922 67.8125C8.60026 67.4375 8.54036 67.0182 8.51953 66.5547H8.48828C8.44141 67.0651 8.3737 67.4844 8.28516 67.8125L6.37891 75H3.46484L0.519531 63.7969H3.27734L4.85547 71.2578C4.92318 71.5755 4.97266 72.0026 5.00391 72.5391H5.05078C5.07161 72.138 5.14714 71.7005 5.27734 71.2266L7.30859 63.7969H10.0117L11.8477 71.3203C11.9154 71.5964 11.9753 71.9974 12.0273 72.5234H12.0586C12.0794 72.112 12.1341 71.6953 12.2227 71.2734L13.7695 63.7969H16.3164ZM24.457 75H17.7383V63.7969H24.1992V65.8516H20.2617V68.3438H23.9258V70.3906H20.2617V72.9531H24.457V75ZM26.2539 75V63.7969H30.332C31.582 63.7969 32.543 64.026 33.2148 64.4844C33.8867 64.9427 34.2227 65.5885 34.2227 66.4219C34.2227 67.026 34.0169 67.5547 33.6055 68.0078C33.1992 68.4609 32.6784 68.776 32.043 68.9531V68.9844C32.8398 69.0833 33.4753 69.3776 33.9492 69.8672C34.4284 70.3568 34.668 70.9531 34.668 71.6562C34.668 72.6823 34.3008 73.4974 33.5664 74.1016C32.832 74.7005 31.8294 75 30.5586 75H26.2539ZM28.7773 65.6562V68.3125H29.8867C30.4076 68.3125 30.8164 68.1875 31.1133 67.9375C31.4154 67.6823 31.5664 67.3333 31.5664 66.8906C31.5664 66.0677 30.9518 65.6562 29.7227 65.6562H28.7773ZM28.7773 70.1875V73.1406H30.1445C30.7279 73.1406 31.1836 73.0052 31.5117 72.7344C31.8451 72.4635 32.0117 72.0938 32.0117 71.625C32.0117 71.1771 31.8477 70.8255 31.5195 70.5703C31.1966 70.3151 30.7435 70.1875 30.1602 70.1875H28.7773ZM40.9414 75V63.7969H45.0195C46.2695 63.7969 47.2305 64.026 47.9023 64.4844C48.5742 64.9427 48.9102 65.5885 48.9102 66.4219C48.9102 67.026 48.7044 67.5547 48.293 68.0078C47.8867 68.4609 47.3659 68.776 46.7305 68.9531V68.9844C47.5273 69.0833 48.1628 69.3776 48.6367 69.8672C49.1159 70.3568 49.3555 70.9531 49.3555 71.6562C49.3555 72.6823 48.9883 73.4974 48.2539 74.1016C47.5195 74.7005 46.5169 75 45.2461 75H40.9414ZM43.4648 65.6562V68.3125H44.5742C45.0951 68.3125 45.5039 68.1875 45.8008 67.9375C46.1029 67.6823 46.2539 67.3333 46.2539 66.8906C46.2539 66.0677 45.6393 65.6562 44.4102 65.6562H43.4648ZM43.4648 70.1875V73.1406H44.832C45.4154 73.1406 45.8711 73.0052 46.1992 72.7344C46.5326 72.4635 46.6992 72.0938 46.6992 71.625C46.6992 71.1771 46.5352 70.8255 46.207 70.5703C45.8841 70.3151 45.431 70.1875 44.8477 70.1875H43.4648ZM61.0586 75H58.3086L57.5117 72.5078H53.5273L52.7383 75H50.0039L54.082 63.7969H57.0742L61.0586 75ZM56.9336 70.5703L55.7305 66.8047C55.6419 66.5234 55.5794 66.1875 55.543 65.7969H55.4805C55.4544 66.125 55.3893 66.4505 55.2852 66.7734L54.0664 70.5703H56.9336ZM70.2383 74.6016C69.4206 74.9974 68.3529 75.1953 67.0352 75.1953C65.3164 75.1953 63.9648 74.6901 62.9805 73.6797C61.9961 72.6693 61.5039 71.3229 61.5039 69.6406C61.5039 67.849 62.056 66.3958 63.1602 65.2812C64.2695 64.1667 65.707 63.6094 67.4727 63.6094C68.5664 63.6094 69.4883 63.7474 70.2383 64.0234V66.4531C69.4883 66.0052 68.6341 65.7812 67.6758 65.7812C66.6237 65.7812 65.7747 66.112 65.1289 66.7734C64.4831 67.4349 64.1602 68.3307 64.1602 69.4609C64.1602 70.5443 64.4648 71.4089 65.0742 72.0547C65.6836 72.6953 66.5039 73.0156 67.5352 73.0156C68.5195 73.0156 69.4206 72.776 70.2383 72.2969V74.6016ZM81.5039 75H78.3164L75.0508 70.1328C74.9883 70.0391 74.8893 69.8333 74.7539 69.5156H74.7148V75H72.1914V63.7969H74.7148V69.0938H74.7539C74.8164 68.9479 74.9206 68.7396 75.0664 68.4688L78.1602 63.7969H81.168L77.2617 69.1406L81.5039 75ZM91.7383 75.1953C90.1341 75.1953 88.8268 74.6745 87.8164 73.6328C86.806 72.5859 86.3008 71.224 86.3008 69.5469C86.3008 67.776 86.8138 66.3438 87.8398 65.25C88.8659 64.1562 90.2253 63.6094 91.918 63.6094C93.5169 63.6094 94.8086 64.1328 95.793 65.1797C96.7826 66.2266 97.2773 67.6068 97.2773 69.3203C97.2773 71.0807 96.7643 72.5 95.7383 73.5781C94.7174 74.6562 93.3841 75.1953 91.7383 75.1953ZM91.8477 65.7812C90.9622 65.7812 90.2591 66.1146 89.7383 66.7812C89.2174 67.4427 88.957 68.3203 88.957 69.4141C88.957 70.5234 89.2174 71.401 89.7383 72.0469C90.2591 72.6927 90.9414 73.0156 91.7852 73.0156C92.6549 73.0156 93.3451 72.7031 93.8555 72.0781C94.3659 71.4479 94.6211 70.5755 94.6211 69.4609C94.6211 68.2995 94.3737 67.3958 93.8789 66.75C93.3841 66.1042 92.707 65.7812 91.8477 65.7812ZM105.621 65.8516H101.668V68.6016H105.301V70.6484H101.668V75H99.1445V63.7969H105.621V65.8516ZM113.949 65.8516H109.996V68.6016H113.629V70.6484H109.996V75H107.473V63.7969H113.949V65.8516ZM118.324 75H115.801V63.7969H118.324V75ZM128.91 74.6016C128.092 74.9974 127.025 75.1953 125.707 75.1953C123.988 75.1953 122.637 74.6901 121.652 73.6797C120.668 72.6693 120.176 71.3229 120.176 69.6406C120.176 67.849 120.728 66.3958 121.832 65.2812C122.941 64.1667 124.379 63.6094 126.145 63.6094C127.238 63.6094 128.16 63.7474 128.91 64.0234V66.4531C128.16 66.0052 127.306 65.7812 126.348 65.7812C125.296 65.7812 124.447 66.112 123.801 66.7734C123.155 67.4349 122.832 68.3307 122.832 69.4609C122.832 70.5443 123.137 71.4089 123.746 72.0547C124.355 72.6953 125.176 73.0156 126.207 73.0156C127.191 73.0156 128.092 72.776 128.91 72.2969V74.6016ZM137.582 75H130.863V63.7969H137.324V65.8516H133.387V68.3438H137.051V70.3906H133.387V72.9531H137.582V75Z" fill="#707070"/>
</svg>
