<svg width="361" height="253" viewBox="0 0 361 253" fill="none" xmlns="http://www.w3.org/2000/svg">
<path d="M358.182 0H2.81772C1.81382 0 1 0.89868 1 2.00726V250.907C1 252.016 1.81382 252.915 2.81772 252.915H358.182C359.186 252.915 360 252.016 360 250.907V2.00726C360 0.89868 359.186 0 358.182 0Z" fill="white"/>
<path d="M358.182 0.501953H2.81764C2.06471 0.501953 1.45435 1.17596 1.45435 2.0074V250.907C1.45435 251.739 2.06471 252.413 2.81764 252.413H358.182C358.935 252.413 359.546 251.739 359.546 250.907V2.0074C359.546 1.17596 358.935 0.501953 358.182 0.501953Z" stroke="#CECECE"/>
<path d="M342.732 21.0762H18.2686V232.842H342.732V21.0762Z" stroke="#CECECE" stroke-width="2" stroke-dasharray="6 7"/>
<path d="M198.528 142.539V111.571C198.525 110.399 198.102 109.275 197.351 108.447C196.601 107.618 195.583 107.15 194.522 107.147H166.478C165.416 107.15 164.399 107.618 163.649 108.447C162.898 109.275 162.475 110.399 162.472 111.571V142.539C162.475 143.711 162.898 144.834 163.649 145.663C164.399 146.492 165.416 146.96 166.478 146.963H194.522C195.583 146.96 196.601 146.492 197.351 145.663C198.102 144.834 198.525 143.711 198.528 142.539V142.539ZM173.489 130.373L178.497 137.031L185.508 127.055L194.522 140.327H166.478L173.489 130.373Z" fill="#CECECE"/>
<path d="M360 0H1V252.915H360V0Z" fill="#EEEDF2"/>
<path d="M359.546 0.501953H1.45435V252.413H359.546V0.501953Z" stroke="#707070"/>
<path d="M358.182 0H2.81772C1.81382 0 1 0.89868 1 2.00726V250.907C1 252.016 1.81382 252.915 2.81772 252.915H358.182C359.186 252.915 360 252.016 360 250.907V2.00726C360 0.89868 359.186 0 358.182 0Z" fill="white"/>
<path d="M358.182 0.501953H2.81764C2.06471 0.501953 1.45435 1.17596 1.45435 2.0074V250.907C1.45435 251.739 2.06471 252.413 2.81764 252.413H358.182C358.935 252.413 359.546 251.739 359.546 250.907V2.0074C359.546 1.17596 358.935 0.501953 358.182 0.501953Z" stroke="#CECECE"/>
<path d="M342.732 21.0762H18.2686V232.842H342.732V21.0762Z" stroke="#CECECE" stroke-width="2" stroke-dasharray="6 7"/>
<path d="M198.528 142.539V111.571C198.525 110.399 198.102 109.275 197.351 108.447C196.601 107.618 195.583 107.15 194.522 107.147H166.478C165.416 107.15 164.399 107.618 163.649 108.447C162.898 109.275 162.475 110.399 162.472 111.571V142.539C162.475 143.711 162.898 144.834 163.649 145.663C164.399 146.492 165.416 146.96 166.478 146.963H194.522C195.583 146.96 196.601 146.492 197.351 145.663C198.102 144.834 198.525 143.711 198.528 142.539V142.539ZM173.489 130.373L178.497 137.031L185.508 127.055L194.522 140.327H166.478L173.489 130.373Z" fill="#CECECE"/>
</svg>
