<svg width="26" height="26" viewBox="0 0 26 26" fill="none" xmlns="http://www.w3.org/2000/svg">
<path d="M12.6 0C10.108 0 7.67188 0.738977 5.59982 2.12348C3.52776 3.50799 1.91279 5.47584 0.959124 7.77819C0.00545937 10.0805 -0.244063 12.614 0.242111 15.0581C0.728285 17.5023 1.92832 19.7474 3.69046 21.5095C5.4526 23.2717 7.69771 24.4717 10.1419 24.9579C12.586 25.4441 15.1195 25.1945 17.4218 24.2409C19.7242 23.2872 21.692 21.6722 23.0765 19.6002C24.461 17.5281 25.2 15.092 25.2 12.6C25.1976 9.259 23.8694 6.05553 21.5069 3.69309C19.1445 1.33065 15.941 0.00238387 12.6 0ZM12.6 3.781C13.3478 3.781 14.0788 4.00275 14.7006 4.41821C15.3224 4.83367 15.807 5.42419 16.0932 6.11507C16.3794 6.80596 16.4542 7.56619 16.3084 8.29964C16.1625 9.03308 15.8024 9.70679 15.2736 10.2356C14.7448 10.7644 14.0711 11.1245 13.3376 11.2703C12.6042 11.4162 11.844 11.3414 11.1531 11.0552C10.4622 10.769 9.87168 10.2844 9.45622 9.66261C9.04076 9.04083 8.81901 8.30981 8.81901 7.562C8.81835 7.06529 8.9157 6.57333 9.10548 6.1143C9.29526 5.65527 9.57374 5.23819 9.92497 4.88696C10.2762 4.53573 10.6933 4.25725 11.1523 4.06747C11.6113 3.87769 12.1033 3.78034 12.6 3.781ZM12.6 21.681C11.1023 21.681 9.62797 21.3103 8.30835 20.6021C6.98873 19.8938 5.86488 18.87 5.03701 17.622C5.07501 15.114 10.079 13.74 12.6 13.74C15.121 13.74 20.125 15.114 20.162 17.622C19.334 18.8695 18.2102 19.8928 16.8908 20.6007C15.5714 21.3086 14.0973 21.679 12.6 21.679V21.681Z" fill="#5A5A5A"/>
</svg>
